<?xml version="1.0" encoding="UTF-8"?>
<svg version="1.1" xmlns="http://www.w3.org/2000/svg" width="540" height="140">
<path d="M0 0 C178.2 0 356.4 0 540 0 C540 46.2 540 92.4 540 140 C361.8 140 183.6 140 0 140 C0 93.8 0 47.6 0 0 Z " fill="#FEAEC8" transform="translate(0,0)"/>
<path d="M0 0 C7.86486483 7.12554204 14.30563982 16.05832775 20.875 24.375 C21.32697754 24.94532959 21.77895508 25.51565918 22.24462891 26.10327148 C30.01665731 36.01166625 30.01665731 36.01166625 29.96484375 39.0859375 C28.74103785 41.51373058 27.2668684 43.50605551 25.5625 45.625 C24.94503906 46.40101562 24.32757813 47.17703125 23.69140625 47.9765625 C22 50 22 50 20 52 C16.82221099 51.70439172 14.02657734 51.00885911 11 50 C2.02091092 47.37197393 -8.07270973 47.14126098 -17 50 C-17.62648438 50.35449219 -18.25296875 50.70898438 -18.8984375 51.07421875 C-21.83354756 52.36719474 -23.8258699 52.43936859 -27 52 C-29.30078125 49.98828125 -29.30078125 49.98828125 -31.3125 47.3125 C-31.98925781 46.44238281 -32.66601562 45.57226562 -33.36328125 44.67578125 C-35.05201026 41.9149713 -35.90287356 40.23073225 -36 37 C-34.8046875 34.66796875 -34.8046875 34.66796875 -32.875 32.1875 C-32.14152344 31.23488281 -31.40804687 30.28226563 -30.65234375 29.30078125 C-29.77089918 28.19838066 -28.88656282 27.09828864 -28 26 C-27.23453857 25.04746338 -27.23453857 25.04746338 -26.45361328 24.07568359 C-23.67565282 20.62663815 -20.87992294 17.19282952 -18.0703125 13.76953125 C-15.04890445 10.07987402 -12.12976691 6.31996749 -9.26953125 2.50390625 C-6.64445102 -0.60580418 -3.85908638 -0.45401016 0 0 Z " fill="#B63CB8" transform="translate(121,44)"/>
<path d="M0 0 C2.48925949 0.3240277 4.91235341 0.71724167 7.375 1.1875 C8.45297852 1.39016479 8.45297852 1.39016479 9.55273438 1.59692383 C15.61059794 2.79863427 21.2965325 4.61952733 27 7 C27 7.66 27 8.32 27 9 C29.475 9.495 29.475 9.495 32 10 C32 10.66 32 11.32 32 12 C32.680625 12.165 33.36125 12.33 34.0625 12.5 C39.26650569 15.15736461 42.93165159 19.77040333 45.4375 25 C45.623125 25.66 45.80875 26.32 46 27 C43.25619106 26.50112565 40.70758358 25.90045398 38.0625 25 C29.04519249 22.40112535 18.96055908 22.13060749 10 25 C9.37351562 25.35449219 8.74703125 25.70898438 8.1015625 26.07421875 C5.16645244 27.36719474 3.1741301 27.43936859 0 27 C-2.30078125 24.98828125 -2.30078125 24.98828125 -4.3125 22.3125 C-4.98925781 21.44238281 -5.66601562 20.57226562 -6.36328125 19.67578125 C-8.07336785 16.88005494 -8.96454589 15.27697245 -9 12 C-7.3828125 9.140625 -7.3828125 9.140625 -5.125 6.25 C-4.38507813 5.28578125 -3.64515625 4.3215625 -2.8828125 3.328125 C-1 1 -1 1 0 0 Z " fill="#451846" transform="translate(94,69)"/>
<path d="M0 0 C0.66 0 1.32 0 2 0 C2 1.32 2 2.64 2 4 C3.010625 3.319375 4.02125 2.63875 5.0625 1.9375 C8.03926472 0.2442391 9.08460792 0 12.6875 0 C16.27021783 1.0815752 17.70915562 2.09238982 20 5 C21.87238286 8.74476572 21.40882569 13.31927215 20.4375 17.3125 C18.018304 20.15242574 15.53345782 20.95734032 12 22 C8.09596384 21.29599348 5.81779997 20.81779997 3 18 C2.67 21.96 2.34 25.92 2 30 C1.34 30 0.68 30 0 30 C0 20.1 0 10.2 0 0 Z " fill="#FDAFC8" transform="translate(338,61)"/>
<path d="M0 0 C2.13018952 1.58046319 2.82385265 2.6477053 4 5 C4 6.98 4 8.96 4 11 C-1.61 11 -7.22 11 -13 11 C-12.34 12.98 -11.68 14.96 -11 17 C-4.31468008 18.17287572 -4.31468008 18.17287572 2 16 C2 16.99 2 17.98 2 19 C-2.68069168 20.56023056 -4.97736246 21.2682328 -9.8125 20 C-13.57971025 17.63626024 -14.69720372 16.2340879 -16 12 C-16 7.4642798 -15.51406801 5.60633663 -12.5625 2.125 C-8.30812555 -1.40301784 -5.27212072 -1.2424055 0 0 Z " fill="#FDFDFD" transform="translate(465,62)"/>
<path d="M0 0 C2.13018952 1.58046319 2.82385265 2.6477053 4 5 C4 6.98 4 8.96 4 11 C-1.61 11 -7.22 11 -13 11 C-12.34 12.98 -11.68 14.96 -11 17 C-4.31468008 18.17287572 -4.31468008 18.17287572 2 16 C2 16.99 2 17.98 2 19 C-2.68069168 20.56023056 -4.97736246 21.2682328 -9.8125 20 C-13.57971025 17.63626024 -14.69720372 16.2340879 -16 12 C-16 7.4642798 -15.51406801 5.60633663 -12.5625 2.125 C-8.30812555 -1.40301784 -5.27212072 -1.2424055 0 0 Z " fill="#FDFDFD" transform="translate(416,62)"/>
<path d="M0 0 C0.99 0 1.98 0 3 0 C3.33 0.99 3.66 1.98 4 3 C4.680625 2.484375 5.36125 1.96875 6.0625 1.4375 C9.88598399 -0.43356664 11.92055757 -0.03840353 16 1 C18.4375 2.5625 18.4375 2.5625 20 4 C20.5259375 3.2884375 20.5259375 3.2884375 21.0625 2.5625 C23.95605843 0.22898513 26.3333943 0.12643468 30 0 C32.94755732 1.34562399 34.54277272 2.08554544 36 5 C36.07194869 7.88370333 36.09291708 10.74239664 36.0625 13.625 C36.05798828 14.42679688 36.05347656 15.22859375 36.04882812 16.0546875 C36.03703168 18.03649006 36.01909605 20.01825433 36 22 C35.34 22 34.68 22 34 22 C33.94392578 20.42798828 33.94392578 20.42798828 33.88671875 18.82421875 C33.82105485 17.44527695 33.75460765 16.06637229 33.6875 14.6875 C33.65366211 13.65206055 33.65366211 13.65206055 33.61914062 12.59570312 C33.46304518 9.65827061 33.34482039 7.49785306 31.64453125 5.04296875 C29.03655643 3.38897997 27.00202277 3.62474715 24 4 C21.25359093 5.82872274 20.98292733 7.07842471 20.26953125 10.35546875 C20.11871094 11.62003906 19.96789062 12.88460937 19.8125 14.1875 C19.57466797 16.09595703 19.57466797 16.09595703 19.33203125 18.04296875 C19.16767578 19.50669922 19.16767578 19.50669922 19 21 C18.34 21 17.68 21 17 21 C16.95101562 19.94039062 16.90203125 18.88078125 16.8515625 17.7890625 C16.77653291 16.40101503 16.70098515 15.01299549 16.625 13.625 C16.5940625 12.92632812 16.563125 12.22765625 16.53125 11.5078125 C16.40500502 7.29814173 16.40500502 7.29814173 14 4 C10.54213985 3.49992206 10.54213985 3.49992206 7 4 C3.49696346 7.27493184 3.52641705 10.62939172 3.3125 15.25 C3.21388672 17.14492187 3.21388672 17.14492187 3.11328125 19.078125 C3.07589844 20.04234375 3.03851563 21.0065625 3 22 C2.01 22 1.02 22 0 22 C0 14.74 0 7.48 0 0 Z " fill="#FDFCFD" transform="translate(235,61)"/>
<path d="M0 0 C1.59696185 2.08750642 1.65511293 3.11421207 1.59643555 5.71557617 C1.58676758 6.47290039 1.57709961 7.23022461 1.56713867 8.01049805 C1.54200195 8.79618164 1.51686523 9.58186523 1.4909668 10.39135742 C1.47066406 11.58728516 1.47066406 11.58728516 1.44995117 12.80737305 C1.41463769 14.77315709 1.36083126 16.73859325 1.3034668 18.70385742 C0.6434668 18.70385742 -0.0165332 18.70385742 -0.6965332 18.70385742 C-0.6965332 18.04385742 -0.6965332 17.38385742 -0.6965332 16.70385742 C-1.7277832 17.21948242 -2.7590332 17.73510742 -3.8215332 18.26635742 C-7.44478398 19.82442875 -9.85380608 19.86561213 -13.6965332 18.70385742 C-15.6965332 16.70385742 -15.6965332 16.70385742 -16.0090332 13.20385742 C-15.9059082 12.04885742 -15.8027832 10.89385742 -15.6965332 9.70385742 C-12.41161948 7.51391494 -10.86557681 7.35108403 -7.0090332 7.07885742 C-6.01516602 7.0040918 -5.02129883 6.92932617 -3.99731445 6.85229492 C-3.23805664 6.80331055 -2.47879883 6.75432617 -1.6965332 6.70385742 C-2.0265332 5.05385742 -2.3565332 3.40385742 -2.6965332 1.70385742 C-7.0130254 0.9421235 -10.44086773 0.54322138 -14.6965332 1.70385742 C-12.6965332 -1.29614258 -12.6965332 -1.29614258 -11.0090332 -2.04614258 C-7.1291226 -2.46559237 -3.18740637 -2.43516195 0 0 Z " fill="#FDFDFD" transform="translate(199.696533203125,63.296142578125)"/>
<path d="M0 0 C0.66 0 1.32 0 2 0 C2 1.32 2 2.64 2 4 C3.010625 3.319375 4.02125 2.63875 5.0625 1.9375 C8.03926472 0.2442391 9.08460792 0 12.6875 0 C16.27021783 1.0815752 17.70915562 2.09238982 20 5 C21.87238286 8.74476572 21.40882569 13.31927215 20.4375 17.3125 C18.018304 20.15242574 15.53345782 20.95734032 12 22 C8.09596384 21.29599348 5.81779997 20.81779997 3 18 C2.67 21.96 2.34 25.92 2 30 C1.34 30 0.68 30 0 30 C0 20.1 0 10.2 0 0 Z M4 5 C1.65450326 8.51824511 1.42008597 9.85775694 2 14 C4.11405052 16.64256316 5.9253491 18.44534147 8.9375 20 C12.21443888 20 14.26733222 18.72276882 17 17 C19.00227445 14.47539309 19.00998065 13.23953569 18.875 10 C17.85898613 6.51652386 16.8887092 5.1665319 14 3 C9.68462237 1.34023937 7.61037368 2.26782532 4 5 Z " fill="#FDFDFE" transform="translate(338,61)"/>
<path d="M0 0 C3.51038651 2.59463351 4.77811815 4.23728114 6 8.4375 C6 12.64943093 5.47814609 14.59254913 3 18 C-0.93211413 20.46720886 -3.74215615 21.35899294 -8.25 20.4375 C-10.66015971 19.65897646 -11.97537445 19.02065369 -13.9375 17.375 C-15.46753589 13.95491977 -16.23657231 10.72780617 -16 7 C-14.31672123 3.50395947 -12.98214784 1.61052434 -9.6875 -0.4375 C-6.06099111 -1.19653674 -3.58424608 -0.96006591 0 0 Z M-11 4 C-13.41339891 5.98959408 -13.41339891 5.98959408 -13.375 9.875 C-13.29186157 12.92895173 -13.11074442 13.84003584 -11.3125 16.4375 C-8.68716895 18.21137233 -7.17398194 18.92258581 -4 19 C-1.16286436 17.61442213 0.77001704 16.22998296 3 14 C3.6283987 8.41282173 3.6283987 8.41282173 1.3125 3.5625 C-3.56593647 0.26625914 -6.28477461 0.55915985 -11 4 Z " fill="#FDFDFD" transform="translate(297,62)"/>
<path d="M0 0 C0.66 0 1.32 0 2 0 C2.33 4.29 2.66 8.58 3 13 C3.99 12.01 4.98 11.02 6 10 C9.96273876 8.97262329 12.11126973 8.59427531 15.875 10.3125 C18 12 18 12 19 14 C19.07194869 16.88370333 19.09291708 19.74239664 19.0625 22.625 C19.05798828 23.42679688 19.05347656 24.22859375 19.04882812 25.0546875 C19.03703168 27.03649006 19.01909605 29.01825433 19 31 C18.34 31 17.68 31 17 31 C16.93941406 30.03578125 16.87882812 29.0715625 16.81640625 28.078125 C16.69072266 26.18320313 16.69072266 26.18320313 16.5625 24.25 C16.48128906 22.99703125 16.40007812 21.7440625 16.31640625 20.453125 C16.07484478 17.81682447 15.75716066 15.51962706 15 13 C13.56416999 12.89163547 12.1259798 12.81423833 10.6875 12.75 C9.88699219 12.70359375 9.08648437 12.6571875 8.26171875 12.609375 C5.90004413 12.81177254 5.90004413 12.81177254 4.25 14.5625 C2.57307298 17.83250769 2.481857 20.59188876 2.3125 24.25 C2.21388672 26.14492187 2.21388672 26.14492187 2.11328125 28.078125 C2.07589844 29.04234375 2.03851563 30.0065625 2 31 C1.34 31 0.68 31 0 31 C0 20.77 0 10.54 0 0 Z " fill="#FEFDFD" transform="translate(371,52)"/>
<path d="M0 0 C0.99 0 1.98 0 3 0 C3 1.98 3 3.96 3 6 C5.31 6 7.62 6 10 6 C10 6.66 10 7.32 10 8 C7.69 8 5.38 8 3 8 C3.33 12.95 3.66 17.9 4 23 C5.98 23.33 7.96 23.66 10 24 C10 24.66 10 25.32 10 26 C7.1875 26.625 7.1875 26.625 4 27 C1 25 1 25 0 22 C-0.06970052 19.60509014 -0.08448003 17.20832309 -0.0625 14.8125 C-0.05347656 13.54019531 -0.04445312 12.26789063 -0.03515625 10.95703125 C-0.02355469 9.98121094 -0.01195312 9.00539063 0 8 C-0.99 8 -1.98 8 -3 8 C-3 7.34 -3 6.68 -3 6 C-2.01 6 -1.02 6 0 6 C0 4.02 0 2.04 0 0 Z " fill="#FEF9FB" transform="translate(215,56)"/>
<path d="M0 0 C0 0.99 0 1.98 0 3 C-2.64 2.67 -5.28 2.34 -8 2 C-8.33 3.32 -8.66 4.64 -9 6 C-8.28972656 6.34933594 -7.57945312 6.69867188 -6.84765625 7.05859375 C-5.92855469 7.51363281 -5.00945312 7.96867187 -4.0625 8.4375 C-3.14597656 8.88996094 -2.22945313 9.34242187 -1.28515625 9.80859375 C1 11 1 11 2 12 C2.04080783 13.99958364 2.04254356 16.00045254 2 18 C-2.24243466 20.29798544 -4.67599192 21.41819282 -9.4375 20.1875 C-10.613125 19.795625 -11.78875 19.40375 -13 19 C-12.505 17.515 -12.505 17.515 -12 16 C-10.9171875 16.5259375 -10.9171875 16.5259375 -9.8125 17.0625 C-6.6877295 18.10409017 -5.11838004 17.89096572 -2 17 C-2 15.68 -2 14.36 -2 13 C-5.3 11.35 -8.6 9.7 -12 8 C-12.47840532 2.6179402 -12.47840532 2.6179402 -10.5 0.0625 C-6.74062617 -1.53523388 -3.98734193 -0.73101269 0 0 Z " fill="#FDFCFD" transform="translate(324,62)"/>
<path d="M0 0 C0.91007813 0.00902344 1.82015625 0.01804687 2.7578125 0.02734375 C3.45648438 0.03894531 4.15515625 0.05054687 4.875 0.0625 C5.01171875 2.41796875 5.01171875 2.41796875 4.875 5.0625 C2.41498778 7.66308434 0.80181156 8.90803141 -2.75 9.5 C-5.125 9.0625 -5.125 9.0625 -7 7.875 C-8.125 6.0625 -8.125 6.0625 -7.9375 3.4375 C-6.52067884 -0.70397724 -3.92096417 -0.05026877 0 0 Z " fill="#FAB0C9" transform="translate(194.125,71.9375)"/>
<path d="M0 0 C1.875 1.3125 1.875 1.3125 3 3 C3 4.32 3 5.64 3 7 C-1.95 7 -6.9 7 -12 7 C-11 2 -11 2 -8.8125 0.125 C-5.33681032 -1.26527587 -3.55736159 -1.08267527 0 0 Z " fill="#FBAEC7" transform="translate(464,64)"/>
<path d="M0 0 C1.875 1.3125 1.875 1.3125 3 3 C3 4.32 3 5.64 3 7 C-1.95 7 -6.9 7 -12 7 C-11 2 -11 2 -8.8125 0.125 C-5.33681032 -1.26527587 -3.55736159 -1.08267527 0 0 Z " fill="#FBAEC7" transform="translate(415,64)"/>
<path d="M0 0 C8.91 3.96 8.91 3.96 18 8 C18 8.66 18 9.32 18 10 C14.57286339 12.10900715 11.99124206 12.46897094 8 12 C5.6640625 9.8828125 5.6640625 9.8828125 3.625 7.125 C2.93664062 6.22007813 2.24828125 5.31515625 1.5390625 4.3828125 C0 2 0 2 0 0 Z " fill="#3D113E" transform="translate(86,84)"/>
<path d="M0 0 C0.99 0 1.98 0 3 0 C3.33 0.99 3.66 1.98 4 3 C4.78375 2.505 5.5675 2.01 6.375 1.5 C9 0 9 0 11 0 C11 0.99 11 1.98 11 3 C10.21625 3.28875 9.4325 3.5775 8.625 3.875 C5.90328368 4.84912254 5.90328368 4.84912254 4 7 C3.69400937 9.56916657 3.48912913 12.04758384 3.375 14.625 C3.33632813 15.33140625 3.29765625 16.0378125 3.2578125 16.765625 C3.16352276 18.50998524 3.08067109 20.25495691 3 22 C2.01 22 1.02 22 0 22 C0 14.74 0 7.48 0 0 Z " fill="#FEF4F8" transform="translate(431,61)"/>
<path d="M0 0 C0.99 0 1.98 0 3 0 C4.33710956 7.42838645 3.68340908 14.51404207 3 22 C2.01 22 1.02 22 0 22 C0 14.74 0 7.48 0 0 Z " fill="#FEF2F6" transform="translate(235,61)"/>
</svg>
