<?xml version="1.0" encoding="UTF-8"?>
<svg version="1.1" xmlns="http://www.w3.org/2000/svg" width="540" height="140">
<path d="M0 0 C178.2 0 356.4 0 540 0 C540 46.2 540 92.4 540 140 C361.8 140 183.6 140 0 140 C0 93.8 0 47.6 0 0 Z " fill="#441845" transform="translate(0,0)"/>
<path d="M0 0 C3.74287973 0.3820709 5.43596812 1.8932658 7.9375 4.625 C9.35733342 6.39770787 10.75053911 8.19188568 12.125 10 C12.98826856 11.08801894 13.85428753 12.17385974 14.72265625 13.2578125 C16.59991602 15.60879822 18.45239965 17.9765559 20.2890625 20.359375 C22.17755555 22.804849 24.1094871 25.20324938 26.0859375 27.578125 C26.55467285 28.15336914 27.0234082 28.72861328 27.50634766 29.32128906 C28.80153344 30.90989011 30.11128869 32.48658026 31.421875 34.0625 C33.125 37 33.125 37 33.1484375 40.03515625 C31.26751143 45.48409858 27.54875259 49.39626009 23.125 53 C19.5625 53.25 19.5625 53.25 16.125 52 C10.54257477 50.39911403 5.5479601 49.64504354 -0.25 49.6875 C-0.99024414 49.68878906 -1.73048828 49.69007812 -2.49316406 49.69140625 C-7.5848808 49.7804612 -12.01605551 50.48645322 -16.796875 52.34375 C-19.43532017 53.17694321 -21.12288829 53.45373799 -23.875 53 C-26.33203125 50.76953125 -26.33203125 50.76953125 -28.6875 47.8125 C-29.87279297 46.36810547 -29.87279297 46.36810547 -31.08203125 44.89453125 C-33.03966078 41.73417508 -33.66964792 40.60647904 -32.875 37 C-31.36720526 34.70269069 -29.88318701 32.71223566 -28.125 30.625 C-27.38987183 29.72285767 -27.38987183 29.72285767 -26.63989258 28.80249023 C-25.59660777 27.52237301 -24.54869697 26.2460143 -23.49658203 24.97314453 C-21.87191731 22.99624898 -20.27389672 21.00070606 -18.68359375 18.99609375 C-15.7642048 15.31665388 -12.83972798 11.64304639 -9.875 8 C-9.36259766 7.35272949 -8.85019531 6.70545898 -8.32226562 6.03857422 C-7.80728516 5.40580566 -7.29230469 4.77303711 -6.76171875 4.12109375 C-6.07082153 3.25955688 -6.07082153 3.25955688 -5.3659668 2.38061523 C-3.59874249 0.74418925 -2.36013741 0.36504844 0 0 Z " fill="#FBC7FC" transform="translate(117.875,43)"/>
<path d="M0 0 C0.33 0.66 0.66 1.32 1 2 C3.41481798 2.28050787 3.41481798 2.28050787 6.3125 2.3125 C21.10732902 3.33162124 34.22699066 12.4056375 43.875 23.25 C47 26.84848485 47 26.84848485 47 28 C43.28906858 27.53613357 39.89185729 26.97041379 36.2734375 25.98046875 C32.01960405 24.90175485 28.00038965 24.65546053 23.625 24.6875 C22.88475586 24.68878906 22.14451172 24.69007812 21.38183594 24.69140625 C16.2901192 24.7804612 11.85894449 25.48645322 7.078125 27.34375 C4.43967983 28.17694321 2.75211171 28.45373799 0 28 C-2.45703125 25.76953125 -2.45703125 25.76953125 -4.8125 22.8125 C-5.99779297 21.36810547 -5.99779297 21.36810547 -7.20703125 19.89453125 C-9.16267258 16.73738479 -9.77313898 15.60427383 -9 12 C-7.56684678 9.73368429 -6.17279233 7.75462926 -4.5 5.6875 C-4.07074219 5.13771484 -3.64148438 4.58792969 -3.19921875 4.02148438 C-2.14352235 2.67253898 -1.07317559 1.33508154 0 0 Z " fill="#B63CB8" transform="translate(94,68)"/>
<path d="M0 0 C3.52066118 2.05925465 5.43455006 3.26281214 6.703125 7.16015625 C7.27844437 10.90598565 7.27180183 13.34195346 5.8125 16.875 C3.05850127 20.10382609 1.41547834 21.78460112 -2.875 22.4375 C-6.75009081 21.89498729 -8.9191706 20.34729859 -12 18 C-12 21.63 -12 25.26 -12 29 C-12.66 29 -13.32 29 -14 29 C-14 19.76 -14 10.52 -14 1 C-13.34 1 -12.68 1 -12 1 C-12 1.99 -12 2.98 -12 4 C-11.13375 3.34 -10.2675 2.68 -9.375 2 C-5.67199404 -0.1943739 -4.19754908 -0.78704045 0 0 Z " fill="#4B214C" transform="translate(352,61)"/>
<path d="M0 0 C3.65847144 2.99329482 4.56740217 4.53358044 5.0625 9.1875 C4.70575962 12.68355571 3.84609412 14.45520785 1.75 17.25 C-2.4758785 20.06725233 -6.28624688 20.04958384 -11.25 19.25 C-14.07424288 17.05977082 -15.66508603 15.41982793 -17.25 12.25 C-17.69408691 8.3420352 -17.38704844 6.50451854 -15.5 3 C-11.07554167 -2.40767129 -6.28755102 -3.38560439 0 0 Z " fill="#4B214C" transform="translate(298.25,62.75)"/>
<path d="M0 0 C2.69990662 1.79993774 4.5418865 3.083773 6 6 C6 7.98 6 9.96 6 12 C0.39 12 -5.22 12 -11 12 C-8.83333333 17.83333333 -8.83333333 17.83333333 -6 19 C-2.04437178 19.25797575 0.59659693 19.09440189 4 17 C4 17.99 4 18.98 4 20 C0.58251778 22.10306598 -2.02085525 22.40603518 -6 22 C-10.12721653 20.17634619 -12.17634619 18.12721653 -14 14 C-14.5931368 10.01751003 -14.17424115 8.32359071 -12.25 4.75 C-8.61059474 0.30183802 -5.75685897 -0.70492151 0 0 Z " fill="#F1EEF1" transform="translate(463,61)"/>
<path d="M0 0 C2.69990662 1.79993774 4.5418865 3.083773 6 6 C6 7.98 6 9.96 6 12 C0.39 12 -5.22 12 -11 12 C-8.83333333 17.83333333 -8.83333333 17.83333333 -6 19 C-2.04437178 19.25797575 0.59659693 19.09440189 4 17 C4 17.99 4 18.98 4 20 C0.58251778 22.10306598 -2.02085525 22.40603518 -6 22 C-10.12721653 20.17634619 -12.17634619 18.12721653 -14 14 C-14.5931368 10.01751003 -14.17424115 8.32359071 -12.25 4.75 C-8.61059474 0.30183802 -5.75685897 -0.70492151 0 0 Z " fill="#F1EEF1" transform="translate(414,61)"/>
<path d="M0 0 C2.2109375 1.47265625 2.2109375 1.47265625 4 4 C4.48209856 6.93394603 4.37775715 9.7870169 4.25 12.75 C4.23195312 13.54277344 4.21390625 14.33554688 4.1953125 15.15234375 C4.14833082 17.10208348 4.07659044 19.05119878 4 21 C3.34 21 2.68 21 2 21 C2 20.34 2 19.68 2 19 C1.01 19.66 0.02 20.32 -1 21 C-3.15625 21.30078125 -3.15625 21.30078125 -5.5 21.3125 C-6.66015625 21.33763672 -6.66015625 21.33763672 -7.84375 21.36328125 C-10 21 -10 21 -11.79296875 19.70703125 C-13 18 -13 18 -12.8125 14.375 C-12.544375 13.26125 -12.27625 12.1475 -12 11 C-9.43106162 9.71553081 -7.23423663 9.67022856 -4.375 9.4375 C-3.37210938 9.35371094 -2.36921875 9.26992187 -1.3359375 9.18359375 C-0.56507813 9.12300781 0.20578125 9.06242187 1 9 C0.67 7.35 0.34 5.7 0 4 C-3.96 4 -7.92 4 -12 4 C-7.84553169 -0.15446831 -5.85435257 -0.50468557 0 0 Z " fill="#FCFCFC" transform="translate(197,61)"/>
<path d="M0 0 C3.52066118 2.05925465 5.43455006 3.26281214 6.703125 7.16015625 C7.27844437 10.90598565 7.27180183 13.34195346 5.8125 16.875 C3.05850127 20.10382609 1.41547834 21.78460112 -2.875 22.4375 C-6.75009081 21.89498729 -8.9191706 20.34729859 -12 18 C-12 21.63 -12 25.26 -12 29 C-12.66 29 -13.32 29 -14 29 C-14 19.76 -14 10.52 -14 1 C-13.34 1 -12.68 1 -12 1 C-12 1.99 -12 2.98 -12 4 C-11.13375 3.34 -10.2675 2.68 -9.375 2 C-5.67199404 -0.1943739 -4.19754908 -0.78704045 0 0 Z M-10.5625 4.5625 C-12.57214724 7.97016272 -12.54678139 10.10418263 -12 14 C-10.74612994 17.08817732 -10.74612994 17.08817732 -8 19 C-4.85433287 19.70993955 -2.14496906 19.71555259 1 19 C4.06862356 16.45528778 4.84823663 14.91058019 5.5 11 C4.84823663 7.08941981 4.06862356 5.54471222 1 3 C-3.32423783 2.08754615 -6.76882754 2.24928508 -10.5625 4.5625 Z " fill="#F2F0F3" transform="translate(352,61)"/>
<path d="M0 0 C0.99 0 1.98 0 3 0 C3.33 0.99 3.66 1.98 4 3 C4.70125 2.505 5.4025 2.01 6.125 1.5 C9.53516525 -0.27921665 11.20553658 -0.61950423 15 0 C19.23581646 2.62217209 19.23581646 2.62217209 21 5 C21.58534223 8.01295278 21.26068038 10.78541653 20.875 13.8125 C20.80023438 14.60076172 20.72546875 15.38902344 20.6484375 16.20117188 C20.46071293 18.13708149 20.23417047 20.06915803 20 22 C19.01 22 18.02 22 17 22 C16.92652344 20.30230469 16.92652344 20.30230469 16.8515625 18.5703125 C16.77653486 17.08851661 16.70098703 15.606747 16.625 14.125 C16.5940625 13.37863281 16.563125 12.63226563 16.53125 11.86328125 C16.44356169 7.46526812 16.44356169 7.46526812 14 4 C9.46537909 3.49682531 9.46537909 3.49682531 5.3203125 5.0390625 C3.30500557 8.03221067 3.42681426 11.18948359 3.3125 14.6875 C3.27833984 15.38939453 3.24417969 16.09128906 3.20898438 16.81445312 C3.12670053 18.54241387 3.0616676 20.27118072 3 22 C2.01 22 1.02 22 0 22 C0 14.74 0 7.48 0 0 Z " fill="#E3DCE3" transform="translate(235,61)"/>
<path d="M0 0 C0.66 0 1.32 0 2 0 C2.33 3.63 2.66 7.26 3 11 C3.680625 10.484375 4.36125 9.96875 5.0625 9.4375 C8.90525323 7.55700374 10.91132242 7.88490612 15 9 C17.19921875 10.54296875 17.19921875 10.54296875 19 13 C19.2906124 15.89449949 19.38186045 18.37949935 19.25 21.25 C19.23195313 21.99507812 19.21390625 22.74015625 19.1953125 23.5078125 C19.14835649 25.33909701 19.07661652 27.16971649 19 29 C18.34 29 17.68 29 17 29 C16.95101563 28.02417969 16.90203125 27.04835938 16.8515625 26.04296875 C16.77679688 24.77066406 16.70203125 23.49835938 16.625 22.1875 C16.55539062 20.92292969 16.48578125 19.65835938 16.4140625 18.35546875 C16.23897061 14.87244766 16.23897061 14.87244766 14 12 C8.89360976 11.34529976 8.89360976 11.34529976 4.2890625 13.07421875 C2.32839943 16.00333054 2.47219225 18.70620895 2.3125 22.1875 C2.24675781 23.45980469 2.18101562 24.73210937 2.11328125 26.04296875 C2.05720703 27.50669922 2.05720703 27.50669922 2 29 C1.34 29 0.68 29 0 29 C0 19.43 0 9.86 0 0 Z " fill="#FDFDFD" transform="translate(371,53)"/>
<path d="M0 0 C3.65847144 2.99329482 4.56740217 4.53358044 5.0625 9.1875 C4.70575962 12.68355571 3.84609412 14.45520785 1.75 17.25 C-2.4758785 20.06725233 -6.28624688 20.04958384 -11.25 19.25 C-14.07424288 17.05977082 -15.66508603 15.41982793 -17.25 12.25 C-17.69408691 8.3420352 -17.38704844 6.50451854 -15.5 3 C-11.07554167 -2.40767129 -6.28755102 -3.38560439 0 0 Z M-13.25 3.25 C-14.85135272 6.45270544 -14.73861584 9.77463384 -14.25 13.25 C-12.20694308 16.31458538 -10.80920198 17.07153128 -7.3125 18.1875 C-3.65127319 18.26221891 -2.1195326 17.46363944 0.75 15.25 C2.35135272 12.04729456 2.23861584 8.72536616 1.75 5.25 C-0.29305692 2.18541462 -1.69079802 1.42846872 -5.1875 0.3125 C-8.84872681 0.23778109 -10.3804674 1.03636056 -13.25 3.25 Z " fill="#DED6DE" transform="translate(298.25,62.75)"/>
<path d="M0 0 C4.13822218 1.62996896 8.22768778 3.36655355 12.3125 5.125 C13.28026367 5.54072266 13.28026367 5.54072266 14.26757812 5.96484375 C15.84529005 6.64267554 17.42267826 7.32126074 19 8 C19 8.99 19 9.98 19 11 C11.95866455 13.6200318 11.95866455 13.6200318 8 13 C5.54296875 10.59375 5.54296875 10.59375 3.1875 7.5 C2.39730469 6.4790625 1.60710937 5.458125 0.79296875 4.40625 C0.20128906 3.6121875 -0.39039062 2.818125 -1 2 C-0.67 1.34 -0.34 0.68 0 0 Z " fill="#FCABC6" transform="translate(86,83)"/>
<path d="M0 0 C0.99 0 1.98 0 3 0 C3 1.98 3 3.96 3 6 C5.31 6 7.62 6 10 6 C10 6.66 10 7.32 10 8 C7.69 8 5.38 8 3 8 C3.33 12.95 3.66 17.9 4 23 C5.65 23.33 7.3 23.66 9 24 C9 24.66 9 25.32 9 26 C6.125 26.625 6.125 26.625 3 27 C0.05710046 24.05710046 0.02672897 21.88526342 -0.09765625 17.765625 C-0.08605469 16.60546875 -0.07445312 15.4453125 -0.0625 14.25 C-0.05347656 13.07953125 -0.04445312 11.9090625 -0.03515625 10.703125 C-0.02355469 9.81109375 -0.01195312 8.9190625 0 8 C-0.99 8 -1.98 8 -3 8 C-3 7.34 -3 6.68 -3 6 C-2.34 5.67 -1.68 5.34 -1 5 C-0.34444881 2.47266765 -0.34444881 2.47266765 0 0 Z " fill="#F5F4F6" transform="translate(215,56)"/>
<path d="M0 0 C2.375 1.75 2.375 1.75 4 4 C4 5.32 4 6.64 4 8 C-0.95 8 -5.9 8 -11 8 C-10 3 -10 3 -8.3125 1.1875 C-5.26453845 -0.37766945 -3.38514427 -0.49366687 0 0 Z " fill="#4C234D" transform="translate(463,63)"/>
<path d="M0 0 C2.375 1.75 2.375 1.75 4 4 C4 5.32 4 6.64 4 8 C-0.95 8 -5.9 8 -11 8 C-10 3 -10 3 -8.3125 1.1875 C-5.26453845 -0.37766945 -3.38514427 -0.49366687 0 0 Z " fill="#4C234D" transform="translate(414,63)"/>
<path d="M0 0 C0.99 0.99 1.98 1.98 3 3 C0.03 3 -2.94 3 -6 3 C-6.33 4.32 -6.66 5.64 -7 7 C-6.28972656 7.34933594 -5.57945312 7.69867188 -4.84765625 8.05859375 C-3.92855469 8.51363281 -3.00945312 8.96867187 -2.0625 9.4375 C-1.14597656 9.88996094 -0.22945313 10.34242187 0.71484375 10.80859375 C3 12 3 12 4 13 C3.65234075 19.37375288 3.65234075 19.37375288 1.4375 21.5 C-2.34328732 22.27554612 -5.20585733 21.79554604 -9 21 C-9.66 20.01 -10.32 19.02 -11 18 C-10.30132812 18.08378906 -9.60265625 18.16757813 -8.8828125 18.25390625 C-7.97273438 18.35574219 -7.06265625 18.45757812 -6.125 18.5625 C-5.22007812 18.66691406 -4.31515625 18.77132812 -3.3828125 18.87890625 C-0.98346943 19.19674852 -0.98346943 19.19674852 1 18 C0.84776911 16.03718842 0.84776911 16.03718842 0 14 C-2.05684531 12.90244587 -2.05684531 12.90244587 -4.5 12.1875 C-6.96484375 11.21484375 -6.96484375 11.21484375 -9 10 C-10.0625 6.25 -10.0625 6.25 -10 3 C-6.70836605 -0.03843134 -4.43945893 -0.56673944 0 0 Z " fill="#F2EFF2" transform="translate(322,61)"/>
<path d="M0 0 C1.21236328 0.02707031 1.21236328 0.02707031 2.44921875 0.0546875 C3.37154297 0.08949219 3.37154297 0.08949219 4.3125 0.125 C4.6425 1.775 4.9725 3.425 5.3125 5.125 C3.25 7.1875 3.25 7.1875 0.3125 9.125 C-6.00328947 8.80921053 -6.00328947 8.80921053 -7.6875 7.125 C-7.9375 4.6875 -7.9375 4.6875 -7.6875 2.125 C-4.48369983 -0.01086678 -3.66810033 -0.10632175 0 0 Z " fill="#4F2650" transform="translate(193.6875,71.875)"/>
<path d="M0 0 C0.99 0 1.98 0 3 0 C3.33 0.99 3.66 1.98 4 3 C4.598125 2.505 5.19625 2.01 5.8125 1.5 C8 0 8 0 11 0 C11 0.99 11 1.98 11 3 C10.21625 3.28875 9.4325 3.5775 8.625 3.875 C5.90328368 4.84912254 5.90328368 4.84912254 4 7 C3.69400937 9.56916657 3.48912913 12.04758384 3.375 14.625 C3.33632813 15.33140625 3.29765625 16.0378125 3.2578125 16.765625 C3.16352276 18.50998524 3.08067109 20.25495691 3 22 C2.01 22 1.02 22 0 22 C0 14.74 0 7.48 0 0 Z " fill="#E1DBE2" transform="translate(431,61)"/>
<path d="M0 0 C2.6149699 3.57699896 2.22913563 7.51248105 2.125 11.75 C2.11597656 12.44738281 2.10695313 13.14476563 2.09765625 13.86328125 C2.07419888 15.57566958 2.03833104 17.28788004 2 19 C1.34 19 0.68 19 0 19 C-0.04898437 18.02417969 -0.09796875 17.04835938 -0.1484375 16.04296875 C-0.26058594 14.13451172 -0.26058594 14.13451172 -0.375 12.1875 C-0.44460938 10.92292969 -0.51421875 9.65835938 -0.5859375 8.35546875 C-0.76102939 4.87244766 -0.76102939 4.87244766 -3 2 C-6.71640139 1.72971626 -9.457201 1.819067 -13 3 C-12.3125 1.0625 -12.3125 1.0625 -11 -1 C-6.89851987 -2.59502005 -3.91636348 -1.82763629 0 0 Z " fill="#F8F7F8" transform="translate(269,63)"/>
<path d="M0 0 C6.24734982 0.48056537 6.24734982 0.48056537 9.21875 2.53125 C11.71863954 5.99600919 11.43809634 9.15528746 11.25 13.25 C11.23195313 13.99507812 11.21390625 14.74015625 11.1953125 15.5078125 C11.14835649 17.33909701 11.07661652 19.16971649 11 21 C10.34 21 9.68 21 9 21 C8.95101563 20.02417969 8.90203125 19.04835938 8.8515625 18.04296875 C8.73941406 16.13451172 8.73941406 16.13451172 8.625 14.1875 C8.55539062 12.92292969 8.48578125 11.65835938 8.4140625 10.35546875 C8.23897061 6.87244766 8.23897061 6.87244766 6 4 C3.43717258 3.27034634 3.43717258 3.27034634 1 3 C0.67 2.01 0.34 1.02 0 0 Z " fill="#F0EDF0" transform="translate(379,61)"/>
<path d="M0 0 C3.08799987 -0.3431111 4.59984971 -0.25565158 7.25 1.4375 C9.76266607 5.11676103 10.22094967 8.58100659 10 13 C8.64913319 16.02336858 7.32414606 17.67585394 5 20 C2.875 19.625 2.875 19.625 1 19 C1.804375 18.38125 2.60875 17.7625 3.4375 17.125 C6.41075556 14.65937343 6.87244518 13.95666113 7.375 10.1875 C6.8774505 5.95832923 5.16884337 4.71615146 2 2 C1.34 1.34 0.68 0.68 0 0 Z " fill="#FEFEFE" transform="translate(349,62)"/>
<path d="M0 0 C0.33 0 0.66 0 1 0 C1.50155542 3.51088794 1.12206444 4.81690334 -0.875 7.8125 C-4.69026198 10.48318339 -7.04659134 10.7241282 -11.6171875 10.4921875 C-15.31302146 9.72878573 -16.91431069 8.05901098 -19 5 C-19 3.68 -19 2.36 -19 1 C-18.34 1 -17.68 1 -17 1 C-16.7525 1.78375 -16.505 2.5675 -16.25 3.375 C-15.22155309 6.03551691 -15.22155309 6.03551691 -13.25 7.375 C-10.16083683 8.23310088 -8.07276879 7.84991477 -5 7 C-2.45406381 5.09054786 -1.2903172 2.87839991 0 0 Z " fill="#FFFFFF" transform="translate(301,72)"/>
<path d="M0 0 C-4 2 -4 2 -6.125 2.6875 C-9.0943655 4.76605585 -9.2429305 7.59318726 -10 11 C-10.66 11 -11.32 11 -12 11 C-12.33 11.66 -12.66 12.32 -13 13 C-13.50341475 7.7141451 -12.26910671 5.13445849 -9 1 C-6.04335481 -0.4783226 -3.25770263 -0.06032783 0 0 Z " fill="#F6F4F6" transform="translate(294,62)"/>
<path d="M0 0 C0.33 0 0.66 0 1 0 C1.33 4.62 1.66 9.24 2 14 C3.65 14.33 5.3 14.66 7 15 C7 15.66 7 16.32 7 17 C4.125 17.625 4.125 17.625 1 18 C0.34 17.34 -0.32 16.68 -1 16 C-0.98252073 13.24410223 -0.86136729 10.61213324 -0.625 7.875 C-0.56828125 7.12089844 -0.5115625 6.36679688 -0.453125 5.58984375 C-0.3115535 3.72581904 -0.15700041 1.86278863 0 0 Z " fill="#D3C9D4" transform="translate(217,65)"/>
<path d="M0 0 C-0.33 0.99 -0.66 1.98 -1 3 C-4.63 3.33 -8.26 3.66 -12 4 C-7.73879649 -0.26120351 -5.91872136 -0.10960595 0 0 Z " fill="#C4B8C5" transform="translate(197,61)"/>
<path d="M0 0 C1.33332095 2.6666419 0.67102033 4.16680303 0 7 C-0.66 7 -1.32 7 -2 7 C-2.33 7.66 -2.66 8.32 -3 9 C-3.36923077 3.46153846 -3.36923077 3.46153846 -1.5 1.125 C-1.005 0.75375 -0.51 0.3825 0 0 Z " fill="#DBD3DB" transform="translate(284,66)"/>
<path d="M0 0 C1.98 0 3.96 0 6 0 C6.33 0.99 6.66 1.98 7 3 C5.02 3 3.04 3 1 3 C0.67 2.01 0.34 1.02 0 0 Z " fill="#CBBFCB" transform="translate(345,80)"/>
</svg>
