<?xml version="1.0" encoding="UTF-8"?>
<svg version="1.1" xmlns="http://www.w3.org/2000/svg" width="1500" height="500">
<path d="M0 0 C495 0 990 0 1500 0 C1500 165 1500 330 1500 500 C1005 500 510 500 0 500 C0 335 0 170 0 0 Z " fill="#FEAEC8" transform="translate(0,0)"/>
<path d="M0 0 C0.84046875 -0.03738281 1.6809375 -0.07476562 2.546875 -0.11328125 C8.48585881 0.82219452 12.17755042 5.01794912 15.8125 9.5 C16.23104248 10.01336914 16.64958496 10.52673828 17.08081055 11.05566406 C21.23898386 16.20020181 25.22581037 21.47936307 29.22094727 26.75073242 C32.97041986 31.6849399 36.81828444 36.52257765 40.75 41.3125 C46.99633733 48.92462959 53.00680911 56.70693476 58.91064453 64.58740234 C60.07761054 66.09046137 61.34243404 67.51651709 62.62109375 68.92578125 C64.72939633 72.01492484 64.81645183 73.63770328 64.25 77.3125 C62.81640625 79.953125 62.81640625 79.953125 60.8125 82.5625 C60.08933594 83.50480469 59.36617187 84.44710937 58.62109375 85.41796875 C54.38730685 90.58639723 49.97529582 95.58720418 45.25 100.3125 C44.26 100.3125 43.27 100.3125 42.25 100.3125 C40.5234375 98.2578125 40.5234375 98.2578125 38.625 95.4375 C29.39513397 82.33109023 18.24507903 70.61574118 3.25 64.3125 C3.25 63.6525 3.25 62.9925 3.25 62.3125 C0.61 61.6525 -2.03 60.9925 -4.75 60.3125 C-4.75 59.6525 -4.75 58.9925 -4.75 58.3125 C-5.43449219 58.17972656 -6.11898437 58.04695313 -6.82421875 57.91015625 C-10.08412954 57.24424657 -13.3216107 56.50293388 -16.5625 55.75 C-17.72394531 55.48058594 -18.88539063 55.21117187 -20.08203125 54.93359375 C-20.96246094 54.72863281 -21.84289062 54.52367187 -22.75 54.3125 C-22.75 53.6525 -22.75 52.9925 -22.75 52.3125 C-34.135 51.8175 -34.135 51.8175 -45.75 51.3125 C-45.75 47.89251378 -45.36751151 47.48487801 -43.2578125 44.9765625 C-42.72269043 44.33122559 -42.18756836 43.68588867 -41.63623047 43.02099609 C-41.05502441 42.33344238 -40.47381836 41.64588867 -39.875 40.9375 C-38.67051376 39.48550313 -37.46740321 38.03236403 -36.265625 36.578125 C-35.66685547 35.85560547 -35.06808594 35.13308594 -34.45117188 34.38867188 C-32.11203018 31.53389848 -29.86486061 28.62099486 -27.625 25.6875 C-26.43970703 24.13869141 -26.43970703 24.13869141 -25.23046875 22.55859375 C-23.93125462 20.8586531 -22.63242514 19.1584238 -21.33447266 17.45751953 C-19.87485531 15.55027973 -18.40696963 13.649655 -16.9375 11.75 C-16.49325684 11.16589355 -16.04901367 10.58178711 -15.59130859 9.97998047 C-11.21599588 4.34752639 -7.2914009 0.20990397 0 0 Z " fill="#F4C7F5" transform="translate(750.75,171.6875)"/>
<path d="M0 0 C1.01320313 0.19464844 2.02640625 0.38929688 3.0703125 0.58984375 C4.02550781 0.79287109 4.02550781 0.79287109 5 1 C5 1.66 5 2.32 5 3 C5.6290625 3.03738281 6.258125 3.07476562 6.90625 3.11328125 C12.81051149 3.56677121 17.55250146 4.67976914 23 7 C23 7.66 23 8.32 23 9 C23.94875 9.144375 24.8975 9.28875 25.875 9.4375 C29 10 29 10 31 11 C31 11.66 31 12.32 31 13 C31.71800781 13.0928125 32.43601562 13.185625 33.17578125 13.28125 C48.43146953 17.16374882 63.02824486 36.22707415 71 49 C70.505 49.99 70.505 49.99 70 51 C68.1746875 50.38125 68.1746875 50.38125 66.3125 49.75 C65.48621094 49.47800781 64.65992188 49.20601563 63.80859375 48.92578125 C61.87988588 48.29003192 59.9555703 47.64084829 58.03515625 46.98046875 C40.1419525 41.07504798 21.69238239 40.30295559 3.4375 45.125 C-3.68794255 46.93874901 -7.20555505 45.14115219 -13.375 41.625 C-17.50877654 39.28788252 -21.22430227 37.21292111 -25.828125 35.94921875 C-29.30719811 34.90806756 -30.34502659 34.12030689 -32.375 31.1875 C-32.85710938 30.52105469 -33.33921875 29.85460937 -33.8359375 29.16796875 C-35.16621673 26.69043528 -35.77930372 24.8072567 -36 22 C-34.99348027 19.6118895 -33.58122138 17.83707912 -32.02734375 15.76171875 C-30.45415673 13.61866823 -29.1419921 11.55771056 -27.81640625 9.26953125 C-20.4414533 -2.62075969 -13.11565271 -2.61360343 0 0 Z " fill="#461A47" transform="translate(723,223)"/>
<path d="M0 0 C3.50922325 2.03242513 5.68973373 4.06920119 7 8 C7.55165147 12.74782 7.44453763 16.12680109 5.25 20.4375 C2.56791943 23.49209175 0.66568998 24.76361495 -3.3671875 25.3359375 C-9.06409775 25.42467442 -12.62459502 25.04724961 -17 21 C-19.43296626 17.01878249 -19.71539462 12.56064073 -19 8 C-17.20548969 4.34195976 -15.60877052 2.43888108 -12.3125 0.0625 C-7.90957847 -1.34975785 -4.43330062 -1.31415697 0 0 Z " fill="#FDAFC9" transform="translate(715,307)"/>
<path d="M0 0 C3.38911814 2.43321303 4.8098494 5.03283132 6 9 C6 10.32 6 11.64 6 13 C-4.395 13.495 -4.395 13.495 -15 14 C-14.46492825 18.72979132 -14.46492825 18.72979132 -12.5 20.8125 C-8.76215866 22.58797464 -5.07083084 22.55185559 -1 22 C1.22060641 21.05225874 1.22060641 21.05225874 3 20 C3 20.99 3 21.98 3 23 C-1.5703622 25.63269712 -5.84236976 25.65894014 -11 25 C-14.51656033 23.30451556 -16.3458331 22.07045493 -18.375 18.75 C-19.60065167 13.35713265 -19.79436622 9.61928498 -17.375 4.6875 C-12.30737252 -1.04692057 -7.18594635 -2.01206498 0 0 Z " fill="#FEFEFE" transform="translate(917,307)"/>
<path d="M0 0 C3.38911814 2.43321303 4.8098494 5.03283132 6 9 C6 10.32 6 11.64 6 13 C-4.395 13.495 -4.395 13.495 -15 14 C-14.46492825 18.72979132 -14.46492825 18.72979132 -12.5 20.8125 C-8.76215866 22.58797464 -5.07083084 22.55185559 -1 22 C1.22060641 21.05225874 1.22060641 21.05225874 3 20 C3 20.99 3 21.98 3 23 C-1.5703622 25.63269712 -5.84236976 25.65894014 -11 25 C-14.51656033 23.30451556 -16.3458331 22.07045493 -18.375 18.75 C-19.60065167 13.35713265 -19.79436622 9.61928498 -17.375 4.6875 C-12.30737252 -1.04692057 -7.18594635 -2.01206498 0 0 Z " fill="#FEFEFE" transform="translate(858,307)"/>
<path d="M0 0 C1.89822631 1.58547506 2.89287306 2.78574611 4 5 C4.08372659 6.52148326 4.10730027 8.04655778 4.09765625 9.5703125 C4.09443359 10.46621094 4.09121094 11.36210937 4.08789062 12.28515625 C4.07951172 13.22230469 4.07113281 14.15945313 4.0625 15.125 C4.05798828 16.06988281 4.05347656 17.01476562 4.04882812 17.98828125 C4.03702357 20.32558387 4.02055759 22.66276061 4 25 C3.34 25 2.68 25 2 25 C1.34 24.34 0.68 23.68 0 23 C-0.5671875 23.32355469 -1.134375 23.64710938 -1.71875 23.98046875 C-5.42129414 25.63520166 -9.01892437 25.46836184 -13 25 C-16.01509635 23.56782923 -16.7207658 22.70739331 -17.9375 19.625 C-18.01828215 16.23214991 -17.01224965 14.68299954 -15 12 C-12.0384304 10.5192152 -9.16493705 10.64685963 -5.875 10.4375 C-4.59367188 10.35371094 -3.31234375 10.26992188 -1.9921875 10.18359375 C-1.00476563 10.12300781 -0.01734375 10.06242187 1 10 C-0.26946514 5.17557816 -0.26946514 5.17557816 -4 2 C-5.96645972 1.93602998 -5.96645972 1.93602998 -8 2.3125 C-8.680625 2.41175781 -9.36125 2.51101563 -10.0625 2.61328125 C-12.20446315 2.99903245 -12.20446315 2.99903245 -15 4 C-15 3.01 -15 2.02 -15 1 C-9.93916313 -1.20600581 -5.29644415 -1.50318129 0 0 Z " fill="#FEFEFE" transform="translate(596,307)"/>
<path d="M0 0 C0.99 0 1.98 0 3 0 C3.33 1.32 3.66 2.64 4 4 C4.845625 3.34 5.69125 2.68 6.5625 2 C10.54663009 -0.31803932 12.46544483 -0.5668194 17 0 C20.79682864 1.31428684 22.53450468 2.34830655 24.875 5.625 C26.64129245 10.92387734 27.00351344 15.6919191 24.75 20.875 C22.36967056 23.76540004 20.39737056 25.74404599 16.6328125 26.43359375 C10.74784658 26.44276036 7.53483927 25.81881202 3 22 C3 26.62 3 31.24 3 36 C2.01 36 1.02 36 0 36 C0 24.12 0 12.24 0 0 Z M4 7 C2.40310959 10.19378082 2.62651043 13.52521315 3 17 C4.24988145 19.87472735 5.25468584 21.44101438 7.75 23.3125 C11.06211832 24.32453615 13.55439226 24.42314481 17 24 C19.8971941 21.68726558 19.8971941 21.68726558 22 19 C22.33 18.67 22.66 18.34 23 18 C23.58169863 13.38455511 23.6241677 9.99866833 21.125 6 C17.85159987 2.91915282 15.53873525 2.66612513 11.0390625 2.70703125 C7.86865433 3.16254967 6.1807598 4.75315657 4 7 Z " fill="#FEFDFE" transform="translate(763,306)"/>
<path d="M0 0 C0.99 0 1.98 0 3 0 C3.33 4.95 3.66 9.9 4 15 C5.32 14.01 6.64 13.02 8 12 C12.51861085 10.97966852 14.94101026 10.68622526 19.375 12 C22.90837716 14.69209689 23.06832733 16.6910139 24 21 C24.21095721 23.82097041 24.19223937 26.61086024 24.125 29.4375 C24.11597656 30.16904297 24.10695313 30.90058594 24.09765625 31.65429688 C24.07436153 33.43634298 24.0385019 35.21821759 24 37 C23.01 37 22.02 37 21 37 C20.97421875 35.74703125 20.9484375 34.4940625 20.921875 33.203125 C20.86558831 31.55204877 20.8082411 29.90100845 20.75 28.25 C20.73582031 27.425 20.72164062 26.6 20.70703125 25.75 C20.51228672 20.76932917 20.51228672 20.76932917 18.16796875 16.45703125 C14.92034054 14.27439103 12.82077684 14.39671945 9 15 C6.28189178 17.01871196 4.33853216 18.62220601 3.50756836 22.00415039 C3.28543122 24.28440454 3.20478171 26.52171392 3.1875 28.8125 C3.16236328 29.60076172 3.13722656 30.38902344 3.11132812 31.20117188 C3.05277019 33.13358373 3.02344512 35.06684327 3 37 C2.01 37 1.02 37 0 37 C0 24.79 0 12.58 0 0 Z " fill="#FEFEFE" transform="translate(803,295)"/>
<path d="M0 0 C3.50922325 2.03242513 5.68973373 4.06920119 7 8 C7.55165147 12.74782 7.44453763 16.12680109 5.25 20.4375 C2.56791943 23.49209175 0.66568998 24.76361495 -3.3671875 25.3359375 C-9.06409775 25.42467442 -12.62459502 25.04724961 -17 21 C-19.43296626 17.01878249 -19.71539462 12.56064073 -19 8 C-17.20548969 4.34195976 -15.60877052 2.43888108 -12.3125 0.0625 C-7.90957847 -1.34975785 -4.43330062 -1.31415697 0 0 Z M-15 6 C-16.73498116 9.46996232 -16.60794181 13.21507195 -16 17 C-13.72872666 20.02409364 -13.72872666 20.02409364 -11 22 C-10.67 22.33 -10.34 22.66 -10 23 C-4.19106981 23.53172375 -4.19106981 23.53172375 0.9375 21.125 C4.34325286 17.6160425 4.33097275 14.98181561 4.29296875 10.26171875 C3.86344199 6.9457722 2.39075646 5.25012373 0 3 C-5.71872108 0.14063946 -10.77770087 1.64975241 -15 6 Z " fill="#FEFEFE" transform="translate(715,307)"/>
<path d="M0 0 C0.66 0 1.32 0 2 0 C2.66 1.32 3.32 2.64 4 4 C4.495 3.525625 4.99 3.05125 5.5 2.5625 C8.90398177 0.43501139 11.99792203 -0.1435008 16 0 C19.92913011 1.74628005 23.05895403 4.11790805 25 8 C24.67 8.66 24.34 9.32 24 10 C23.7677354 12.71262116 23.58063765 15.40773126 23.4375 18.125 C23.39431641 18.87910156 23.35113281 19.63320313 23.30664062 20.41015625 C23.2005168 22.27321888 23.09974999 24.13658524 23 26 C22.01 26 21.02 26 20 26 C19.98541748 25.44014404 19.97083496 24.88028809 19.95581055 24.3034668 C19.88128648 21.76411863 19.78464419 19.22607922 19.6875 16.6875 C19.66494141 15.80642578 19.64238281 14.92535156 19.61914062 14.01757812 C19.5659668 12.74624023 19.5659668 12.74624023 19.51171875 11.44921875 C19.48553467 10.66893311 19.45935059 9.88864746 19.43237305 9.0847168 C18.88982019 6.46876035 18.14773017 5.56529487 16 4 C10.38253466 3.30979504 10.38253466 3.30979504 5.5625 5.75 C2.67013258 9.91500908 2.76031069 14.26949225 2.4375 19.25 C2.35371094 20.51328125 2.26992188 21.7765625 2.18359375 23.078125 C2.12300781 24.04234375 2.06242188 25.0065625 2 26 C1.34 26 0.68 26 0 26 C0 17.42 0 8.84 0 0 Z " fill="#FEFEFE" transform="translate(640,306)"/>
<path d="M0 0 C2.0625 2.4375 2.0625 2.4375 3.0625 8.4375 C-3.2075 8.4375 -9.4775 8.4375 -15.9375 8.4375 C-14.67402695 2.12013473 -14.67402695 2.12013473 -10.9375 -0.5625 C-6.73123716 -1.93525524 -3.94744657 -2.09970562 0 0 Z " fill="#FBAEC8" transform="translate(916.9375,309.5625)"/>
<path d="M0 0 C9.03056332 1.26744748 16.17817999 5.56866587 24 10 C23 13 23 13 21.3125 14.1875 C18.16102493 15.29477502 16.34755404 15.49357515 13 15 C10.36277031 12.98969302 8.28002343 10.57100578 6.125 8.0625 C5.23554687 7.0734668 5.23554687 7.0734668 4.328125 6.06445312 C0 1.20279198 0 1.20279198 0 0 Z " fill="#B83FB9" transform="translate(694,258)"/>
<path d="M0 0 C3.57941731 0.74518118 5.14189033 2.54249656 7.1953125 5.45703125 C7.1953125 6.77703125 7.1953125 8.09703125 7.1953125 9.45703125 C0.9253125 9.45703125 -5.3446875 9.45703125 -11.8046875 9.45703125 C-10.27534937 1.8103406 -7.62088885 -0.33954455 0 0 Z " fill="#FBAEC8" transform="translate(853.8046875,308.54296875)"/>
<path d="M0 0 C0.66 0.66 1.32 1.32 2 2 C-1 3 -1 3 -4.5 2.4375 C-8.10714492 1.59937115 -8.10714492 1.59937115 -11 4 C-10.96198628 5.9314177 -10.96198628 5.9314177 -10 8 C-7.25965145 9.54837812 -7.25965145 9.54837812 -4 10.8125 C1.81192661 13.5454893 1.81192661 13.5454893 3.5 17.625 C3 21 3 21 1.75 23.4375 C-2.63657343 25.92987127 -7.08070567 25.7763378 -12 25 C-14.6875 23 -14.6875 23 -16 21 C-13 21 -13 21 -11 22 C-9.48154798 22.09472912 -7.95889616 22.1298841 -6.4375 22.125 C-5.63183594 22.12757813 -4.82617188 22.13015625 -3.99609375 22.1328125 C-2.00057979 22.22011391 -2.00057979 22.22011391 -1 21 C-0.95936168 19.33382885 -0.957279 17.66611905 -1 16 C-1.85464844 15.66226562 -2.70929687 15.32453125 -3.58984375 14.9765625 C-4.69457031 14.53054688 -5.79929687 14.08453125 -6.9375 13.625 C-8.03964844 13.18414062 -9.14179687 12.74328125 -10.27734375 12.2890625 C-13 11 -13 11 -14 9 C-14.04022391 6.6670134 -14.04320247 4.33293334 -14 2 C-8.77158711 -1.26775806 -5.82957867 -1.26307538 0 0 Z " fill="#FEFEFE" transform="translate(747,307)"/>
<path d="M0 0 C1.17949219 0.01804687 2.35898437 0.03609375 3.57421875 0.0546875 C4.92966797 0.08949219 4.92966797 0.08949219 6.3125 0.125 C6.5625 5.828125 6.5625 5.828125 4.3125 8.5 C0.20742185 10.723584 -2.05113736 10.6484603 -6.6875 10.125 C-8.6875 8.9375 -8.6875 8.9375 -9.6875 7.125 C-10.0625 4.5625 -10.0625 4.5625 -9.6875 2.125 C-6.05554504 -0.29630331 -4.30400652 -0.08522785 0 0 Z " fill="#FCAFC8" transform="translate(590.6875,319.875)"/>
<path d="M0 0 C0.66 0 1.32 0 2 0 C2.33 1.98 2.66 3.96 3 6 C5.64 6.33 8.28 6.66 11 7 C11 7.66 11 8.32 11 9 C8.36 9.33 5.72 9.66 3 10 C2.94619422 12.79192205 2.90642331 15.5828141 2.875 18.375 C2.85824219 19.1690625 2.84148438 19.963125 2.82421875 20.78125 C2.80664527 22.85492015 2.89664832 24.92883241 3 27 C4.89755144 29.34973818 4.89755144 29.34973818 8.125 29.125 C9.07375 29.08375 10.0225 29.0425 11 29 C10.67 29.99 10.34 30.98 10 32 C8.72125 32.061875 7.4425 32.12375 6.125 32.1875 C5.04605469 32.23970703 5.04605469 32.23970703 3.9453125 32.29296875 C3.30335938 32.19628906 2.66140625 32.09960938 2 32 C-0.05127844 28.92308234 -0.27260872 28.06355001 -0.4140625 24.55078125 C-0.45273437 23.70322266 -0.49140625 22.85566406 -0.53125 21.98242188 C-0.5621875 21.10134766 -0.593125 20.22027344 -0.625 19.3125 C-0.66367187 18.41982422 -0.70234375 17.52714844 -0.7421875 16.60742188 C-0.83640218 14.4051538 -0.92201588 12.20289278 -1 10 C-1.99 9.67 -2.98 9.34 -4 9 C-4 8.34 -4 7.68 -4 7 C-3.01 6.67 -2.02 6.34 -1 6 C-0.67 4.02 -0.34 2.04 0 0 Z " fill="#FEFEFE" transform="translate(616,300)"/>
<path d="M0 0 C2.19921875 1.3828125 2.19921875 1.3828125 4 4 C4.4958505 7.59443825 4.37531086 11.13044409 4.25 14.75 C4.23195313 15.73355469 4.21390625 16.71710938 4.1953125 17.73046875 C4.14824126 20.15463783 4.08250742 22.57682059 4 25 C3.34 25 2.68 25 2 25 C1.95101562 23.81921875 1.90203125 22.6384375 1.8515625 21.421875 C1.77651121 19.86456063 1.70096439 18.30727009 1.625 16.75 C1.5940625 15.97269531 1.563125 15.19539063 1.53125 14.39453125 C1.3231434 8.89450381 1.3231434 8.89450381 -1 4 C-4.02437339 2.4878133 -6.66241534 2.82736631 -10 3 C-12.35369807 3.88064927 -12.35369807 3.88064927 -14 5 C-13.01158836 2.3043319 -12.30627815 1.18376689 -9.8125 -0.3125 C-6.1515807 -1.20739139 -3.64619779 -0.92812307 0 0 Z " fill="#FFFFFF" transform="translate(679,307)"/>
<path d="M0 0 C0.66 0 1.32 0 2 0 C2.66 1.32 3.32 2.64 4 4 C4.5775 3.525625 5.155 3.05125 5.75 2.5625 C7.92582084 1.0515133 9.42602448 0.45963849 12 0 C12 0.99 12 1.98 12 3 C11.071875 3.391875 10.14375 3.78375 9.1875 4.1875 C5.58525433 6.23583578 4.73006038 7.29847546 3 11 C2.63774319 13.66853296 2.40199569 16.14041429 2.3125 18.8125 C2.27833984 19.50537109 2.24417969 20.19824219 2.20898438 20.91210938 C2.12713656 22.60752849 2.06187635 24.30373458 2 26 C1.34 26 0.68 26 0 26 C0 17.42 0 8.84 0 0 Z " fill="#FEFEFE" transform="translate(877,306)"/>
</svg>
