<?xml version="1.0" encoding="UTF-8"?>
<svg version="1.1" xmlns="http://www.w3.org/2000/svg" width="750" height="1334">
<path d="M0 0 C247.5 0 495 0 750 0 C750 440.22 750 880.44 750 1334 C502.5 1334 255 1334 0 1334 C0 893.78 0 453.56 0 0 Z " fill="#FEAEC8" transform="translate(0,0)"/>
<path d="M0 0 C4.21514439 0.55350381 8.4510494 0.78743133 12.69140625 1.07421875 C15.70703125 1.35546875 15.70703125 1.35546875 18.32421875 1.91015625 C20.77281683 2.3677631 22.62359014 2.30885258 25.08203125 1.98046875 C25.85417969 1.87992188 26.62632813 1.779375 27.421875 1.67578125 C28.17597656 1.57007813 28.93007813 1.464375 29.70703125 1.35546875 C31.00640625 1.19046875 32.30578125 1.02546875 33.64453125 0.85546875 C36.61226435 0.52670597 36.61226435 0.52670597 38.70703125 -0.64453125 C39.53847656 -0.43183594 39.53847656 -0.43183594 40.38671875 -0.21484375 C43.56197746 0.56560704 46.56661958 0.48728589 49.83203125 0.48046875 C51.07210937 0.48304687 52.3121875 0.485625 53.58984375 0.48828125 C56.61426698 0.57215686 56.61426698 0.57215686 58.70703125 -0.64453125 C60.24330989 -0.43503871 61.77867331 -0.21660281 63.30859375 0.03515625 C67.65188447 0.61520485 72.03049203 0.80635913 76.40234375 1.07421875 C79.70703125 1.35546875 79.70703125 1.35546875 82.36328125 1.91015625 C84.79570127 2.37231605 86.63783853 2.30694937 89.08203125 1.98046875 C89.85417969 1.87992188 90.62632813 1.779375 91.421875 1.67578125 C92.17597656 1.57007813 92.93007812 1.464375 93.70703125 1.35546875 C95.00640625 1.19046875 96.30578125 1.02546875 97.64453125 0.85546875 C100.61226435 0.52670597 100.61226435 0.52670597 102.70703125 -0.64453125 C103.26132813 -0.50273438 103.815625 -0.3609375 104.38671875 -0.21484375 C107.56197746 0.56560704 110.56661958 0.48728589 113.83203125 0.48046875 C115.07210937 0.48304687 116.3121875 0.485625 117.58984375 0.48828125 C120.61426698 0.57215686 120.61426698 0.57215686 122.70703125 -0.64453125 C124.24330989 -0.43503871 125.77867331 -0.21660281 127.30859375 0.03515625 C131.65188447 0.61520485 136.03049203 0.80635913 140.40234375 1.07421875 C143.70703125 1.35546875 143.70703125 1.35546875 146.36328125 1.91015625 C148.79570127 2.37231605 150.63783853 2.30694937 153.08203125 1.98046875 C153.85417969 1.87992188 154.62632812 1.779375 155.421875 1.67578125 C156.17597656 1.57007813 156.93007812 1.464375 157.70703125 1.35546875 C159.00640625 1.19046875 160.30578125 1.02546875 161.64453125 0.85546875 C164.61226435 0.52670597 164.61226435 0.52670597 166.70703125 -0.64453125 C167.26132813 -0.50273438 167.815625 -0.3609375 168.38671875 -0.21484375 C171.56197746 0.56560704 174.56661958 0.48728589 177.83203125 0.48046875 C179.07210937 0.48304687 180.3121875 0.485625 181.58984375 0.48828125 C184.61426698 0.57215686 184.61426698 0.57215686 186.70703125 -0.64453125 C188.24330989 -0.43503871 189.77867331 -0.21660281 191.30859375 0.03515625 C195.65188447 0.61520485 200.03049203 0.80635913 204.40234375 1.07421875 C207.70703125 1.35546875 207.70703125 1.35546875 210.36328125 1.91015625 C212.79570127 2.37231605 214.63783853 2.30694937 217.08203125 1.98046875 C217.85417969 1.87992188 218.62632812 1.779375 219.421875 1.67578125 C220.17597656 1.57007813 220.93007812 1.464375 221.70703125 1.35546875 C223.00640625 1.19046875 224.30578125 1.02546875 225.64453125 0.85546875 C228.61226435 0.52670597 228.61226435 0.52670597 230.70703125 -0.64453125 C231.26132813 -0.50273438 231.815625 -0.3609375 232.38671875 -0.21484375 C235.56197746 0.56560704 238.56661958 0.48728589 241.83203125 0.48046875 C243.07210937 0.48304687 244.3121875 0.485625 245.58984375 0.48828125 C248.61426698 0.57215686 248.61426698 0.57215686 250.70703125 -0.64453125 C252.24330989 -0.43503871 253.77867331 -0.21660281 255.30859375 0.03515625 C259.65188447 0.61520485 264.03049203 0.80635913 268.40234375 1.07421875 C271.70703125 1.35546875 271.70703125 1.35546875 274.36328125 1.91015625 C276.79570127 2.37231605 278.63783853 2.30694937 281.08203125 1.98046875 C281.85417969 1.87992188 282.62632812 1.779375 283.421875 1.67578125 C284.17597656 1.57007813 284.93007813 1.464375 285.70703125 1.35546875 C287.00640625 1.19046875 288.30578125 1.02546875 289.64453125 0.85546875 C292.61226435 0.52670597 292.61226435 0.52670597 294.70703125 -0.64453125 C295.26132812 -0.50273438 295.815625 -0.3609375 296.38671875 -0.21484375 C299.56197746 0.56560704 302.56661958 0.48728589 305.83203125 0.48046875 C307.07210938 0.48304687 308.3121875 0.485625 309.58984375 0.48828125 C312.61426698 0.57215686 312.61426698 0.57215686 314.70703125 -0.64453125 C316.24330989 -0.43503871 317.77867331 -0.21660281 319.30859375 0.03515625 C323.65188447 0.61520485 328.03049203 0.80635913 332.40234375 1.07421875 C335.70703125 1.35546875 335.70703125 1.35546875 338.36328125 1.91015625 C340.79570127 2.37231605 342.63783853 2.30694937 345.08203125 1.98046875 C345.85417969 1.87992188 346.62632812 1.779375 347.421875 1.67578125 C348.17597656 1.57007813 348.93007813 1.464375 349.70703125 1.35546875 C351.00640625 1.19046875 352.30578125 1.02546875 353.64453125 0.85546875 C356.61226435 0.52670597 356.61226435 0.52670597 358.70703125 -0.64453125 C359.26132812 -0.50273438 359.815625 -0.3609375 360.38671875 -0.21484375 C363.56197746 0.56560704 366.56661958 0.48728589 369.83203125 0.48046875 C371.07210938 0.48304687 372.3121875 0.485625 373.58984375 0.48828125 C376.61426698 0.57215686 376.61426698 0.57215686 378.70703125 -0.64453125 C380.24330989 -0.43503871 381.77867331 -0.21660281 383.30859375 0.03515625 C387.65188447 0.61520485 392.03049203 0.80635913 396.40234375 1.07421875 C399.70703125 1.35546875 399.70703125 1.35546875 402.36328125 1.91015625 C404.79570127 2.37231605 406.63783853 2.30694937 409.08203125 1.98046875 C409.85417969 1.87992188 410.62632812 1.779375 411.421875 1.67578125 C412.17597656 1.57007813 412.93007813 1.464375 413.70703125 1.35546875 C415.00640625 1.19046875 416.30578125 1.02546875 417.64453125 0.85546875 C420.61226435 0.52670597 420.61226435 0.52670597 422.70703125 -0.64453125 C423.26132812 -0.50273438 423.815625 -0.3609375 424.38671875 -0.21484375 C427.56197746 0.56560704 430.56661958 0.48728589 433.83203125 0.48046875 C435.07210938 0.48304687 436.3121875 0.485625 437.58984375 0.48828125 C440.61426698 0.57215686 440.61426698 0.57215686 442.70703125 -0.64453125 C444.24330989 -0.43503871 445.77867331 -0.21660281 447.30859375 0.03515625 C451.65188447 0.61520485 456.03049203 0.80635913 460.40234375 1.07421875 C463.70703125 1.35546875 463.70703125 1.35546875 466.36328125 1.91015625 C468.79570127 2.37231605 470.63783853 2.30694937 473.08203125 1.98046875 C473.85417969 1.87992188 474.62632812 1.779375 475.421875 1.67578125 C476.17597656 1.57007813 476.93007813 1.464375 477.70703125 1.35546875 C479.00640625 1.19046875 480.30578125 1.02546875 481.64453125 0.85546875 C484.61226435 0.52670597 484.61226435 0.52670597 486.70703125 -0.64453125 C487.26132812 -0.50273438 487.815625 -0.3609375 488.38671875 -0.21484375 C491.56197746 0.56560704 494.56661958 0.48728589 497.83203125 0.48046875 C499.07210938 0.48304687 500.3121875 0.485625 501.58984375 0.48828125 C504.61426698 0.57215686 504.61426698 0.57215686 506.70703125 -0.64453125 C508.24330989 -0.43503871 509.77867331 -0.21660281 511.30859375 0.03515625 C515.65188447 0.61520485 520.03049203 0.80635913 524.40234375 1.07421875 C527.70703125 1.35546875 527.70703125 1.35546875 530.36328125 1.91015625 C532.79570127 2.37231605 534.63783853 2.30694937 537.08203125 1.98046875 C537.85417969 1.87992188 538.62632812 1.779375 539.421875 1.67578125 C540.17597656 1.57007813 540.93007813 1.464375 541.70703125 1.35546875 C543.00640625 1.19046875 544.30578125 1.02546875 545.64453125 0.85546875 C548.61226435 0.52670597 548.61226435 0.52670597 550.70703125 -0.64453125 C551.53847656 -0.43183594 551.53847656 -0.43183594 552.38671875 -0.21484375 C555.56197746 0.56560704 558.56661958 0.48728589 561.83203125 0.48046875 C563.07210937 0.48304687 564.3121875 0.485625 565.58984375 0.48828125 C568.61426698 0.57215686 568.61426698 0.57215686 570.70703125 -0.64453125 C572.24330989 -0.43503871 573.77867331 -0.21660281 575.30859375 0.03515625 C579.65188447 0.61520485 584.03049203 0.80635913 588.40234375 1.07421875 C591.70703125 1.35546875 591.70703125 1.35546875 594.36328125 1.91015625 C596.79570127 2.37231605 598.63783853 2.30694937 601.08203125 1.98046875 C601.85417969 1.87992188 602.62632812 1.779375 603.421875 1.67578125 C604.17597656 1.57007813 604.93007813 1.464375 605.70703125 1.35546875 C607.00640625 1.19046875 608.30578125 1.02546875 609.64453125 0.85546875 C612.61226435 0.52670597 612.61226435 0.52670597 614.70703125 -0.64453125 C615.53847656 -0.43183594 615.53847656 -0.43183594 616.38671875 -0.21484375 C619.56197746 0.56560704 622.56661958 0.48728589 625.83203125 0.48046875 C627.07210937 0.48304687 628.3121875 0.485625 629.58984375 0.48828125 C632.61426698 0.57215686 632.61426698 0.57215686 634.70703125 -0.64453125 C636.24330989 -0.43503871 637.77867331 -0.21660281 639.30859375 0.03515625 C643.65188447 0.61520485 648.03049203 0.80635913 652.40234375 1.07421875 C655.70703125 1.35546875 655.70703125 1.35546875 658.36328125 1.91015625 C660.79570127 2.37231605 662.63783853 2.30694937 665.08203125 1.98046875 C665.85417969 1.87992188 666.62632812 1.779375 667.421875 1.67578125 C668.17597656 1.57007813 668.93007813 1.464375 669.70703125 1.35546875 C671.00640625 1.19046875 672.30578125 1.02546875 673.64453125 0.85546875 C676.61226435 0.52670597 676.61226435 0.52670597 678.70703125 -0.64453125 C679.53847656 -0.43183594 679.53847656 -0.43183594 680.38671875 -0.21484375 C683.56197746 0.56560704 686.56661958 0.48728589 689.83203125 0.48046875 C691.07210937 0.48304687 692.3121875 0.485625 693.58984375 0.48828125 C696.61426698 0.57215686 696.61426698 0.57215686 698.70703125 -0.64453125 C700.24330989 -0.43503871 701.77867331 -0.21660281 703.30859375 0.03515625 C707.65188447 0.61520485 712.03049203 0.80635913 716.40234375 1.07421875 C719.70703125 1.35546875 719.70703125 1.35546875 722.359375 1.9140625 C724.82500444 2.37765007 726.67204656 2.27495852 729.14453125 1.91796875 C732.79430171 1.40216935 735.91806648 1.35546875 739.70703125 1.35546875 C739.70703125 87.48546875 739.70703125 173.61546875 739.70703125 262.35546875 C492.20703125 262.35546875 244.70703125 262.35546875 -10.29296875 262.35546875 C-10.29296875 176.22546875 -10.29296875 90.09546875 -10.29296875 1.35546875 C-6.09322579 -0.74440273 -4.48635289 -0.63240464 0 0 Z " fill="#4A204C" transform="translate(10.29296875,1071.64453125)"/>
<path d="M0 0 C4.21514439 0.55350381 8.4510494 0.78743133 12.69140625 1.07421875 C15.70703125 1.35546875 15.70703125 1.35546875 18.32421875 1.91015625 C20.77281683 2.3677631 22.62359014 2.30885258 25.08203125 1.98046875 C25.85417969 1.87992188 26.62632813 1.779375 27.421875 1.67578125 C28.17597656 1.57007813 28.93007813 1.464375 29.70703125 1.35546875 C31.00640625 1.19046875 32.30578125 1.02546875 33.64453125 0.85546875 C36.61226435 0.52670597 36.61226435 0.52670597 38.70703125 -0.64453125 C39.53847656 -0.43183594 39.53847656 -0.43183594 40.38671875 -0.21484375 C43.56197746 0.56560704 46.56661958 0.48728589 49.83203125 0.48046875 C51.07210937 0.48304687 52.3121875 0.485625 53.58984375 0.48828125 C56.61426698 0.57215686 56.61426698 0.57215686 58.70703125 -0.64453125 C60.24330989 -0.43503871 61.77867331 -0.21660281 63.30859375 0.03515625 C67.65188447 0.61520485 72.03049203 0.80635913 76.40234375 1.07421875 C79.70703125 1.35546875 79.70703125 1.35546875 82.36328125 1.91015625 C84.79570127 2.37231605 86.63783853 2.30694937 89.08203125 1.98046875 C89.85417969 1.87992188 90.62632813 1.779375 91.421875 1.67578125 C92.17597656 1.57007813 92.93007812 1.464375 93.70703125 1.35546875 C95.00640625 1.19046875 96.30578125 1.02546875 97.64453125 0.85546875 C100.61226435 0.52670597 100.61226435 0.52670597 102.70703125 -0.64453125 C103.26132813 -0.50273438 103.815625 -0.3609375 104.38671875 -0.21484375 C107.56197746 0.56560704 110.56661958 0.48728589 113.83203125 0.48046875 C115.07210937 0.48304687 116.3121875 0.485625 117.58984375 0.48828125 C120.61426698 0.57215686 120.61426698 0.57215686 122.70703125 -0.64453125 C124.24330989 -0.43503871 125.77867331 -0.21660281 127.30859375 0.03515625 C131.65188447 0.61520485 136.03049203 0.80635913 140.40234375 1.07421875 C143.70703125 1.35546875 143.70703125 1.35546875 146.36328125 1.91015625 C148.79570127 2.37231605 150.63783853 2.30694937 153.08203125 1.98046875 C153.85417969 1.87992188 154.62632812 1.779375 155.421875 1.67578125 C156.17597656 1.57007813 156.93007812 1.464375 157.70703125 1.35546875 C159.00640625 1.19046875 160.30578125 1.02546875 161.64453125 0.85546875 C164.61226435 0.52670597 164.61226435 0.52670597 166.70703125 -0.64453125 C167.26132813 -0.50273438 167.815625 -0.3609375 168.38671875 -0.21484375 C171.56197746 0.56560704 174.56661958 0.48728589 177.83203125 0.48046875 C179.07210937 0.48304687 180.3121875 0.485625 181.58984375 0.48828125 C184.61426698 0.57215686 184.61426698 0.57215686 186.70703125 -0.64453125 C188.24330989 -0.43503871 189.77867331 -0.21660281 191.30859375 0.03515625 C195.65188447 0.61520485 200.03049203 0.80635913 204.40234375 1.07421875 C207.70703125 1.35546875 207.70703125 1.35546875 210.36328125 1.91015625 C212.79570127 2.37231605 214.63783853 2.30694937 217.08203125 1.98046875 C217.85417969 1.87992188 218.62632812 1.779375 219.421875 1.67578125 C220.17597656 1.57007813 220.93007812 1.464375 221.70703125 1.35546875 C223.00640625 1.19046875 224.30578125 1.02546875 225.64453125 0.85546875 C228.61226435 0.52670597 228.61226435 0.52670597 230.70703125 -0.64453125 C231.26132813 -0.50273438 231.815625 -0.3609375 232.38671875 -0.21484375 C235.56197746 0.56560704 238.56661958 0.48728589 241.83203125 0.48046875 C243.07210937 0.48304687 244.3121875 0.485625 245.58984375 0.48828125 C248.61426698 0.57215686 248.61426698 0.57215686 250.70703125 -0.64453125 C252.24330989 -0.43503871 253.77867331 -0.21660281 255.30859375 0.03515625 C259.65188447 0.61520485 264.03049203 0.80635913 268.40234375 1.07421875 C271.70703125 1.35546875 271.70703125 1.35546875 274.36328125 1.91015625 C276.79570127 2.37231605 278.63783853 2.30694937 281.08203125 1.98046875 C281.85417969 1.87992188 282.62632812 1.779375 283.421875 1.67578125 C284.17597656 1.57007813 284.93007813 1.464375 285.70703125 1.35546875 C287.00640625 1.19046875 288.30578125 1.02546875 289.64453125 0.85546875 C292.61226435 0.52670597 292.61226435 0.52670597 294.70703125 -0.64453125 C295.26132812 -0.50273438 295.815625 -0.3609375 296.38671875 -0.21484375 C299.56197746 0.56560704 302.56661958 0.48728589 305.83203125 0.48046875 C307.07210938 0.48304687 308.3121875 0.485625 309.58984375 0.48828125 C312.61426698 0.57215686 312.61426698 0.57215686 314.70703125 -0.64453125 C316.24330989 -0.43503871 317.77867331 -0.21660281 319.30859375 0.03515625 C323.65188447 0.61520485 328.03049203 0.80635913 332.40234375 1.07421875 C335.70703125 1.35546875 335.70703125 1.35546875 338.36328125 1.91015625 C340.79570127 2.37231605 342.63783853 2.30694937 345.08203125 1.98046875 C345.85417969 1.87992188 346.62632812 1.779375 347.421875 1.67578125 C348.17597656 1.57007813 348.93007813 1.464375 349.70703125 1.35546875 C351.00640625 1.19046875 352.30578125 1.02546875 353.64453125 0.85546875 C356.61226435 0.52670597 356.61226435 0.52670597 358.70703125 -0.64453125 C359.26132812 -0.50273438 359.815625 -0.3609375 360.38671875 -0.21484375 C363.56197746 0.56560704 366.56661958 0.48728589 369.83203125 0.48046875 C371.07210938 0.48304687 372.3121875 0.485625 373.58984375 0.48828125 C376.61426698 0.57215686 376.61426698 0.57215686 378.70703125 -0.64453125 C380.24330989 -0.43503871 381.77867331 -0.21660281 383.30859375 0.03515625 C387.65188447 0.61520485 392.03049203 0.80635913 396.40234375 1.07421875 C399.70703125 1.35546875 399.70703125 1.35546875 402.36328125 1.91015625 C404.79570127 2.37231605 406.63783853 2.30694937 409.08203125 1.98046875 C409.85417969 1.87992188 410.62632812 1.779375 411.421875 1.67578125 C412.17597656 1.57007813 412.93007813 1.464375 413.70703125 1.35546875 C415.00640625 1.19046875 416.30578125 1.02546875 417.64453125 0.85546875 C420.61226435 0.52670597 420.61226435 0.52670597 422.70703125 -0.64453125 C423.26132812 -0.50273438 423.815625 -0.3609375 424.38671875 -0.21484375 C427.56197746 0.56560704 430.56661958 0.48728589 433.83203125 0.48046875 C435.07210938 0.48304687 436.3121875 0.485625 437.58984375 0.48828125 C440.61426698 0.57215686 440.61426698 0.57215686 442.70703125 -0.64453125 C444.24330989 -0.43503871 445.77867331 -0.21660281 447.30859375 0.03515625 C451.65188447 0.61520485 456.03049203 0.80635913 460.40234375 1.07421875 C463.70703125 1.35546875 463.70703125 1.35546875 466.36328125 1.91015625 C468.79570127 2.37231605 470.63783853 2.30694937 473.08203125 1.98046875 C473.85417969 1.87992188 474.62632812 1.779375 475.421875 1.67578125 C476.17597656 1.57007813 476.93007813 1.464375 477.70703125 1.35546875 C479.00640625 1.19046875 480.30578125 1.02546875 481.64453125 0.85546875 C484.61226435 0.52670597 484.61226435 0.52670597 486.70703125 -0.64453125 C487.26132812 -0.50273438 487.815625 -0.3609375 488.38671875 -0.21484375 C491.56197746 0.56560704 494.56661958 0.48728589 497.83203125 0.48046875 C499.07210938 0.48304687 500.3121875 0.485625 501.58984375 0.48828125 C504.61426698 0.57215686 504.61426698 0.57215686 506.70703125 -0.64453125 C508.24330989 -0.43503871 509.77867331 -0.21660281 511.30859375 0.03515625 C515.65188447 0.61520485 520.03049203 0.80635913 524.40234375 1.07421875 C527.70703125 1.35546875 527.70703125 1.35546875 530.36328125 1.91015625 C532.79570127 2.37231605 534.63783853 2.30694937 537.08203125 1.98046875 C537.85417969 1.87992188 538.62632812 1.779375 539.421875 1.67578125 C540.17597656 1.57007813 540.93007813 1.464375 541.70703125 1.35546875 C543.00640625 1.19046875 544.30578125 1.02546875 545.64453125 0.85546875 C548.61226435 0.52670597 548.61226435 0.52670597 550.70703125 -0.64453125 C551.53847656 -0.43183594 551.53847656 -0.43183594 552.38671875 -0.21484375 C555.56197746 0.56560704 558.56661958 0.48728589 561.83203125 0.48046875 C563.07210937 0.48304687 564.3121875 0.485625 565.58984375 0.48828125 C568.61426698 0.57215686 568.61426698 0.57215686 570.70703125 -0.64453125 C572.24330989 -0.43503871 573.77867331 -0.21660281 575.30859375 0.03515625 C579.65188447 0.61520485 584.03049203 0.80635913 588.40234375 1.07421875 C591.70703125 1.35546875 591.70703125 1.35546875 594.36328125 1.91015625 C596.79570127 2.37231605 598.63783853 2.30694937 601.08203125 1.98046875 C601.85417969 1.87992188 602.62632812 1.779375 603.421875 1.67578125 C604.17597656 1.57007813 604.93007813 1.464375 605.70703125 1.35546875 C607.00640625 1.19046875 608.30578125 1.02546875 609.64453125 0.85546875 C612.61226435 0.52670597 612.61226435 0.52670597 614.70703125 -0.64453125 C615.53847656 -0.43183594 615.53847656 -0.43183594 616.38671875 -0.21484375 C619.56197746 0.56560704 622.56661958 0.48728589 625.83203125 0.48046875 C627.07210937 0.48304687 628.3121875 0.485625 629.58984375 0.48828125 C632.61426698 0.57215686 632.61426698 0.57215686 634.70703125 -0.64453125 C636.24330989 -0.43503871 637.77867331 -0.21660281 639.30859375 0.03515625 C643.65188447 0.61520485 648.03049203 0.80635913 652.40234375 1.07421875 C655.70703125 1.35546875 655.70703125 1.35546875 658.36328125 1.91015625 C660.79570127 2.37231605 662.63783853 2.30694937 665.08203125 1.98046875 C665.85417969 1.87992188 666.62632812 1.779375 667.421875 1.67578125 C668.17597656 1.57007813 668.93007813 1.464375 669.70703125 1.35546875 C671.00640625 1.19046875 672.30578125 1.02546875 673.64453125 0.85546875 C676.61226435 0.52670597 676.61226435 0.52670597 678.70703125 -0.64453125 C679.53847656 -0.43183594 679.53847656 -0.43183594 680.38671875 -0.21484375 C683.56197746 0.56560704 686.56661958 0.48728589 689.83203125 0.48046875 C691.07210937 0.48304687 692.3121875 0.485625 693.58984375 0.48828125 C696.61426698 0.57215686 696.61426698 0.57215686 698.70703125 -0.64453125 C700.24330989 -0.43503871 701.77867331 -0.21660281 703.30859375 0.03515625 C707.65188447 0.61520485 712.03049203 0.80635913 716.40234375 1.07421875 C719.70703125 1.35546875 719.70703125 1.35546875 722.359375 1.9140625 C724.82500444 2.37765007 726.67204656 2.27495852 729.14453125 1.91796875 C732.79430171 1.40216935 735.91806648 1.35546875 739.70703125 1.35546875 C739.70703125 40.62546875 739.70703125 79.89546875 739.70703125 120.35546875 C718.11265625 119.21078125 718.11265625 119.21078125 696.08203125 118.04296875 C687.11219317 117.57717933 678.14240594 117.11214278 669.171875 116.66015625 C668.06904615 116.60458431 666.96621731 116.54901237 665.82996941 116.49175644 C580.08868991 112.18589971 494.27775221 110.09922617 23.98706055 119.13623047 C22.5405041 119.2191645 21.09394552 119.30206137 19.64738464 119.38491821 C17.03006569 119.53489224 14.41320543 119.68976874 11.79634094 119.8477478 C10.63442734 119.91507111 9.47251373 119.98239441 8.27539062 120.05175781 C7.2890564 120.11075256 6.30272217 120.16974731 5.28649902 120.23052979 C0.09633677 120.41168898 -5.09964584 120.35546875 -10.29296875 120.35546875 C-10.29296875 81.08546875 -10.29296875 41.81546875 -10.29296875 1.35546875 C-6.09322579 -0.74440273 -4.48635289 -0.63240464 0 0 Z " fill="#6F2E71" transform="translate(10.29296875,1071.64453125)"/>
<path d="M0 0 C4.21514439 0.55350381 8.4510494 0.78743133 12.69140625 1.07421875 C15.70703125 1.35546875 15.70703125 1.35546875 18.32421875 1.91015625 C20.77281683 2.3677631 22.62359014 2.30885258 25.08203125 1.98046875 C25.85417969 1.87992188 26.62632813 1.779375 27.421875 1.67578125 C28.17597656 1.57007813 28.93007813 1.464375 29.70703125 1.35546875 C31.00640625 1.19046875 32.30578125 1.02546875 33.64453125 0.85546875 C36.61226435 0.52670597 36.61226435 0.52670597 38.70703125 -0.64453125 C39.53847656 -0.43183594 39.53847656 -0.43183594 40.38671875 -0.21484375 C43.56197746 0.56560704 46.56661958 0.48728589 49.83203125 0.48046875 C51.07210937 0.48304687 52.3121875 0.485625 53.58984375 0.48828125 C56.61426698 0.57215686 56.61426698 0.57215686 58.70703125 -0.64453125 C60.24330989 -0.43503871 61.77867331 -0.21660281 63.30859375 0.03515625 C67.65188447 0.61520485 72.03049203 0.80635913 76.40234375 1.07421875 C79.70703125 1.35546875 79.70703125 1.35546875 82.36328125 1.91015625 C84.79570127 2.37231605 86.63783853 2.30694937 89.08203125 1.98046875 C89.85417969 1.87992188 90.62632813 1.779375 91.421875 1.67578125 C92.17597656 1.57007813 92.93007812 1.464375 93.70703125 1.35546875 C95.00640625 1.19046875 96.30578125 1.02546875 97.64453125 0.85546875 C100.61226435 0.52670597 100.61226435 0.52670597 102.70703125 -0.64453125 C103.26132813 -0.50273438 103.815625 -0.3609375 104.38671875 -0.21484375 C107.56197746 0.56560704 110.56661958 0.48728589 113.83203125 0.48046875 C115.07210937 0.48304687 116.3121875 0.485625 117.58984375 0.48828125 C120.61426698 0.57215686 120.61426698 0.57215686 122.70703125 -0.64453125 C124.24330989 -0.43503871 125.77867331 -0.21660281 127.30859375 0.03515625 C131.65188447 0.61520485 136.03049203 0.80635913 140.40234375 1.07421875 C143.70703125 1.35546875 143.70703125 1.35546875 146.36328125 1.91015625 C148.79570127 2.37231605 150.63783853 2.30694937 153.08203125 1.98046875 C153.85417969 1.87992188 154.62632812 1.779375 155.421875 1.67578125 C156.17597656 1.57007813 156.93007812 1.464375 157.70703125 1.35546875 C159.00640625 1.19046875 160.30578125 1.02546875 161.64453125 0.85546875 C164.61226435 0.52670597 164.61226435 0.52670597 166.70703125 -0.64453125 C167.26132813 -0.50273438 167.815625 -0.3609375 168.38671875 -0.21484375 C171.56197746 0.56560704 174.56661958 0.48728589 177.83203125 0.48046875 C179.07210937 0.48304687 180.3121875 0.485625 181.58984375 0.48828125 C184.61426698 0.57215686 184.61426698 0.57215686 186.70703125 -0.64453125 C188.24330989 -0.43503871 189.77867331 -0.21660281 191.30859375 0.03515625 C195.65188447 0.61520485 200.03049203 0.80635913 204.40234375 1.07421875 C207.70703125 1.35546875 207.70703125 1.35546875 210.36328125 1.91015625 C212.79570127 2.37231605 214.63783853 2.30694937 217.08203125 1.98046875 C217.85417969 1.87992188 218.62632812 1.779375 219.421875 1.67578125 C220.17597656 1.57007813 220.93007812 1.464375 221.70703125 1.35546875 C223.00640625 1.19046875 224.30578125 1.02546875 225.64453125 0.85546875 C228.61226435 0.52670597 228.61226435 0.52670597 230.70703125 -0.64453125 C231.26132813 -0.50273438 231.815625 -0.3609375 232.38671875 -0.21484375 C235.56197746 0.56560704 238.56661958 0.48728589 241.83203125 0.48046875 C243.07210937 0.48304687 244.3121875 0.485625 245.58984375 0.48828125 C248.61426698 0.57215686 248.61426698 0.57215686 250.70703125 -0.64453125 C252.24330989 -0.43503871 253.77867331 -0.21660281 255.30859375 0.03515625 C259.65188447 0.61520485 264.03049203 0.80635913 268.40234375 1.07421875 C271.70703125 1.35546875 271.70703125 1.35546875 274.36328125 1.91015625 C276.79570127 2.37231605 278.63783853 2.30694937 281.08203125 1.98046875 C281.85417969 1.87992188 282.62632812 1.779375 283.421875 1.67578125 C284.17597656 1.57007813 284.93007813 1.464375 285.70703125 1.35546875 C287.00640625 1.19046875 288.30578125 1.02546875 289.64453125 0.85546875 C292.61226435 0.52670597 292.61226435 0.52670597 294.70703125 -0.64453125 C295.26132812 -0.50273438 295.815625 -0.3609375 296.38671875 -0.21484375 C299.56197746 0.56560704 302.56661958 0.48728589 305.83203125 0.48046875 C307.07210938 0.48304687 308.3121875 0.485625 309.58984375 0.48828125 C312.61426698 0.57215686 312.61426698 0.57215686 314.70703125 -0.64453125 C316.24330989 -0.43503871 317.77867331 -0.21660281 319.30859375 0.03515625 C323.65188447 0.61520485 328.03049203 0.80635913 332.40234375 1.07421875 C335.70703125 1.35546875 335.70703125 1.35546875 338.36328125 1.91015625 C340.79570127 2.37231605 342.63783853 2.30694937 345.08203125 1.98046875 C345.85417969 1.87992188 346.62632812 1.779375 347.421875 1.67578125 C348.17597656 1.57007813 348.93007813 1.464375 349.70703125 1.35546875 C351.00640625 1.19046875 352.30578125 1.02546875 353.64453125 0.85546875 C356.61226435 0.52670597 356.61226435 0.52670597 358.70703125 -0.64453125 C359.26132812 -0.50273438 359.815625 -0.3609375 360.38671875 -0.21484375 C363.56197746 0.56560704 366.56661958 0.48728589 369.83203125 0.48046875 C371.07210938 0.48304687 372.3121875 0.485625 373.58984375 0.48828125 C376.61426698 0.57215686 376.61426698 0.57215686 378.70703125 -0.64453125 C380.24330989 -0.43503871 381.77867331 -0.21660281 383.30859375 0.03515625 C387.65188447 0.61520485 392.03049203 0.80635913 396.40234375 1.07421875 C399.70703125 1.35546875 399.70703125 1.35546875 402.36328125 1.91015625 C404.79570127 2.37231605 406.63783853 2.30694937 409.08203125 1.98046875 C409.85417969 1.87992188 410.62632812 1.779375 411.421875 1.67578125 C412.17597656 1.57007813 412.93007813 1.464375 413.70703125 1.35546875 C415.00640625 1.19046875 416.30578125 1.02546875 417.64453125 0.85546875 C420.61226435 0.52670597 420.61226435 0.52670597 422.70703125 -0.64453125 C423.26132812 -0.50273438 423.815625 -0.3609375 424.38671875 -0.21484375 C427.56197746 0.56560704 430.56661958 0.48728589 433.83203125 0.48046875 C435.07210938 0.48304687 436.3121875 0.485625 437.58984375 0.48828125 C440.61426698 0.57215686 440.61426698 0.57215686 442.70703125 -0.64453125 C444.24330989 -0.43503871 445.77867331 -0.21660281 447.30859375 0.03515625 C451.65188447 0.61520485 456.03049203 0.80635913 460.40234375 1.07421875 C463.70703125 1.35546875 463.70703125 1.35546875 466.36328125 1.91015625 C468.79570127 2.37231605 470.63783853 2.30694937 473.08203125 1.98046875 C473.85417969 1.87992188 474.62632812 1.779375 475.421875 1.67578125 C476.17597656 1.57007813 476.93007813 1.464375 477.70703125 1.35546875 C479.00640625 1.19046875 480.30578125 1.02546875 481.64453125 0.85546875 C484.61226435 0.52670597 484.61226435 0.52670597 486.70703125 -0.64453125 C487.26132812 -0.50273438 487.815625 -0.3609375 488.38671875 -0.21484375 C491.56197746 0.56560704 494.56661958 0.48728589 497.83203125 0.48046875 C499.07210938 0.48304687 500.3121875 0.485625 501.58984375 0.48828125 C504.61426698 0.57215686 504.61426698 0.57215686 506.70703125 -0.64453125 C508.24330989 -0.43503871 509.77867331 -0.21660281 511.30859375 0.03515625 C515.65188447 0.61520485 520.03049203 0.80635913 524.40234375 1.07421875 C527.70703125 1.35546875 527.70703125 1.35546875 530.36328125 1.91015625 C532.79570127 2.37231605 534.63783853 2.30694937 537.08203125 1.98046875 C537.85417969 1.87992188 538.62632812 1.779375 539.421875 1.67578125 C540.17597656 1.57007813 540.93007813 1.464375 541.70703125 1.35546875 C543.00640625 1.19046875 544.30578125 1.02546875 545.64453125 0.85546875 C548.61226435 0.52670597 548.61226435 0.52670597 550.70703125 -0.64453125 C551.53847656 -0.43183594 551.53847656 -0.43183594 552.38671875 -0.21484375 C555.56197746 0.56560704 558.56661958 0.48728589 561.83203125 0.48046875 C563.07210937 0.48304687 564.3121875 0.485625 565.58984375 0.48828125 C568.61426698 0.57215686 568.61426698 0.57215686 570.70703125 -0.64453125 C572.24330989 -0.43503871 573.77867331 -0.21660281 575.30859375 0.03515625 C579.65188447 0.61520485 584.03049203 0.80635913 588.40234375 1.07421875 C591.70703125 1.35546875 591.70703125 1.35546875 594.36328125 1.91015625 C596.79570127 2.37231605 598.63783853 2.30694937 601.08203125 1.98046875 C601.85417969 1.87992188 602.62632812 1.779375 603.421875 1.67578125 C604.17597656 1.57007813 604.93007813 1.464375 605.70703125 1.35546875 C607.00640625 1.19046875 608.30578125 1.02546875 609.64453125 0.85546875 C612.61226435 0.52670597 612.61226435 0.52670597 614.70703125 -0.64453125 C615.53847656 -0.43183594 615.53847656 -0.43183594 616.38671875 -0.21484375 C619.56197746 0.56560704 622.56661958 0.48728589 625.83203125 0.48046875 C627.07210937 0.48304687 628.3121875 0.485625 629.58984375 0.48828125 C632.61426698 0.57215686 632.61426698 0.57215686 634.70703125 -0.64453125 C636.24330989 -0.43503871 637.77867331 -0.21660281 639.30859375 0.03515625 C643.65188447 0.61520485 648.03049203 0.80635913 652.40234375 1.07421875 C655.70703125 1.35546875 655.70703125 1.35546875 658.36328125 1.91015625 C660.79570127 2.37231605 662.63783853 2.30694937 665.08203125 1.98046875 C665.85417969 1.87992188 666.62632812 1.779375 667.421875 1.67578125 C668.17597656 1.57007813 668.93007813 1.464375 669.70703125 1.35546875 C671.00640625 1.19046875 672.30578125 1.02546875 673.64453125 0.85546875 C676.61226435 0.52670597 676.61226435 0.52670597 678.70703125 -0.64453125 C679.53847656 -0.43183594 679.53847656 -0.43183594 680.38671875 -0.21484375 C683.56197746 0.56560704 686.56661958 0.48728589 689.83203125 0.48046875 C691.07210937 0.48304687 692.3121875 0.485625 693.58984375 0.48828125 C696.61426698 0.57215686 696.61426698 0.57215686 698.70703125 -0.64453125 C700.24330989 -0.43503871 701.77867331 -0.21660281 703.30859375 0.03515625 C707.65188447 0.61520485 712.03049203 0.80635913 716.40234375 1.07421875 C719.70703125 1.35546875 719.70703125 1.35546875 722.359375 1.9140625 C724.82500444 2.37765007 726.67204656 2.27495852 729.14453125 1.91796875 C732.79430171 1.40216935 735.91806648 1.35546875 739.70703125 1.35546875 C739.70703125 13.89546875 739.70703125 26.43546875 739.70703125 39.35546875 C724.46999188 38.85522424 709.24815425 38.26668404 694.0234375 37.48828125 C692.86037803 37.42893087 692.86037803 37.42893087 691.6738224 37.3683815 C688.42809225 37.20266195 685.18237357 37.0367196 681.93666935 36.87049294 C637.11637043 34.57945095 592.28759413 32.76136625 547.42839813 31.4360733 C544.73204583 31.35620966 542.03572997 31.27519378 539.3394165 31.19403076 C483.3645208 29.51983957 427.40065791 29.17067918 371.40502357 29.16822004 C368.92160137 29.16797146 366.43817975 29.16725276 363.95475769 29.16638565 C305.60599186 29.14757182 247.29603996 29.81448126 188.97032166 31.57519531 C185.80344158 31.67071624 182.63652465 31.76494869 179.46960449 31.85913086 C135.19075465 33.18367537 90.94794142 35.11020143 46.70703125 37.35546875 C45.54183331 37.41451889 45.54183331 37.41451889 44.35309601 37.47476196 C26.13574895 38.39854741 7.92047914 39.35747161 -10.29296875 40.35546875 C-10.29296875 27.48546875 -10.29296875 14.61546875 -10.29296875 1.35546875 C-6.09322579 -0.74440273 -4.48635289 -0.63240464 0 0 Z " fill="#833086" transform="translate(10.29296875,1071.64453125)"/>
<path d="M0 0 C3.26199468 -0.00072936 6.52398556 -0.00289748 9.78597927 -0.00549722 C21.34001068 -0.01466199 32.89403084 -0.01884455 44.44806576 -0.01804566 C53.77978917 -0.01751663 63.11147029 -0.02450186 72.44318295 -0.03855348 C119.14076675 -0.10724458 165.82163257 -0.07623597 212.50714779 1.09303832 C213.34424943 1.11398378 214.18135107 1.13492923 215.04381943 1.1565094 C250.07890382 2.04153425 285.11358351 3.205833 320.12726498 4.71999145 C320.93875877 4.75498496 321.75025257 4.78997848 322.58633709 4.8260324 C346.11811005 5.85110032 369.6418645 7.06460991 393.16339779 8.30006957 C393.86800262 8.33702689 394.57260746 8.37398421 395.29856396 8.41206145 C399.27908484 8.62149096 403.25929216 8.83595943 407.23927593 9.05541778 C408.67900183 9.13384726 410.11882313 9.21053586 411.55871105 9.2859323 C413.86862023 9.40692947 416.17824038 9.53257792 418.48786068 9.65895629 C419.19460902 9.69491975 419.90135736 9.73088321 420.62952232 9.76793647 C424.31931718 9.97479409 427.64254095 10.43730445 431.29230404 11.16725707 C431.29230404 18.09725707 431.29230404 25.02725707 431.29230404 32.16725707 C428.76235775 32.03150268 426.23241146 31.89574828 423.62580013 31.75588012 C334.81805378 27.00288499 246.02756609 23.16064955 -284.42766666 30.94801879 C-285.87422311 31.03095282 -287.32078169 31.11384969 -288.76734257 31.19670653 C-291.38466152 31.34668056 -294.00152178 31.50155707 -296.61838627 31.65953612 C-303.995876 32.08700076 -311.31756707 32.23331566 -318.70769596 32.16725707 C-318.70769596 25.23725707 -318.70769596 18.30725707 -318.70769596 11.16725707 C-253.34197039 7.0941774 -187.9203837 3.99049722 -122.45769596 1.97975707 C-120.66833622 1.92449859 -120.66833622 1.92449859 -118.8428278 1.86812377 C-110.13184967 1.60394662 -101.42002654 1.3809469 -92.70769596 1.16725707 C-91.49481128 1.1373403 -91.49481128 1.1373403 -90.25742388 1.10681915 C-60.16910312 0.36906918 -30.09706547 0.00382009 0 0 Z " fill="#632D65" transform="translate(318.70769596099854,1159.8327429294586)"/>
<path d="M0 0 C4.28235811 3.29059378 7.44610889 6.57345391 10.6875 10.9375 C11.55783351 12.09562379 12.4289548 13.25315591 13.30078125 14.41015625 C13.74502441 15.00328613 14.18926758 15.59641602 14.64697266 16.20751953 C16.85084888 19.12719821 19.11129803 22.00160547 21.375 24.875 C21.83108643 25.45523926 22.28717285 26.03547852 22.75708008 26.63330078 C25.61153389 30.25827283 28.49139848 33.86194376 31.38305664 37.45727539 C36.71593508 44.08868485 41.92073413 50.80334587 47.06494141 57.58203125 C50.86700763 62.57117821 54.77608672 67.4595054 58.75 72.3125 C59.82201037 73.63249117 60.89363473 74.95279593 61.96484375 76.2734375 C63.44524088 78.09827651 64.93013431 79.91686149 66.44189453 81.71582031 C67.75114774 83.2739014 69.0326327 84.85519145 70.3125 86.4375 C71.03050781 87.30246094 71.74851562 88.16742187 72.48828125 89.05859375 C74.5943581 93.15646421 74.9690063 96.48774884 74 101 C72.4268644 103.95173405 70.37182662 106.28740818 68.125 108.75 C66.93056514 110.13132145 65.73787957 111.51415729 64.546875 112.8984375 C63.6506543 113.92275879 63.6506543 113.92275879 62.73632812 114.96777344 C60.14469653 118.00106104 57.75894194 121.17762762 55.375 124.375 C52.97321787 127.59067508 51.34334187 129.77110542 48 132 C47.01 132 46.02 132 45 132 C45 131.34 45 130.68 45 130 C44.01 129.67 43.02 129.34 42 129 C40.4296875 126.8203125 40.4296875 126.8203125 38.875 124.125 C38.35679687 123.24070312 37.83859375 122.35640625 37.3046875 121.4453125 C36 119 36 119 35 116 C34.34 116 33.68 116 33 116 C31.625 114.34765625 31.625 114.34765625 30 112.0625 C25.91162263 106.6481624 21.12138749 102.41302388 16 98 C15.36449219 97.40445313 14.72898437 96.80890625 14.07421875 96.1953125 C-9.76069473 74.04466485 -41.5621938 66.50656428 -73 64 C-70.38812303 59.15284228 -67.53028665 55.00477098 -63.875 50.875 C-60.11639385 46.53131591 -56.47814845 42.13423914 -53 37.5625 C-52.59370361 37.02858643 -52.18740723 36.49467285 -51.76879883 35.94458008 C-50.93805858 34.85244663 -50.10741147 33.76024232 -49.27685547 32.66796875 C-46.61521398 29.19104052 -43.9013133 25.75475621 -41.18457031 22.32080078 C-38.79363127 19.29627133 -36.42902556 16.25638642 -34.10546875 13.1796875 C-33.627146 12.55312256 -33.14882324 11.92655762 -32.65600586 11.28100586 C-31.7516258 10.09521426 -30.85464912 8.90371989 -29.96704102 7.70532227 C-22.18637464 -2.43193768 -11.8474957 -6.36254399 0 0 Z " fill="#F4C5F5" transform="translate(386,575)"/>
<path d="M0 0 C2.50941837 0.25284497 5.01092176 0.59305943 7.5 1 C8.93322123 1.18391625 10.36683359 1.36480483 11.80078125 1.54296875 C28.04890309 3.74886895 42.92461942 8.5710432 57.5 16 C58.47582031 16.48339844 59.45164062 16.96679688 60.45703125 17.46484375 C79.21799395 27.15398185 79.21799395 27.15398185 81.5 34 C82.80954583 34.71225833 84.14734825 35.37345754 85.5 36 C91.09098829 40.26529003 96.32714643 45.32752718 100.5 51 C100.5 51.66 100.5 52.32 100.5 53 C101.16 53 101.82 53 102.5 53 C104.15625 55.23046875 104.15625 55.23046875 106 58.1875 C106.6084375 59.15042969 107.216875 60.11335937 107.84375 61.10546875 C109.32620404 63.69626696 110.47690007 66.20182169 111.5 69 C106.75525789 68.40418246 102.67882423 66.98941932 98.3125 65.125 C87.72970029 60.78131355 77.99141693 58.38656143 66.5 58 C65.34250244 57.95915283 65.34250244 57.95915283 64.16162109 57.91748047 C52.88202028 57.57065074 42.26502878 58.15963122 31.1875 60.34375 C23.57321131 61.69883527 23.57321131 61.69883527 19.8125 59.25 C19.30074219 58.87875 18.78898437 58.5075 18.26171875 58.125 C16.27536246 56.85655075 14.3315628 56.07792306 12.125 55.25 C7.54638387 53.50217498 3.23303492 51.41361855 -1.125 49.1875 C-7.43978516 45.96547027 -13.83123725 43.02149433 -20.35986328 40.25854492 C-23.28325806 39.01361677 -25.8451616 37.76989226 -28.5 36 C-28.15195166 29.48652401 -26.80274381 26.18688582 -22.5625 21.3125 C-21.547089 20.1100873 -20.53412162 18.90560734 -19.5234375 17.69921875 C-19.01264648 17.09255371 -18.50185547 16.48588867 -17.97558594 15.86083984 C-16.52935315 14.03701683 -15.27785768 12.1761761 -14.0390625 10.20703125 C-10.30042826 4.38800915 -7.49662675 0.18978802 0 0 Z " fill="#451946" transform="translate(318.5,638)"/>
<path d="M0 0 C3.72306348 2.15427262 5.22608096 4.20851711 6.5625 8.375 C7.0575 12.83 7.0575 12.83 7.5625 17.375 C-2.0075 17.705 -11.5775 18.035 -21.4375 18.375 C-20.35660497 23.77947513 -19.41830159 24.87966202 -15.4375 28.375 C-11.76451928 30.21149036 -7.45586754 29.76162527 -3.4375 29.375 C-0.58501227 27.9328092 -0.58501227 27.9328092 1.5625 26.375 C2.5525 26.705 3.5425 27.035 4.5625 27.375 C3.5625 30.375 3.5625 30.375 0.6875 32.0625 C-5.58810758 34.48511648 -12.66388936 34.48227592 -18.875 31.875 C-23.16866954 29.34464444 -25.17415892 26.15027037 -26.4375 21.375 C-27.20520942 15.15390642 -27.18951506 9.62782109 -23.4375 4.375 C-16.88601172 -2.19438852 -8.59084932 -3.83406423 0 0 Z " fill="#FEFEFE" transform="translate(520.4375,760.625)"/>
<path d="M0 0 C3.72306348 2.15427262 5.22608096 4.20851711 6.5625 8.375 C7.0575 12.83 7.0575 12.83 7.5625 17.375 C-2.0075 17.705 -11.5775 18.035 -21.4375 18.375 C-20.35660497 23.77947513 -19.41830159 24.87966202 -15.4375 28.375 C-11.76451928 30.21149036 -7.45586754 29.76162527 -3.4375 29.375 C-0.58501227 27.9328092 -0.58501227 27.9328092 1.5625 26.375 C2.5525 26.705 3.5425 27.035 4.5625 27.375 C3.5625 30.375 3.5625 30.375 0.6875 32.0625 C-5.58810758 34.48511648 -12.66388936 34.48227592 -18.875 31.875 C-23.16866954 29.34464444 -25.17415892 26.15027037 -26.4375 21.375 C-27.20520942 15.15390642 -27.18951506 9.62782109 -23.4375 4.375 C-16.88601172 -2.19438852 -8.59084932 -3.83406423 0 0 Z " fill="#FEFEFE" transform="translate(599.4375,760.625)"/>
<path d="M0 0 C3.20670343 2.90607498 4.85491741 5.51486881 5.34057617 9.85864258 C5.32486572 10.96361084 5.30915527 12.0685791 5.29296875 13.20703125 C5.28330078 14.40908203 5.27363281 15.61113281 5.26367188 16.84960938 C5.23853516 18.09548828 5.21339844 19.34136719 5.1875 20.625 C5.16719727 22.52282227 5.16719727 22.52282227 5.14648438 24.45898438 C5.11118318 27.57725643 5.06186819 30.69466042 5 33.8125 C3.68 33.8125 2.36 33.8125 1 33.8125 C1 32.4925 1 31.1725 1 29.8125 C-0.6396875 30.8025 -0.6396875 30.8025 -2.3125 31.8125 C-7.47844553 34.39547276 -12.32922552 34.54134562 -18 33.8125 C-21.38622921 32.49947235 -22.50297755 31.62580947 -24.375 28.5625 C-25.20601533 24.90603255 -24.98701011 22.43153706 -24 18.8125 C-19.72200879 14.11358195 -15.17670995 13.99125776 -9.1875 13.5625 C-7.86202148 13.44648437 -7.86202148 13.44648437 -6.50976562 13.328125 C-4.34114291 13.14056844 -2.17068918 12.97439635 0 12.8125 C-0.38272443 8.01812016 -0.38272443 8.01812016 -2.5 3.875 C-6.93137316 1.99166641 -11.55881986 2.03738076 -16.140625 3.4921875 C-17.79150572 4.19683171 -19.40138697 4.99618696 -21 5.8125 C-21 4.4925 -21 3.1725 -21 1.8125 C-14.34183359 -1.73852208 -7.17230115 -2.83903587 0 0 Z " fill="#FEFEFE" transform="translate(168,760.1875)"/>
<path d="M0 0 C1.32 0 2.64 0 4 0 C4.33 1.98 4.66 3.96 5 6 C5.928125 5.195625 6.85625 4.39125 7.8125 3.5625 C12.06644547 -0.12425274 16.02924983 -0.34090051 21.4921875 -0.28515625 C26.19681468 0.24979357 28.93884202 2.72661042 31.875 6.25 C32.24625 6.8275 32.6175 7.405 33 8 C33.556875 7.05125 34.11375 6.1025 34.6875 5.125 C37.20184781 1.72723269 37.95391497 0.8795837 42 0 C46.56778508 -0.41456795 50.59280217 -0.50898645 54.9375 1.0625 C58.55118995 4.45717844 59.84101579 8.06577316 60.23950195 12.91381836 C60.2947445 16.25990246 60.26167918 19.59182878 60.1875 22.9375 C60.16719727 24.67870117 60.16719727 24.67870117 60.14648438 26.45507812 C60.1113141 29.30387052 60.06209287 32.15168844 60 35 C58.68 35 57.36 35 56 35 C55.970271 33.9941687 55.970271 33.9941687 55.93994141 32.96801758 C55.84440285 29.91579839 55.73484055 26.86423659 55.625 23.8125 C55.5940625 22.75740234 55.563125 21.70230469 55.53125 20.61523438 C55.47324219 19.08286133 55.47324219 19.08286133 55.4140625 17.51953125 C55.3826416 16.58214111 55.3512207 15.64475098 55.31884766 14.67895508 C54.97265265 11.77022784 54.32910595 9.60876848 53 7 C49.67499687 4.78333124 47.96276172 4.22862087 44 4 C39.44976883 5.46532868 36.3848023 6.76035147 34 11 C33.04831317 13.85506049 32.8099054 15.90937282 32.68359375 18.88671875 C32.62075195 20.2934082 32.62075195 20.2934082 32.55664062 21.72851562 C32.51732422 22.70498047 32.47800781 23.68144531 32.4375 24.6875 C32.37272461 26.16959961 32.37272461 26.16959961 32.30664062 27.68164062 C32.20058346 30.12095546 32.09852286 32.56037113 32 35 C30.68 35 29.36 35 28 35 C27.99589111 34.26885986 27.99178223 33.53771973 27.98754883 32.78442383 C27.95457791 29.45963693 27.88392853 26.13667384 27.8125 22.8125 C27.80669922 21.66201172 27.80089844 20.51152344 27.79492188 19.32617188 C27.67656958 12.62059366 27.67656958 12.62059366 24.76171875 6.73828125 C20.45948166 4.03036682 16.9172012 3.98906225 12 5 C8.13034776 7.82162142 6.3895641 10.48688582 5 15 C4.62161352 18.43234819 4.49203039 21.86254172 4.375 25.3125 C4.33632812 26.24384766 4.29765625 27.17519531 4.2578125 28.13476562 C4.16393687 30.42298407 4.07825491 32.71120295 4 35 C2.68 35 1.36 35 0 35 C0 23.45 0 11.9 0 0 Z " fill="#FEFEFE" transform="translate(225,759)"/>
<path d="M0 0 C10.12762246 4.51029678 20.23164402 9.06358464 30.25 13.8125 C31.01030518 14.1727124 31.77061035 14.5329248 32.55395508 14.90405273 C37.39947308 17.21100926 42.20644026 19.58695239 47 22 C47 22.99 47 23.98 47 25 C44.32035677 26.20870296 41.63366375 27.39170929 38.9375 28.5625 C37.80924805 29.07586914 37.80924805 29.07586914 36.65820312 29.59960938 C31.72768688 31.71268777 28.33916496 32.58316176 23 31 C18.05890565 27.99270837 14.95024416 23.27185087 11.5625 18.6875 C10.46170375 17.21069561 9.3588546 15.7354191 8.25390625 14.26171875 C7.72039551 13.54677246 7.18688477 12.83182617 6.63720703 12.09521484 C4.55952706 9.43630498 2.30650331 6.96535447 -0.01586914 4.51879883 C-0.34063232 4.01759521 -0.66539551 3.5163916 -1 3 C-0.67 2.01 -0.34 1.02 0 0 Z " fill="#B83EB9" transform="translate(293,675)"/>
<path d="M0 0 C1.32 0 2.64 0 4 0 C4.33 1.98 4.66 3.96 5 6 C5.928125 5.195625 6.85625 4.39125 7.8125 3.5625 C12.04812244 -0.10837278 15.98692458 -0.35277807 21.4296875 -0.2734375 C26.04496635 0.21754961 29.28048675 1.88206295 32.28125 5.578125 C35.68280027 10.97201185 36.4664751 16.29701313 35.375 22.5625 C34.20197065 27.17589061 32.4421486 29.71795133 29 33 C23.76853128 35.55429093 18.71833423 35.70431096 13 35 C9.73134077 33.63052222 7.49780135 31.49780135 5 29 C4.67 35.6 4.34 42.2 4 49 C2.68 49 1.36 49 0 49 C0 32.83 0 16.66 0 0 Z M9 6 C5.59609102 9.6799016 4.1309218 12.26528618 3.75 17.3125 C4.10287803 22.51745094 5.62057068 25.54174615 9.1875 29.3125 C12.79558543 31.47735126 15.79815822 32.21463239 20 32 C24.21590179 30.45957435 27.10833462 28.42715897 30 25 C31.35593231 20.93220306 31.53075585 17.25331741 31 13 C28.99478391 9.13279753 26.88872822 6.05238434 23 4 C17.2450478 2.70049466 14.0549927 2.55341407 9 6 Z " fill="#FEFEFE" transform="translate(392,759)"/>
<path d="M0 0 C1.32 0 2.64 0 4 0 C4.33 6.93 4.66 13.86 5 21 C7.97 18.525 7.97 18.525 11 16 C16.66176365 14.11274545 22.10995202 14.08872686 27.5 16.6875 C30.87644157 19.81070845 31.87528358 22.37721139 32.22705078 26.9543457 C32.21657715 28.01741943 32.20610352 29.08049316 32.1953125 30.17578125 C32.18886719 31.33271484 32.18242187 32.48964844 32.17578125 33.68164062 C32.15902344 34.87982422 32.14226562 36.07800781 32.125 37.3125 C32.11597656 38.53001953 32.10695313 39.74753906 32.09765625 41.00195312 C32.07413037 44.00150274 32.04125653 47.00065044 32 50 C30.68 50 29.36 50 28 50 C27.98018066 49.29391602 27.96036133 48.58783203 27.93994141 47.86035156 C27.84459585 44.65653006 27.73495487 41.45335199 27.625 38.25 C27.5940625 37.13882813 27.563125 36.02765625 27.53125 34.8828125 C27.49257813 33.81289063 27.45390625 32.74296875 27.4140625 31.640625 C27.36693115 30.16384277 27.36693115 30.16384277 27.31884766 28.65722656 C26.99147511 25.92895491 26.49967665 24.28828341 25 22 C20.7581081 19.17207207 16.98126257 19.21877714 12 20 C8.87708835 21.68012647 6.60835163 23.78329674 5 27 C4.84733388 28.73868744 4.75067404 30.48247501 4.68359375 32.2265625 C4.64169922 33.2578125 4.59980469 34.2890625 4.55664062 35.3515625 C4.51732422 36.43179688 4.47800781 37.51203125 4.4375 38.625 C4.39431641 39.71296875 4.35113281 40.8009375 4.30664062 41.921875 C4.2003547 44.6144517 4.09831943 47.30712253 4 50 C2.68 50 1.36 50 0 50 C0 33.5 0 17 0 0 Z " fill="#FEFEFE" transform="translate(446,744)"/>
<path d="M0 0 C3.7229703 2.6592645 6.55543557 5.73587115 8.625 9.875 C9.64662727 21.84981149 9.64662727 21.84981149 7.125 26.9375 C3.3030092 31.42833919 -0.24497703 33.4843021 -6.12890625 34.21875 C-11.5683773 34.39636538 -15.82555911 34.12460063 -20.375 30.875 C-24.80114156 26.46091877 -26.52145819 22.8008941 -26.625 16.5625 C-26.55396083 11.17062708 -25.88895514 7.39582387 -21.9453125 3.44140625 C-15.62747878 -2.10634326 -7.85588651 -2.61862884 0 0 Z M-18.125 5.6875 C-21.75184147 9.21359587 -22.27387242 11.81316041 -22.75 16.8125 C-22.61366699 21.97367831 -20.13289038 25.05432783 -16.625 28.6875 C-13.31744408 30.43315451 -10.07276491 30.99635522 -6.375 30.875 C-2.15909821 29.33457435 0.73333462 27.30215897 3.625 23.875 C4.98093231 19.80720306 5.15575585 16.12831741 4.625 11.875 C2.60793951 7.98495476 0.47907365 5.02874704 -3.375 2.875 C-9.24133248 1.21712343 -13.10955363 2.38186489 -18.125 5.6875 Z " fill="#FEFEFE" transform="translate(327.375,760.125)"/>
<path d="M0 0 C1.41732422 -0.02126953 1.41732422 -0.02126953 2.86328125 -0.04296875 C5.83156882 0.19925665 7.99617165 0.94723393 10.6875 2.1875 C10.3575 3.1775 10.0275 4.1675 9.6875 5.1875 C9.048125 5.0225 8.40875 4.8575 7.75 4.6875 C5.13730739 4.26093794 2.70180731 4.02361117 0.0625 3.9375 C-0.69289063 3.91171875 -1.44828125 3.8859375 -2.2265625 3.859375 C-4.85028628 4.27209559 -5.72459059 5.09734448 -7.3125 7.1875 C-7.38004834 9.25349083 -7.38004834 9.25349083 -6.3125 11.1875 C-2.59122769 14.44998532 1.49410579 15.6157027 6.12890625 17.125 C8.68605561 18.18690019 9.97299392 19.04850206 11.6875 21.1875 C13.05878631 24.7136648 12.67952098 26.21227696 11.5 29.875 C9.59764724 33.35171367 9.22340907 33.91064395 5.6875 35.1875 C-1.28738247 35.94499781 -7.13420288 35.55748025 -13.3125 32.1875 C-12.9825 30.8675 -12.6525 29.5475 -12.3125 28.1875 C-11.36375 28.6825 -10.415 29.1775 -9.4375 29.6875 C-4.91534626 31.62556589 -0.15797877 32.05155391 4.6875 31.1875 C6.53016396 29.9185776 6.53016396 29.9185776 7.6875 28.1875 C7.84224612 25.62560155 7.84224612 25.62560155 6.6875 23.1875 C3.01076576 20.22239174 -1.60848374 18.85461839 -6.0078125 17.25 C-8.4005405 16.14691184 -9.73022829 15.28540019 -11.3125 13.1875 C-12.08919903 6.19720874 -12.08919903 6.19720874 -9.4375 2.75 C-6.08457704 0.28461547 -4.1312958 0.02795193 0 0 Z " fill="#FEFEFE" transform="translate(363.3125,758.8125)"/>
<path d="M0 0 C1.32 0 2.64 0 4 0 C4.33 2.97 4.66 5.94 5 9 C8.3 9.33 11.6 9.66 15 10 C15 10.99 15 11.98 15 13 C11.7 13.33 8.4 13.66 5 14 C4.94214353 17.95827235 4.90645283 21.9164367 4.875 25.875 C4.85824219 27.00292969 4.84148437 28.13085938 4.82421875 29.29296875 C4.81455078 30.90751953 4.81455078 30.90751953 4.8046875 32.5546875 C4.78897705 34.04718018 4.78897705 34.04718018 4.77294922 35.56982422 C4.75620599 38.18171417 4.75620599 38.18171417 7 40 C8.9931567 40.02375926 8.9931567 40.02375926 11.125 39.625 C12.40375 39.41875 13.6825 39.2125 15 39 C15.33 39.99 15.66 40.98 16 42 C12.9642775 44.023815 12.04227513 44.33774253 8.5625 44.4375 C7.41974609 44.49744141 7.41974609 44.49744141 6.25390625 44.55859375 C2.86778285 43.71939852 1.90530629 41.84950067 0 39 C-0.54589844 36.13745117 -0.54589844 36.13745117 -0.609375 33.04296875 C-0.64160156 31.93115234 -0.67382812 30.81933594 -0.70703125 29.67382812 C-0.72121094 28.52333984 -0.73539063 27.37285156 -0.75 26.1875 C-0.79447266 24.43276367 -0.79447266 24.43276367 -0.83984375 22.64257812 C-0.91039709 19.76164991 -0.96316729 16.88152422 -1 14 C-2.32 13.67 -3.64 13.34 -5 13 C-5 12.01 -5 11.02 -5 10 C-3.68 9.67 -2.36 9.34 -1 9 C-0.67 6.03 -0.34 3.06 0 0 Z " fill="#FEFEFE" transform="translate(194,750)"/>
<path d="M0 0 C3.0482673 2.46455654 4.83325083 4.74987624 7 8 C6.67 9.32 6.34 10.64 6 12 C-1.92 12 -9.84 12 -18 12 C-19 9 -19 9 -17.875 6.5625 C-12.8644107 -0.28530537 -8.02898842 -2.05586555 0 0 Z " fill="#FCAFC9" transform="translate(596,763)"/>
<path d="M0 0 C3.0482673 2.46455654 4.83325083 4.74987624 7 8 C6.67 9.32 6.34 10.64 6 12 C-1.92 12 -9.84 12 -18 12 C-19 9 -19 9 -17.875 6.5625 C-12.8644107 -0.28530537 -8.02898842 -2.05586555 0 0 Z " fill="#FCAFC9" transform="translate(517,763)"/>
<path d="M0 0 C0.33 0.33 0.66 0.66 1 1 C0.88499137 6.98044853 0.88499137 6.98044853 -1.3359375 9.5390625 C-6.10461799 13.51683989 -8.833983 14.31893191 -15 14 C-17.67980529 13.13087396 -18.66565308 12.46171717 -20.3125 10.1875 C-21.2417354 7.23084192 -21.24747034 5.86184373 -20 3 C-13.93451773 -0.99770422 -7.05739307 -0.53186151 0 0 Z " fill="#FCAFC9" transform="translate(168,777)"/>
<path d="M0 0 C0.66 0.33 1.32 0.66 2 1 C2.6328125 3.28515625 2.6328125 3.28515625 3.125 6.0625 C3.29257813 6.98160156 3.46015625 7.90070313 3.6328125 8.84765625 C3.75398437 9.55792969 3.87515625 10.26820313 4 11 C6.97 11.99 9.94 12.98 13 14 C12 16 12 16 10.15234375 16.6328125 C8.1015625 17.08854167 6.05078125 17.54427083 4 18 C3.34 21.3 2.68 24.6 2 28 C1.01 28 0.02 28 -1 28 C-1.66 24.7 -2.32 21.4 -3 18 C-5.97 17.01 -8.94 16.02 -12 15 C-11 13 -11 13 -9.15234375 12.3671875 C-8.05599609 12.12355469 -8.05599609 12.12355469 -6.9375 11.875 C-6.20402344 11.70742187 -5.47054687 11.53984375 -4.71484375 11.3671875 C-4.14894531 11.24601563 -3.58304688 11.12484375 -3 11 C-2.86722656 10.28972656 -2.73445312 9.57945312 -2.59765625 8.84765625 C-2.42105469 7.92855469 -2.24445313 7.00945312 -2.0625 6.0625 C-1.88847656 5.14597656 -1.71445313 4.22945312 -1.53515625 3.28515625 C-1 1 -1 1 0 0 Z " fill="#BB42BA" transform="translate(208,136)"/>
<path d="M0 0 C1.32 0 2.64 0 4 0 C4.66 1.98 5.32 3.96 6 6 C6.70125 5.195625 7.4025 4.39125 8.125 3.5625 C11.26291593 0.76566189 12.88758763 0.28691249 17 0 C17 1.32 17 2.64 17 4 C14.0703125 4.78125 14.0703125 4.78125 11.140625 5.5625 C7.6545189 7.90353475 6.30702879 11.07729803 5 15 C4.43532548 18.50450275 4.30668534 21.95458969 4.25 25.5 C4.22035156 26.4178125 4.19070313 27.335625 4.16015625 28.28125 C4.09016664 30.52091764 4.03712683 32.75958788 4 35 C2.68 35 1.36 35 0 35 C0 23.45 0 11.9 0 0 Z " fill="#FEFEFE" transform="translate(544,759)"/>
<path d="M0 0 C2.94512195 2.56097561 2.94512195 2.56097561 3.25 5 C3.91274564 7.46243848 3.91274564 7.46243848 7.5625 8.75 C9.2640625 9.36875 9.2640625 9.36875 11 10 C8.43902439 12.94512195 8.43902439 12.94512195 6 13.25 C3.53756152 13.91274564 3.53756152 13.91274564 2.25 17.5625 C1.63125 19.2640625 1.63125 19.2640625 1 21 C-1.94512195 18.43902439 -1.94512195 18.43902439 -2.25 16 C-2.91274564 13.53756152 -2.91274564 13.53756152 -6.5625 12.25 C-7.696875 11.8375 -8.83125 11.425 -10 11 C-7.43902439 8.05487805 -7.43902439 8.05487805 -5 7.75 C-2.53756152 7.08725436 -2.53756152 7.08725436 -1.25 3.4375 C-0.8375 2.303125 -0.425 1.16875 0 0 Z " fill="#BA41BA" transform="translate(497,30)"/>
<path d="M0 0 C2.94512195 2.56097561 2.94512195 2.56097561 3.25 5 C3.91274564 7.46243848 3.91274564 7.46243848 7.5625 8.75 C9.2640625 9.36875 9.2640625 9.36875 11 10 C9.40308746 11.83644942 8.47610332 12.8924928 6.0625 13.4375 C3.23493694 14.20865356 1.93083884 15.86228557 0 18 C-0.350625 17.401875 -0.70125 16.80375 -1.0625 16.1875 C-3.71268783 13.19535245 -6.27773184 12.40462949 -10 11 C-7.43902439 8.05487805 -7.43902439 8.05487805 -5 7.75 C-2.53756152 7.08725436 -2.53756152 7.08725436 -1.25 3.4375 C-0.8375 2.303125 -0.425 1.16875 0 0 Z " fill="#BB42BA" transform="translate(684,165)"/>
<path d="M0 0 C2.22713364 1.83980605 2.9471637 2.63895196 3.375 5.5625 C3.58125 6.366875 3.7875 7.17125 4 8 C6.47636012 9.37466625 6.47636012 9.37466625 9 10 C8.67 10.66 8.34 11.32 8 12 C7.195625 12.2475 6.39125 12.495 5.5625 12.75 C2.67628816 13.80955402 2.67628816 13.80955402 1.6875 17.125 C1.460625 18.07375 1.23375 19.0225 1 20 C0.34 19.67 -0.32 19.34 -1 19 C-1.268125 18.030625 -1.53625 17.06125 -1.8125 16.0625 C-2.69360946 12.79353796 -2.69360946 12.79353796 -5.625 11.625 C-6.40875 11.41875 -7.1925 11.2125 -8 11 C-7.67 10.34 -7.34 9.68 -7 9 C-6.175 8.7525 -5.35 8.505 -4.5 8.25 C-3.675 7.8375 -2.85 7.425 -2 7 C-1.17768475 3.98385705 -1.17768475 3.98385705 -1 1 C-0.67 0.67 -0.34 0.34 0 0 Z " fill="#BC44BA" transform="translate(560,391)"/>
<path d="M0 0 C1.0725 0.165 2.145 0.33 3.25 0.5 C7.03028752 1.08810915 7.03028752 1.08810915 11 1 C10.835 2.0725 10.67 3.145 10.5 4.25 C9.91189085 8.03028752 9.91189085 8.03028752 10 12 C8.9275 11.835 7.855 11.67 6.75 11.5 C2.96971248 10.91189085 2.96971248 10.91189085 -1 11 C-0.835 9.9275 -0.67 8.855 -0.5 7.75 C0.08810915 3.96971248 0.08810915 3.96971248 0 0 Z " fill="#BB42BA" transform="translate(58,62)"/>
<path d="M0 0 C2 1 2 1 2.875 2.9375 C4.22909764 5.42001234 5.42178493 5.96871397 8 7 C7 9 7 9 5.0625 9.875 C2.57998766 11.22909764 2.03128603 12.42178493 1 15 C-1 14 -1 14 -1.875 12.0625 C-3.22909764 9.57998766 -4.42178493 9.03128603 -7 8 C-6 6 -6 6 -4.0625 5.125 C-1.57998766 3.77090236 -1.03128603 2.57821507 0 0 Z " fill="#BC44BA" transform="translate(684,534)"/>
<path d="M0 0 C2 1 2 1 2.875 2.9375 C4.22909764 5.42001234 5.42178493 5.96871397 8 7 C7 9 7 9 5.0625 9.875 C2.57998766 11.22909764 2.03128603 12.42178493 1 15 C-1 14 -1 14 -1.875 12.0625 C-3.22909764 9.57998766 -4.42178493 9.03128603 -7 8 C-6 6 -6 6 -4.0625 5.125 C-1.57998766 3.77090236 -1.03128603 2.57821507 0 0 Z " fill="#BC44BA" transform="translate(109,438)"/>
<path d="M0 0 C2.3125 0.0625 2.3125 0.0625 5 1 C7.3125 4.0625 7.3125 4.0625 9 7 C4.16743695 6.58578031 2.17320782 4.53586014 -1 1 C-0.67 0.67 -0.34 0.34 0 0 Z " fill="#FFFFFF" transform="translate(503,744)"/>
</svg>
