<?xml version="1.0" encoding="UTF-8"?>
<svg version="1.1" xmlns="http://www.w3.org/2000/svg" width="254" height="254">
<path d="M0 0 C83.82 0 167.64 0 254 0 C254 83.82 254 167.64 254 254 C170.18 254 86.36 254 0 254 C0 170.18 0 86.36 0 0 Z " fill="#020202" transform="translate(0,0)"/>
<path d="M0 0 C45.21 0 90.42 0 137 0 C137 0.33 137 0.66 137 1 C136.38068604 1.01981934 135.76137207 1.03963867 135.12329102 1.06005859 C132.26932611 1.15635231 129.41599143 1.26560097 126.5625 1.375 C125.58861328 1.4059375 124.61472656 1.436875 123.61132812 1.46875 C114.26919032 1.8436853 106.44843871 3.31245602 98.125 7.625 C97.43519043 7.97836426 96.74538086 8.33172852 96.03466797 8.69580078 C73.79406593 20.37276413 57.73946142 40.91190745 48.7734375 64.18359375 C45.21161934 76.45022918 45.44823138 91.14282577 51.125 102.6875 C53.51622627 106.78265397 56.39852671 109.21594526 60.328125 111.80859375 C62 113 62 113 63 115 C63.13415472 117.6723621 63.04318541 120.32250488 63 123 C62.01 123.495 62.01 123.495 61 124 C60.7525 122.88625 60.505 121.7725 60.25 120.625 C59.36857581 117.0208948 59.36857581 117.0208948 57.125 115.5 C54.46497553 114.87411189 53.42772755 114.66866554 51 116 C47.34733816 122.26170602 47.01104364 127.969737 48.7265625 134.9609375 C50.98857587 142.26190747 53.87498628 151.09273441 61 155 C63.14733927 155.70514846 63.14733927 155.70514846 65 156 C65 154.35 65 152.7 65 151 C65.99 151 66.98 151 68 151 C68.27972656 152.0621875 68.55945313 153.124375 68.84765625 154.21875 C69.25146215 155.6461569 69.65647557 157.07322258 70.0625 158.5 C70.24232422 159.19609375 70.42214844 159.8921875 70.60742188 160.609375 C73.13121612 169.26238384 78.18934532 174.23802122 85.984375 178.5625 C88.2309181 179.72523074 90.4864227 180.87078946 92.75 182 C101.35274978 186.35104434 109.53255523 190.8366334 117 197 C117 197.33 117 197.66 117 198 C112.41852438 197.45022293 108.35086918 196.51774506 104 195 C103.34 195 102.68 195 102 195 C101.7525 194.38125 101.505 193.7625 101.25 193.125 C99.7373875 190.55355875 98.74251796 190.08830078 96 189 C93.67296378 188.72358195 93.67296378 188.72358195 91.3125 188.8125 C90.52488281 188.81894531 89.73726563 188.82539063 88.92578125 188.83203125 C86.99300636 188.79266331 86.99300636 188.79266331 86 190 C85.6994273 192.28703181 85.45996234 194.5821436 85.24609375 196.87890625 C85.18092056 197.5655687 85.11574738 198.25223114 85.04859924 198.95970154 C84.84071107 201.16026435 84.63904262 203.36134782 84.4375 205.5625 C84.29793427 207.05147061 84.15796558 208.54040351 84.01757812 210.02929688 C83.67370262 213.6857713 83.33540418 217.34273768 83 221 C83.66 221 84.32 221 85 221 C85.33 220.01 85.66 219.02 86 218 C86.99 218 87.98 218 89 218 C88.125 221.875 88.125 221.875 87 223 C86.61393848 228.01879978 87.02336147 230.90712202 90 235 C86.37 234.67 82.74 234.34 79 234 C76.59490912 240.89171241 76.59490912 240.89171241 75 248 C75.66 248.45375 76.32 248.9075 77 249.375 C77.66 249.91125 78.32 250.4475 79 251 C79 251.66 79 252.32 79 253 C76.61435923 252.42415568 74.33317216 251.77772405 72 251 C72 251.99 72 252.98 72 254 C48.24 254 24.48 254 0 254 C0 170.18 0 86.36 0 0 Z " fill="#020202" transform="translate(0,0)"/>
<path d="M0 0 C0.98608749 0.00424484 0.98608749 0.00424484 1.99209595 0.00857544 C4.07044483 0.01967803 6.14834616 0.04476264 8.2265625 0.0703125 C9.64452498 0.08035519 11.06249429 0.08947877 12.48046875 0.09765625 C15.93764287 0.11958445 19.39455892 0.15404432 22.8515625 0.1953125 C22.8515625 1.5153125 22.8515625 2.8353125 22.8515625 4.1953125 C21.8515625 5.1953125 20.8515625 6.1953125 19.8515625 7.1953125 C18.88015859 9.39260079 17.99045615 11.62698118 17.1640625 13.8828125 C16.72707031 15.06230469 16.29007812 16.24179688 15.83984375 17.45703125 C15.51371094 18.36066406 15.18757813 19.26429687 14.8515625 20.1953125 C15.44324219 19.71320313 16.03492188 19.23109375 16.64453125 18.734375 C17.82982422 17.78691406 17.82982422 17.78691406 19.0390625 16.8203125 C19.81636719 16.19382812 20.59367187 15.56734375 21.39453125 14.921875 C26.12752715 11.59598599 30.0760557 10.59784628 35.8515625 11.1953125 C39.33114704 12.55902846 42.19144855 14.09512258 44.1640625 17.3828125 C44.3909375 17.9809375 44.6178125 18.5790625 44.8515625 19.1953125 C45.5115625 19.5253125 46.1715625 19.8553125 46.8515625 20.1953125 C46.1915625 15.9053125 45.5315625 11.6153125 44.8515625 7.1953125 C50.79570589 9.57296986 54.30135133 12.80966593 58.8515625 17.1953125 C59.68880859 17.99388672 59.68880859 17.99388672 60.54296875 18.80859375 C62.86974684 21.26795179 63.82435133 23.04111586 64.4140625 26.3828125 C63.90724998 29.81787515 63.09939946 32.36350568 61.8515625 35.5703125 C59.95566659 40.4928708 58.73552022 44.93554887 59.8515625 50.1953125 C61.6015625 52.4453125 61.6015625 52.4453125 63.8515625 54.1953125 C66.8515625 59.55245536 66.8515625 59.55245536 66.8515625 62.1953125 C69.91556116 61.52560739 69.91556116 61.52560739 71.01953125 59.34765625 C71.35597656 58.61675781 71.69242188 57.88585937 72.0390625 57.1328125 C72.55533203 56.03259766 72.55533203 56.03259766 73.08203125 54.91015625 C73.33597656 54.34425781 73.58992187 53.77835938 73.8515625 53.1953125 C76.1615625 53.5253125 78.4715625 53.8553125 80.8515625 54.1953125 C78.79922565 51.947515 77.84488989 51.1930883 74.8515625 50.1953125 C75.3310088 45.97618503 76.01781369 43.39868072 78.8515625 40.1953125 C81.8215625 40.6903125 81.8215625 40.6903125 84.8515625 41.1953125 C84.8515625 40.5353125 84.8515625 39.8753125 84.8515625 39.1953125 C80.3196691 38.88631977 78.29570258 39.24319243 74.8515625 42.1953125 C74.1915625 42.1953125 73.5315625 42.1953125 72.8515625 42.1953125 C72.36876226 34.83260882 72.36876226 34.83260882 74.4140625 32.1328125 C78.06434411 30.72885803 80.13875046 31.00190863 83.8515625 32.1953125 C88.41745549 37.34657638 88.32582209 42.3190693 88.125 49.0234375 C87.78560676 52.96039904 86.99189495 56.41796125 85.8515625 60.1953125 C85.8515625 62.35165286 86.2980861 64.11977602 86.8515625 66.1953125 C86.1915625 66.1953125 85.5315625 66.1953125 84.8515625 66.1953125 C84.8515625 65.5353125 84.8515625 64.8753125 84.8515625 64.1953125 C83.8615625 64.1953125 82.8715625 64.1953125 81.8515625 64.1953125 C82.87070941 67.25275324 83.63023975 68.99296027 86.0390625 71.1953125 C87.8515625 73.1953125 87.8515625 73.1953125 87.7265625 75.8828125 C86.8515625 78.1953125 86.8515625 78.1953125 84.8515625 79.1953125 C84.6040625 78.0815625 84.3565625 76.9678125 84.1015625 75.8203125 C83.24150911 72.14916052 83.24150911 72.14916052 80.7265625 70.7578125 C80.1078125 70.5721875 79.4890625 70.3865625 78.8515625 70.1953125 C78.2740625 70.6903125 77.6965625 71.1853125 77.1015625 71.6953125 C74.8515625 73.1953125 74.8515625 73.1953125 70.8515625 73.1953125 C70.8515625 71.8753125 70.8515625 70.5553125 70.8515625 69.1953125 C69.8615625 69.5253125 68.8715625 69.8553125 67.8515625 70.1953125 C67.04943622 72.06918466 67.04943622 72.06918466 66.6640625 74.2578125 C66.50550781 74.99128906 66.34695312 75.72476563 66.18359375 76.48046875 C66.07402344 77.04636719 65.96445313 77.61226563 65.8515625 78.1953125 C66.84736328 77.97875 66.84736328 77.97875 67.86328125 77.7578125 C68.74628906 77.5721875 69.62929687 77.3865625 70.5390625 77.1953125 C71.40917969 77.0096875 72.27929688 76.8240625 73.17578125 76.6328125 C75.78869214 76.20559203 78.20969288 76.11915049 80.8515625 76.1953125 C80.8515625 77.8453125 80.8515625 79.4953125 80.8515625 81.1953125 C81.5115625 81.1953125 82.1715625 81.1953125 82.8515625 81.1953125 C82.8515625 81.8553125 82.8515625 82.5153125 82.8515625 83.1953125 C78.8701842 84.5224386 75.00111023 84.26447163 70.8515625 84.1953125 C70.8515625 84.8553125 70.8515625 85.5153125 70.8515625 86.1953125 C65.4065625 87.1853125 65.4065625 87.1853125 59.8515625 88.1953125 C59.8515625 88.8553125 59.8515625 89.5153125 59.8515625 90.1953125 C54.73843675 94.66426492 49.11659578 98.20496364 42.9765625 101.0703125 C38.18836607 103.32503889 34.35965635 106.00558291 30.2890625 109.3203125 C22.41290403 115.63711298 14.76146496 119.02388623 4.53515625 118.57421875 C-3.18097947 117.48474981 -9.25323578 113.6324201 -15.62109375 109.375 C-18.48187489 107.53872902 -21.44212114 105.95982869 -24.45703125 104.390625 C-25.90287598 103.63265625 -25.90287598 103.63265625 -27.37792969 102.859375 C-29.30428521 101.85708503 -31.23827826 100.869297 -33.18066406 99.8984375 C-40.97295151 95.81899448 -46.86941324 90.82323676 -50.8046875 82.83203125 C-51.083125 81.85878906 -51.3615625 80.88554687 -51.6484375 79.8828125 C-51.9475 78.89667969 -52.2465625 77.91054687 -52.5546875 76.89453125 C-53.1484375 74.1953125 -53.1484375 74.1953125 -53.1484375 70.1953125 C-54.1384375 70.1953125 -55.1284375 70.1953125 -56.1484375 70.1953125 C-56.1484375 71.8453125 -56.1484375 73.4953125 -56.1484375 75.1953125 C-61.04610411 74.7755125 -63.01134505 72.88139612 -66.1484375 69.1953125 C-71.60554831 61.92992829 -74.84686631 53.55326459 -74.50390625 44.375 C-73.89429305 40.63693224 -72.57429345 37.13029871 -70.1484375 34.1953125 C-68.2109375 33.37890625 -68.2109375 33.37890625 -66.1484375 33.1953125 C-62.8984375 34.7578125 -62.8984375 34.7578125 -60.1484375 37.1953125 C-59.7734375 40.4453125 -59.7734375 40.4453125 -60.1484375 43.1953125 C-61.23125 42.669375 -61.23125 42.669375 -62.3359375 42.1328125 C-65.460708 41.09122233 -67.03005746 41.30434678 -70.1484375 42.1953125 C-70.1484375 42.8553125 -70.1484375 43.5153125 -70.1484375 44.1953125 C-69.5709375 43.9478125 -68.9934375 43.7003125 -68.3984375 43.4453125 C-66.1484375 43.1953125 -66.1484375 43.1953125 -63.9609375 44.8203125 C-62.01362826 47.3719591 -61.49896385 49.04057531 -61.1484375 52.1953125 C-61.7878125 52.4634375 -62.4271875 52.7315625 -63.0859375 53.0078125 C-65.47975436 54.08199002 -65.47975436 54.08199002 -66.1484375 57.1953125 C-64.4984375 56.5353125 -62.8484375 55.8753125 -61.1484375 55.1953125 C-57.2734375 60.8203125 -57.2734375 60.8203125 -56.1484375 64.1953125 C-55.1584375 64.1953125 -54.1684375 64.1953125 -53.1484375 64.1953125 C-52.6946875 63.3909375 -52.2409375 62.5865625 -51.7734375 61.7578125 C-50.1484375 59.1953125 -50.1484375 59.1953125 -47.546875 58.53515625 C-46.75539063 58.42300781 -45.96390625 58.31085938 -45.1484375 58.1953125 C-45.38719409 52.13089511 -46.12881587 46.79430765 -48.2109375 41.0703125 C-49.97797227 36.05505206 -51.37043337 31.49413942 -50.1484375 26.1953125 C-47.43034775 22.07934802 -44.17952473 19.02796839 -40.1484375 16.1953125 C-39.4884375 16.1953125 -38.8284375 16.1953125 -38.1484375 16.1953125 C-38.1484375 18.1753125 -38.1484375 20.1553125 -38.1484375 22.1953125 C-37.4265625 21.4528125 -36.7046875 20.7103125 -35.9609375 19.9453125 C-35.0328125 19.0378125 -34.1046875 18.1303125 -33.1484375 17.1953125 C-32.4059375 16.4321875 -31.6634375 15.6690625 -30.8984375 14.8828125 C-26.95492661 12.46293082 -23.66054557 12.42646792 -19.1484375 13.1953125 C-14.12347513 15.10133271 -10.14068979 18.68992025 -6.1484375 22.1953125 C-8.5527268 16.27189584 -11.25784174 11.27470141 -15.1484375 6.1953125 C-14.5234375 4.3203125 -14.5234375 4.3203125 -13.1484375 2.1953125 C-8.67110389 0.294206 -4.83309592 -0.04130851 0 0 Z " fill="#F5F5F5" transform="translate(121.1484375,80.8046875)"/>
<path d="M0 0 C1.17304688 -0.020625 2.34609375 -0.04125 3.5546875 -0.0625 C14.33406376 -0.11040834 23.4643376 1.83180749 32.8125 7.25 C33.48998291 7.63808838 34.16746582 8.02617676 34.86547852 8.42602539 C41.73772566 12.51925142 47.30697462 17.55153772 52.875 23.25 C53.66261719 24.01699219 54.45023438 24.78398437 55.26171875 25.57421875 C70.04960887 40.77503425 79.67851136 62.83007289 80.25 84 C80.0524827 91.04192109 79.17385172 97.44029234 74.625 103 C71.875 105.25 71.875 105.25 70.10375977 106.43066406 C67.25439707 108.48692844 65.20886445 110.04684279 64.24658203 113.51464844 C64.03362806 116.11401471 64.00307092 118.6427886 64.0625 121.25 C64.07038539 131.97413313 64.07038539 131.97413313 61.875 137.25 C60.885 136.92 59.895 136.59 58.875 136.25 C58.875 133.61 58.875 130.97 58.875 128.25 C58.215 128.25 57.555 128.25 56.875 128.25 C56.875 128.91 56.875 129.57 56.875 130.25 C55.885 129.92 54.895 129.59 53.875 129.25 C53.35116383 124.14259734 54.76714168 121.0237921 56.9375 116.5625 C57.88918885 114.21500083 58.16468058 112.38793009 58.3125 109.875 C58.498125 108.67875 58.68375 107.4825 58.875 106.25 C59.69742188 105.85683594 60.51984375 105.46367188 61.3671875 105.05859375 C64.31638097 103.37290322 64.31638097 103.37290322 64.57421875 99.37109375 C64.60650682 97.81022487 64.60067104 96.2482361 64.5625 94.6875 C64.54888428 93.87555176 64.53526855 93.06360352 64.52124023 92.22705078 C64.11106281 82.88173276 60.39368092 77.43994962 53.75 71.0625 C44.10441232 63.08881419 33.70935547 58.75827204 21.875 55.25 C21.75 49.5 21.75 49.5 22.875 47.25 C23.72771846 38.18682098 23.2951004 30.77235571 17.875 23.25 C13.54425018 18.19949176 7.73252985 15.61041155 1.19921875 15 C-8.73801763 14.78008882 -16.50145717 16.56885084 -24.125 23.25 C-28.93143617 29.23290694 -31.45905962 33.84660156 -31.42578125 41.51171875 C-31.02198608 45.18782803 -29.72224685 48.0010146 -28 51.2421875 C-27.125 53.25 -27.125 53.25 -27.125 57.25 C-28.72631836 58.6027832 -28.72631836 58.6027832 -30.96484375 59.80078125 C-31.77663086 60.2484082 -32.58841797 60.69603516 -33.42480469 61.15722656 C-34.29524414 61.6209668 -35.16568359 62.08470703 -36.0625 62.5625 C-54.2448153 72.47101719 -54.2448153 72.47101719 -65.68359375 89.0234375 C-66.22943565 91.77679927 -66.29480378 94.38087964 -66.3125 97.1875 C-66.32667969 98.20714844 -66.34085938 99.22679688 -66.35546875 100.27734375 C-66.11097534 103.43089435 -65.74730124 105.5266775 -64.125 108.25 C-61.58609074 108.91820776 -61.58609074 108.91820776 -59.125 109.25 C-58.45254163 112.83227157 -57.78804461 116.4159751 -57.125 120 C-56.93421875 121.01578125 -56.7434375 122.0315625 -56.546875 123.078125 C-56.27617188 124.54765625 -56.27617188 124.54765625 -56 126.046875 C-55.83242187 126.94760742 -55.66484375 127.84833984 -55.4921875 128.77636719 C-55.125 131.25 -55.125 131.25 -55.125 135.25 C-56.775 135.25 -58.425 135.25 -60.125 135.25 C-60.125 136.24 -60.125 137.23 -60.125 138.25 C-60.785 138.25 -61.445 138.25 -62.125 138.25 C-63.55185733 132.73281831 -64.23334364 127.7043689 -64.4375 122 C-64.72444105 116.71236508 -64.72444105 116.71236508 -67.3125 112.1875 C-68.7046875 111.2284375 -68.7046875 111.2284375 -70.125 110.25 C-76.79788847 105.52337067 -80.01207919 99.39463392 -81.74609375 91.37890625 C-84.38347408 69.60012638 -77.29362273 51.90234116 -64.1484375 34.73046875 C-46.85020237 13.5251033 -27.98235128 0.12061358 0 0 Z " fill="#F9F9F9" transform="translate(128.125,0.75)"/>
<path d="M0 0 C5.73968155 4.98303803 9.6753063 10.61663506 10.2421875 18.26953125 C10.36835547 24.85129388 10.00786364 30.72542613 8 37 C9.155 37.268125 10.31 37.53625 11.5 37.8125 C26.28911103 41.56805359 40.28330915 49.23314607 49.1875 62 C52.54773105 68.76933819 51.87658974 77.68047568 51 85 C49.65820312 86.74462891 49.65820312 86.74462891 48 88 C47.01 88 46.02 88 45 88 C45.0825 89.134375 45.165 90.26875 45.25 91.4375 C45.28151594 95.88912679 43.82822605 98.94230131 41.890625 102.87890625 C40.72493542 105.65508802 40.69527213 108.02890328 41 111 C41.66 111.33 42.32 111.66 43 112 C43 111.34 43 110.68 43 110 C43.66 110 44.32 110 45 110 C45.33 112.64 45.66 115.28 46 118 C46.66 118 47.32 118 48 118 C48.84125423 114.743532 49.08006116 111.65667714 49.140625 108.3125 C49.15996094 107.44882813 49.17929688 106.58515625 49.19921875 105.6953125 C49.23306865 103.89866388 49.25130195 102.10165308 49.25390625 100.3046875 C49.4620706 92.96415533 49.4620706 92.96415533 52.546875 89.875 C53.35640625 89.25625 54.1659375 88.6375 55 88 C55.66 88.33 56.32 88.66 57 89 C55.35 90.65 53.7 92.3 52 94 C52.33 94.66 52.66 95.32 53 96 C52.83219837 98.69565202 52.38844355 101.32405554 52 104 C53.299375 102.9790625 53.299375 102.9790625 54.625 101.9375 C58 100 58 100 61.375 100.25 C62.24125 100.4975 63.1075 100.745 64 101 C64 101.66 64 102.32 64 103 C61.03 102.505 61.03 102.505 58 102 C56.26337666 105.22515763 55.1094072 108.51329166 54 112 C55.65 112.33 57.3 112.66 59 113 C59.33 113.99 59.66 114.98 60 116 C57.69 116 55.38 116 53 116 C51.68 118.64 50.36 121.28 49 124 C48.01 124 47.02 124 46 124 C45.67386719 123.38511719 45.34773437 122.77023438 45.01171875 122.13671875 C44.57472656 121.32847656 44.13773438 120.52023438 43.6875 119.6875 C43.04361328 118.48673828 43.04361328 118.48673828 42.38671875 117.26171875 C41.12589303 114.9829185 41.12589303 114.9829185 39.359375 113.45703125 C37.11136949 111.04753109 37.54142389 108.76121954 37.62890625 105.6015625 C38.05054131 102.64567882 38.92304403 100.15745564 40 97.375 C42.41096424 91.35325355 42.41096424 91.35325355 42 85 C37.2100446 78.14465099 31.18235423 73.17697196 24 69 C24.495 70.2684375 24.495 70.2684375 25 71.5625 C26.06105954 75.20989216 26.15109013 78.22274664 26 82 C24.515 81.505 24.515 81.505 23 81 C22.731875 80.38125 22.46375 79.7625 22.1875 79.125 C20.41324758 75.95002199 18.35605446 75.26643564 15 74 C9.65467362 73.30708732 6.36070012 74.48072933 1.796875 77.02734375 C0 78 0 78 -3 79 C-3.495 80.485 -3.495 80.485 -4 82 C-4.66 82 -5.32 82 -6 82 C-5.53262113 76.07986759 -3.03791739 71.02533998 0 66 C0.66 65.67 1.32 65.34 2 65 C2 64.34 2 63.68 2 63 C-2.14425088 62.92534606 -6.28813624 62.87116279 -10.43286133 62.83520508 C-11.84015734 62.82020123 -13.24740724 62.79979137 -14.65454102 62.77368164 C-16.68777907 62.73692335 -18.72039432 62.72019016 -20.75390625 62.70703125 C-21.97408447 62.6913208 -23.1942627 62.67561035 -24.45141602 62.65942383 C-28.59683032 63.05728093 -31.27742067 64.18986188 -35 66 C-32.9304611 70.24958717 -30.57329636 74.33129325 -28.2421875 78.44140625 C-27 81 -27 81 -27 84 C-29.82537064 82.80465088 -31.67075074 81.43875959 -34.0625 79.4375 C-38.20636472 75.99897396 -41.50880749 75.60216863 -46.7109375 75.64453125 C-50.62080937 76.25169565 -52.30183583 78.17021807 -55 81 C-55.66 81.99 -56.32 82.98 -57 84 C-57.66 84 -58.32 84 -59 84 C-59 82.02 -59 80.04 -59 78 C-60.64936048 79.28715972 -62.29439047 80.57987019 -63.9375 81.875 C-65.31228516 82.95394531 -65.31228516 82.95394531 -66.71484375 84.0546875 C-69.93674093 86.79743074 -69.9629944 87.54113062 -70.3125 91.875 C-70.29302565 95.92566539 -69.39696575 99.08394101 -68 102.875 C-65.8622984 108.73109804 -65.56206563 113.82025948 -66 120 C-66.78761719 120.27585937 -67.57523438 120.55171875 -68.38671875 120.8359375 C-71.63558299 122.28311469 -72.43883496 123.87766993 -74 127 C-75.859375 126.75390625 -75.859375 126.75390625 -78 126 C-79.265625 124.15234375 -79.265625 124.15234375 -80.25 121.9375 C-80.58515625 121.20402344 -80.9203125 120.47054687 -81.265625 119.71484375 C-81.50796875 119.14894531 -81.7503125 118.58304687 -82 118 C-84.475 118.495 -84.475 118.495 -87 119 C-86.67 117.68 -86.34 116.36 -86 115 C-84.02 114.505 -84.02 114.505 -82 114 C-83.13016255 110.47307328 -83.13016255 110.47307328 -85 107 C-87.86512043 105.92557984 -89.94466328 106 -93 106 C-92.01 104.68 -91.02 103.36 -90 102 C-86.62294375 102.53725895 -83.303314 103.11064623 -80 104 C-79.67 101.69 -79.34 99.38 -79 97 C-78.67 97 -78.34 97 -78 97 C-77.93941406 97.90621094 -77.87882812 98.81242187 -77.81640625 99.74609375 C-77.35047577 106.52000612 -76.81358547 113.25886322 -76 120 C-75.34 120 -74.68 120 -74 120 C-74 119.01 -74 118.02 -74 117 C-72.35 117 -70.7 117 -69 117 C-69.12117188 116.42556152 -69.24234375 115.85112305 -69.3671875 115.25927734 C-69.91764355 112.63243758 -70.45888816 110.00377982 -71 107.375 C-71.19078125 106.47136719 -71.3815625 105.56773438 -71.578125 104.63671875 C-72.52210398 100.01796444 -73.25214768 95.74352828 -73 91 C-73.78375 91.04125 -74.5675 91.0825 -75.375 91.125 C-78 91 -78 91 -80 89 C-82.13390613 82.83082266 -81.68590658 75.42084676 -79.9375 69.25 C-72.79830544 57.27457687 -61.77034898 49.9034744 -50 43 C-49.23429687 42.53980469 -48.46859375 42.07960937 -47.6796875 41.60546875 C-43.2789311 39 -43.2789311 39 -41 39 C-41.3609375 38.17757812 -41.721875 37.35515625 -42.09375 36.5078125 C-47.63094129 23.18779124 -47.63094129 23.18779124 -46 16 C-42.60424391 7.95301462 -37.3546239 2.57722639 -29.9375 -1.8125 C-20.35453392 -5.68646501 -8.90315503 -5.41469565 0 0 Z " fill="#151515" transform="translate(142,19)"/>
<path d="M0 0 C5.42710039 2.02186093 8.21545031 4.93895748 11.09765625 9.8828125 C13.18506564 14.78054363 12.30108416 20.95829887 11 26 C10.34 26 9.68 26 9 26 C8.98582031 24.97519531 8.97164063 23.95039062 8.95703125 22.89453125 C8.91010984 21.53381029 8.86186256 20.17313459 8.8125 18.8125 C8.80669922 18.13896484 8.80089844 17.46542969 8.79492188 16.77148438 C8.62253422 12.84487659 8.10990476 11.13255824 5.57421875 8.07421875 C1.9258745 5.13450585 -0.29118384 4.67340646 -5.0234375 4.69921875 C-7.97488672 5.14835233 -9.25851006 6.67801341 -11 9 C-10.46375 8.649375 -9.9275 8.29875 -9.375 7.9375 C-6.11512309 6.65070648 -4.32888575 6.9597232 -1 8 C4.02688237 13.29860574 4.2634672 16.96122797 4.23828125 24.046875 C4 27 4 27 2.4375 30 C0.10911666 34.85923479 1.29835513 39.77570445 2 45 C9.164168 42.29265514 9.164168 42.29265514 15.9375 38.75 C19 37 19 37 22 37 C24.97193848 40.54346511 25.82500185 44.34645133 26.19140625 48.85546875 C26 51 26 51 23.9375 53.8125 C21 56 21 56 17.9375 57.9375 C14.50679058 60.34629598 13.10879752 62.43126574 11 66 C11.66 66.66 12.32 67.32 13 68 C10.66839031 68.65272927 8.33552926 69.29903574 6 69.9375 C5.31462158 70.12497803 4.62924316 70.31245605 3.9230957 70.50561523 C0.34322837 71.45987879 -3.12022096 72.24738899 -6.8125 72.5625 C-7.864375 72.706875 -8.91625 72.85125 -10 73 C-10.66 73.99 -11.32 74.98 -12 76 C-14.14453125 76.328125 -14.14453125 76.328125 -16.8125 76.25 C-17.78445312 76.22421875 -18.75640625 76.1984375 -19.7578125 76.171875 C-25.18109593 75.88437564 -30.59066457 75.48159425 -36 75 C-33.53299648 77.70195624 -31.69135891 78.90789532 -27.9152832 79.11352539 C-27.13499756 79.10828857 -26.35471191 79.10305176 -25.55078125 79.09765625 C-24.70322266 79.09443359 -23.85566406 79.09121094 -22.98242188 79.08789062 C-21.66081055 79.07532227 -21.66081055 79.07532227 -20.3125 79.0625 C-19.41982422 79.05798828 -18.52714844 79.05347656 -17.60742188 79.04882812 C-15.40488013 79.03704983 -13.20247401 79.02060164 -11 79 C-11 78.34 -11 77.68 -11 77 C-9.68 77.33 -8.36 77.66 -7 78 C-11.75680694 82.32436995 -16.08110129 83.73464557 -22.4375 84.3125 C-29.78191703 83.66825289 -34.64924249 80.9494507 -40 76 C-39.67 74.35 -39.34 72.7 -39 71 C-39.64066406 71.03480469 -40.28132813 71.06960937 -40.94140625 71.10546875 C-46.81269445 71.28921995 -50.91614706 71.05031176 -56 68 C-57.36176581 66.01924973 -58.69593116 64.01920337 -60 62 C-61.98320018 60.96708324 -63.98347806 59.9662501 -66 59 C-68.94555337 56.59704856 -69.88760923 54.92185692 -70.34765625 51.1484375 C-70.60401486 41.9864037 -70.60401486 41.9864037 -67 38 C-64.44923847 39.17727455 -62.40294284 40.44130312 -60.125 42.125 C-56.69642282 44.18214631 -54.9170714 44.37305442 -51 44 C-49.04429752 37.96764312 -49.04429752 37.96764312 -49.7578125 31.87109375 C-50.50611621 30.57595271 -51.26273369 29.28558167 -52.02734375 28 C-54.05337616 23.83402171 -53.68769378 19.30399319 -52.38671875 14.9453125 C-51.26183157 12.16482215 -50.12817516 10.12817516 -48 8 C-43.57933435 7.38316293 -40.18324512 8.17051946 -36.4140625 10.4453125 C-33.49950737 13.64971289 -34.0543135 17.87217375 -34 22 C-28.06 22 -22.12 22 -16 22 C-15.9175 20.515 -15.835 19.03 -15.75 17.5 C-15.10773827 11.11356649 -12.91445521 6.64062787 -9.1875 1.5 C-5.97728743 -0.70128862 -3.81531838 -0.46046946 0 0 Z " fill="#080808" transform="translate(150,99)"/>
<path d="M0 0 C0.74765625 -0.02835938 1.4953125 -0.05671875 2.265625 -0.0859375 C6.19826645 0.64370352 7.88756083 1.49634304 10.75 4.375 C11.65515986 8.61638689 11.63462033 12.80066091 11.625 17.125 C11.645625 18.29933594 11.66625 19.47367188 11.6875 20.68359375 C11.73461939 23.58143612 11.75443918 26.4768526 11.75 29.375 C15.89020334 29.42539102 20.03023234 29.46117395 24.1706543 29.48486328 C25.57172768 29.49476486 26.97278133 29.50828969 28.3737793 29.52587891 C38.35809983 29.64785767 47.8810172 28.95610498 57.75 27.375 C57.48509766 25.54775391 57.48509766 25.54775391 57.21484375 23.68359375 C55.71326193 11.00751063 55.71326193 11.00751063 58.4765625 6.65625 C62.5013344 3.47950696 66.53323229 1.50876327 71.75 1.375 C74.76653261 6.60423276 75.84765398 11.7061679 76.9375 17.5625 C77.11474609 18.46419922 77.29199219 19.36589844 77.47460938 20.29492188 C78.75 26.90824083 78.75 26.90824083 78.75 30.375 C74 28.5 74 28.5 71.75 27.375 C68.8342309 26.95797878 68.8342309 26.95797878 65.75 27.375 C63.44724444 29.2420991 62.07176129 30.73147741 60.75 33.375 C60.37831004 38.95034937 60.52457285 42.59247009 63.75 47.375 C66.40398565 49.52688026 68.28049896 50.2831411 71.625 50.9375 C76.12530887 50.1274444 78.57377464 47.53243113 81.75 44.375 C84.39275351 45.38202818 85.55953343 46.06213149 87.05078125 48.51171875 C89.17335465 53.8632262 90.39283583 57.6250746 88.75 63.375 C88.09 64.365 87.43 65.355 86.75 66.375 C84.84846306 66.74414349 84.84846306 66.74414349 82.48532104 66.73576355 C81.59067139 66.73988754 80.69602173 66.74401154 79.77426147 66.7482605 C78.79027374 66.73747467 77.80628601 66.72668884 76.79248047 66.71557617 C75.75830994 66.71601425 74.7241394 66.71645233 73.65863037 66.71690369 C70.22795975 66.71480761 66.79777312 66.69143766 63.3671875 66.66796875 C60.99350247 66.66237572 58.61981399 66.65810424 56.24612427 66.65510559 C49.98901867 66.64363382 43.73212094 66.61414648 37.47509766 66.58099365 C31.09410413 66.55034303 24.71307712 66.53661097 18.33203125 66.52148438 C5.80459865 66.48927911 -6.72268964 66.43862867 -19.25 66.375 C-19.25 65.385 -19.25 64.395 -19.25 63.375 C-16.86435923 63.95084432 -14.58317216 64.59727595 -12.25 65.375 C-13.095625 64.653125 -13.94125 63.93125 -14.8125 63.1875 C-17.25 60.375 -17.25 60.375 -17.3125 58.125 C-15.77040867 54.1337048 -14.04710973 50.25907586 -12.25 46.375 C-8.95 46.375 -5.65 46.375 -2.25 46.375 C-3.24 45.055 -4.23 43.735 -5.25 42.375 C-5.79833255 37.34861831 -5.2251695 34.46585807 -2.25 30.375 C-5.36785113 31.02144661 -5.36785113 31.02144661 -6.25 33.375 C-6.91 33.375 -7.57 33.375 -8.25 33.375 C-8.37050023 26.32095498 -8.04230025 19.39659214 -7.375 12.375 C-7.29636719 11.43527344 -7.21773437 10.49554688 -7.13671875 9.52734375 C-7.05292969 8.63144531 -6.96914062 7.73554688 -6.8828125 6.8125 C-6.80949707 6.00683594 -6.73618164 5.20117188 -6.66064453 4.37109375 C-5.83925724 0.37842876 -3.62894111 0.06171669 0 0 Z " fill="#FAFAFA" transform="translate(91.25,187.625)"/>
<path d="M0 0 C3.51512616 2.69243706 5.24915463 4.68070397 6 9 C6.09124674 10.87324188 6.13005514 12.74954391 6.125 14.625 C6.12886719 16.06746094 6.12886719 16.06746094 6.1328125 17.5390625 C6 20 6 20 5 22 C4.77866002 23.81036822 4.60838518 25.62712099 4.46484375 27.4453125 C4.37783203 28.52167969 4.29082031 29.59804687 4.20117188 30.70703125 C4.11416016 31.83496094 4.02714844 32.96289062 3.9375 34.125 C3.84662109 35.26066406 3.75574219 36.39632812 3.66210938 37.56640625 C3.43770774 40.37733201 3.21716834 43.18850766 3 46 C5.475 45.505 5.475 45.505 8 45 C9.15147661 46.26572233 10.29599314 47.53777906 11.4375 48.8125 C12.07558594 49.52019531 12.71367187 50.22789062 13.37109375 50.95703125 C17.06984086 55.59598745 16.52608401 61.36126862 16 67 C13.27158327 77.4927112 7.27111232 86.36784498 -2 92 C-10.97558556 96.66730449 -22.82939125 100.81942912 -33 99 C-37.4449719 97.32135936 -40.84903144 94.52908479 -44 91 C-43.505 90.01 -43.505 90.01 -43 89 C-40.03 90.65 -37.06 92.3 -34 94 C-34 93.34 -34 92.68 -34 92 C-34.53625 91.938125 -35.0725 91.87625 -35.625 91.8125 C-40.42076927 90.17184209 -43.79350113 86.82838111 -46.375 82.5625 C-50.05800845 74.45988141 -48.88841529 63.26559092 -46 55 C-44.75 52.4375 -44.75 52.4375 -43 51 C-39.49542954 50.4780427 -37.74396615 50.48147814 -34.80859375 52.52734375 C-34.21175781 53.01332031 -33.61492187 53.49929687 -33 54 C-33.02320313 53.22914063 -33.04640625 52.45828125 -33.0703125 51.6640625 C-33.08835938 50.66117188 -33.10640625 49.65828125 -33.125 48.625 C-33.14820313 47.62726563 -33.17140625 46.62953125 -33.1953125 45.6015625 C-33 43 -33 43 -31 41 C-26.39093285 40.54664913 -24.10279166 40.32873551 -20.125 42.75 C-18.1662961 44.82392178 -17.1866211 46.45571331 -16 49 C-15.99589111 47.90123535 -15.99178223 46.8024707 -15.98754883 45.67041016 C-15.96559689 41.55113312 -15.91114415 37.43278966 -15.84741211 33.31396484 C-15.82437101 31.53931704 -15.80986934 29.76453518 -15.80444336 27.98974609 C-15.73225448 8.25441618 -15.73225448 8.25441618 -10 1 C-6.77834396 -0.61082802 -3.48360411 -0.6006214 0 0 Z " fill="#F8F8F8" transform="translate(230,140)"/>
<path d="M0 0 C4.07079173 1.22681395 5.93980034 4.04690595 7.99609375 7.6015625 C10.98463891 16.22008651 10.22352301 25.73597943 10.12109375 34.7265625 C10.11104079 36.27082751 10.10191904 37.81509888 10.09375 39.359375 C10.07192711 43.10690499 10.03752581 46.85419196 9.99609375 50.6015625 C10.98609375 50.6015625 11.97609375 50.6015625 12.99609375 50.6015625 C13.09921875 49.5084375 13.20234375 48.4153125 13.30859375 47.2890625 C13.99609375 43.6015625 13.99609375 43.6015625 15.05859375 41.7265625 C18.11929095 39.94938348 21.46856219 39.29011058 24.99609375 39.6015625 C27.203125 40.76953125 27.203125 40.76953125 28.99609375 42.6015625 C29.60546875 45.08203125 29.60546875 45.08203125 29.74609375 47.7890625 C29.8028125 48.69011719 29.85953125 49.59117187 29.91796875 50.51953125 C29.94375 51.20660156 29.96953125 51.89367187 29.99609375 52.6015625 C30.38796875 51.9415625 30.77984375 51.2815625 31.18359375 50.6015625 C32.99609375 48.6015625 32.99609375 48.6015625 35.48046875 48.08984375 C37.99609375 48.6015625 37.99609375 48.6015625 39.76171875 50.39453125 C40.2515625 51.18472656 40.74140625 51.97492188 41.24609375 52.7890625 C41.74625 53.56636719 42.24640625 54.34367187 42.76171875 55.14453125 C45.81726325 61.22661191 46.0606114 68.795774 44.2421875 75.296875 C41.6421292 82.12840072 38.73414441 87.23253717 31.99609375 90.6015625 C31.33609375 90.6015625 30.67609375 90.6015625 29.99609375 90.6015625 C29.99609375 91.2615625 29.99609375 91.9215625 29.99609375 92.6015625 C32.96609375 91.6115625 35.93609375 90.6215625 38.99609375 89.6015625 C38.99609375 88.9415625 38.99609375 88.2815625 38.99609375 87.6015625 C39.65609375 87.6015625 40.31609375 87.6015625 40.99609375 87.6015625 C39.14679234 92.30522043 36.18860427 93.5798354 31.74609375 95.60546875 C21.60527553 99.27863444 10.46188652 94.74047031 0.99609375 90.6015625 C-8.73291411 84.83109521 -15.0417273 76.53568849 -18.00390625 65.6015625 C-18.7515546 60.14306793 -19.21437786 54.77359761 -16.12890625 49.9765625 C-12.22918098 45.61804602 -12.22918098 45.61804602 -9.44140625 45.4140625 C-7.00390625 45.6015625 -7.00390625 45.6015625 -6.00390625 46.6015625 C-6.37262195 38.56356017 -7.863466 30.86399489 -9.63183594 23.03613281 C-12.78818771 8.38950228 -12.78818771 8.38950228 -9.00390625 2.4765625 C-5.731709 0.43143922 -3.81290977 -0.27389522 0 0 Z " fill="#F9F9F9" transform="translate(27.00390625,145.3984375)"/>
<path d="M0 0 C1.06476563 0.37382813 2.12953125 0.74765625 3.2265625 1.1328125 C16.84914148 6.3404313 27.60566358 14.64898202 33.91015625 27.91015625 C35.48024289 32.36154884 35.55560118 36.34941235 35 41 C34.01 41.495 34.01 41.495 33 42 C31.33183358 40.64768127 29.66555858 39.29302933 28 37.9375 C26.99066406 37.11636719 25.98132813 36.29523438 24.94140625 35.44921875 C22.53264879 33.44352031 20.23099431 31.38337356 17.9375 29.25 C5.47724854 18.41608658 -11.94250008 15.96559145 -27.93017578 16.85400391 C-35.78929978 17.40835118 -43.65368879 17.99388606 -50.91796875 21.23828125 C-53.70299091 22.2571918 -56.51663888 22.62302963 -59.4375 23.125 C-65.73267296 24.49888879 -68.73707855 26.96719773 -72.9453125 31.72265625 C-75.42717211 34.47346263 -78.14288407 36.5035479 -81.14453125 38.6484375 C-82.97080714 39.9787353 -84.66838561 41.39565871 -86.375 42.875 C-89 45 -89 45 -91 45 C-93.21968557 40.56062887 -92.73755321 34.35295508 -91.28125 29.70703125 C-84.65708409 15.89778215 -70.24316103 6.93149349 -56.25 1.8125 C-55.36828125 1.50957031 -54.4865625 1.20664062 -53.578125 0.89453125 C-51.92320482 0.3203241 -50.28431641 -0.30380528 -48.671875 -0.98828125 C-33.39138639 -6.77431422 -15.15641 -5.508149 0 0 Z " fill="#F3F3F3" transform="translate(156,60)"/>
<path d="M0 0 C5.94414339 2.37765736 9.44978883 5.61435343 14 10 C14.55816406 10.53238281 15.11632812 11.06476563 15.69140625 11.61328125 C18.01818434 14.07263929 18.97278883 15.84580336 19.5625 19.1875 C19.05568748 22.62256265 18.24783696 25.16819318 17 28.375 C15.10410409 33.2975583 13.88395772 37.74023637 15 43 C16.75 45.25 16.75 45.25 19 47 C22 52.35714286 22 52.35714286 22 55 C25.06399866 54.33029489 25.06399866 54.33029489 26.16796875 52.15234375 C26.50441406 51.42144531 26.84085938 50.69054687 27.1875 49.9375 C27.53167969 49.20402344 27.87585938 48.47054687 28.23046875 47.71484375 C28.48441406 47.14894531 28.73835938 46.58304688 29 46 C31.31 46.33 33.62 46.66 36 47 C33.94766315 44.7522025 32.99332739 43.9977758 30 43 C30.4794463 38.78087253 31.16625119 36.20336822 34 33 C35.98 33.33 37.96 33.66 40 34 C40 33.34 40 32.68 40 32 C35.4681066 31.69100727 33.44414008 32.04787993 30 35 C29.34 35 28.68 35 28 35 C27.51719976 27.63729632 27.51719976 27.63729632 29.5625 24.9375 C33.21278161 23.53354553 35.28718796 23.80659613 39 25 C43.56589299 30.15126388 43.47425959 35.1237568 43.2734375 41.828125 C42.93404426 45.76508654 42.14033245 49.22264875 41 53 C41 55.15634036 41.4465236 56.92446352 42 59 C41.34 59 40.68 59 40 59 C40 58.34 40 57.68 40 57 C39.01 57 38.02 57 37 57 C38.01914691 60.05744074 38.77867725 61.79764777 41.1875 64 C43 66 43 66 42.875 68.6875 C42 71 42 71 40 72 C39.7525 70.88625 39.505 69.7725 39.25 68.625 C38.38994661 64.95384802 38.38994661 64.95384802 35.875 63.5625 C34.946875 63.2840625 34.946875 63.2840625 34 63 C33.4225 63.495 32.845 63.99 32.25 64.5 C30 66 30 66 26 66 C26 64.68 26 63.36 26 62 C25.01 62.33 24.02 62.66 23 63 C22.12852687 65.00945454 22.12852687 65.00945454 21.44140625 67.37109375 C20.23948536 70.25558958 19.60510393 71.65936216 16.85498047 73.20751953 C14.22492905 74.00761477 11.64289113 74.57602953 8.9375 75.0625 C8.02677734 75.26037109 7.11605469 75.45824219 6.17773438 75.66210938 C2.71808845 76.39381047 -0.45675709 77 -4 77 C-2.07360157 70.33169774 -2.07360157 70.33169774 1 68 C1.84884766 67.59394531 1.84884766 67.59394531 2.71484375 67.1796875 C7.03689791 65.08928114 7.03689791 65.08928114 9.125 60.8125 C8.97031366 56.09456658 7.69708427 52.35696477 6 48 C4.89140625 48.5775 3.7828125 49.155 2.640625 49.75 C1.17730017 50.50042299 -0.28625355 51.25039974 -1.75 52 C-2.47960937 52.3815625 -3.20921875 52.763125 -3.9609375 53.15625 C-5.02441406 53.69765625 -5.02441406 53.69765625 -6.109375 54.25 C-6.75874023 54.58515625 -7.40810547 54.9203125 -8.07714844 55.265625 C-10 56 -10 56 -14 56 C-15.6913785 50.12992168 -16.55591633 46.45627216 -13.9765625 40.7265625 C-12.10851943 35.51098624 -11.93712859 29.21277038 -13.6875 23.921875 C-15.34685689 21.07331234 -16.84186384 20.05383358 -19.9375 19 C-23.15730724 19 -25.14006036 19.57003018 -28 21 C-25.25 16.125 -25.25 16.125 -23 15 C-16.89534886 14.49127907 -13.88047174 14.93294022 -9 19 C-6.76642696 22.35035956 -6.60796222 24.0475874 -6.3125 28 C-6.22613281 29.051875 -6.13976562 30.10375 -6.05078125 31.1875 C-6 34 -6 34 -7 37 C-6.34 37 -5.68 37 -5 37 C-4.15131378 26.10565821 -4.15131378 26.10565821 -8.51953125 16.484375 C-12.97915548 12.01298395 -18.00957584 11.51641588 -24 11 C-22.55962541 8.11925083 -21.56614732 6.33025261 -18.75 4.6875 C-13.75319176 3.43829794 -9.77897224 3.3253972 -5.1875 5.75 C-2.1933462 7.86352033 -1.24598872 8.71512066 0 12 C0.66 12.33 1.32 12.66 2 13 C1.34 8.71 0.68 4.42 0 0 Z " fill="#F7F7F7" transform="translate(166,88)"/>
<path d="M0 0 C4.81036196 3.63272148 6.95280533 6.92627093 8 13 C8.605568 19.35846397 7.70854001 23.7316917 4 29 C-0.52186184 33.95837821 -5.79446697 37.54602942 -12.60546875 38.28125 C-20.99479271 38.55896555 -26.81319039 37.02875081 -33.3125 31.6875 C-38.36805691 26.90011605 -40.14965011 23.1057215 -40.5 16.125 C-40.31704341 10.21184298 -39.13904267 6.28209714 -35 2 C-24.23441015 -6.7542252 -11.77131918 -7.95925496 0 0 Z " fill="#FBFBFB" transform="translate(142,128)"/>
<path d="M0 0 C5.59383418 4.15857409 9.30572221 9.48760665 10.78125 16.32421875 C11.53315264 22.96602544 10.49370312 27.18595799 7.78125 33.32421875 C6.8339502 33.3492749 5.88665039 33.37433105 4.91064453 33.40014648 C1.35082063 33.49604644 -2.20888208 33.5952264 -5.76855469 33.6965332 C-7.3007457 33.73948732 -8.83297254 33.78118452 -10.36523438 33.8215332 C-12.58474823 33.88020834 -14.80410127 33.94277729 -17.0234375 34.0078125 C-17.74110794 34.02833176 -18.45877838 34.04885101 -19.19819641 34.06999207 C-23.97447283 34.22699584 -28.65937305 34.6205685 -33.38305664 35.33886719 C-35.21875 35.32421875 -35.21875 35.32421875 -37.78125 33.13671875 C-40.98497678 26.86855766 -40.81541765 20.24210452 -40.21875 13.32421875 C-38.71875 9.94921875 -38.71875 9.94921875 -36.21875 7.32421875 C-35.67089844 6.72996094 -35.12304688 6.13570312 -34.55859375 5.5234375 C-25.96780215 -2.99679318 -10.82530193 -6.32215379 0 0 Z " fill="#F0F0F0" transform="translate(139.21875,20.67578125)"/>
<path d="M0 0 C5.42710039 2.02186093 8.21545031 4.93895748 11.09765625 9.8828125 C13.18506564 14.78054363 12.30108416 20.95829887 11 26 C10.34 26 9.68 26 9 26 C8.98582031 24.97519531 8.97164062 23.95039062 8.95703125 22.89453125 C8.91010984 21.53381029 8.86186256 20.17313459 8.8125 18.8125 C8.80669922 18.13896484 8.80089844 17.46542969 8.79492188 16.77148438 C8.62253422 12.84487659 8.10990476 11.13255824 5.57421875 8.07421875 C1.9258745 5.13450585 -0.29118384 4.67340646 -5.0234375 4.69921875 C-7.97488672 5.14835233 -9.25851006 6.67801341 -11 9 C-10.46375 8.649375 -9.9275 8.29875 -9.375 7.9375 C-6.11512309 6.65070648 -4.32888575 6.9597232 -1 8 C4.02574604 13.29740799 4.26349155 16.95887416 4.23828125 24.04296875 C4 27 4 27 2.4375 30.0625 C0.48795792 34.04634686 1.15011993 37.0081819 1.7734375 41.31640625 C2.00910819 44.10788496 1.67516288 46.294456 1 49 C0.67 49 0.34 49 0 49 C-0.12375 48.07058594 -0.2475 47.14117187 -0.375 46.18359375 C-1.61118046 38.77423711 -2.64119914 33.76011801 -8.90625 29.265625 C-16.4611788 24.69883968 -23.65349686 23.63322386 -32.33984375 25.50390625 C-38.13621543 27.45086411 -42.41724738 30.59858224 -45.8125 35.75 C-47.30016698 39.82150962 -47.72255264 43.69478239 -48 48 C-48.33 48 -48.66 48 -49 48 C-49.82370906 44.33907084 -49.97559345 41.86243582 -49.3125 38.125 C-48.78401185 34.7284969 -49.24474547 33.03961723 -50.9375 30.0625 C-53.41804639 25.66986576 -53.75626349 21.96464741 -53 17 C-51.94388513 13.46167885 -50.64710454 10.64710454 -48 8 C-43.57933435 7.38316293 -40.18324512 8.17051946 -36.4140625 10.4453125 C-33.49950737 13.64971289 -34.0543135 17.87217375 -34 22 C-28.06 22 -22.12 22 -16 22 C-15.9175 20.515 -15.835 19.03 -15.75 17.5 C-15.10773827 11.11356649 -12.91445521 6.64062787 -9.1875 1.5 C-5.97728743 -0.70128862 -3.81531838 -0.46046946 0 0 Z " fill="#141414" transform="translate(150,99)"/>
<path d="M0 0 C5.73968155 4.98303803 9.6753063 10.61663506 10.2421875 18.26953125 C10.36835547 24.85129388 10.00786364 30.72542613 8 37 C9.155 37.268125 10.31 37.53625 11.5 37.8125 C25.63197952 41.40118131 39.11477957 48.42640717 47.80078125 60.50390625 C50.07187325 64.38715369 51 66.39977635 51 71 C50.01 71.33 49.02 71.66 48 72 C47.6596875 71.2265625 47.319375 70.453125 46.96875 69.65625 C40.80628576 56.41350771 31.44485519 48.42277549 17.88232422 43.18164062 C0.39233355 37.05088471 -20.75972693 34.20256847 -38.20703125 41.984375 C-39.53688518 42.64548785 -40.85451386 43.33198712 -42.15625 44.046875 C-44 45 -44 45 -47.75 46.25 C-54.22115362 48.56572098 -60.90234031 52.86737801 -65.73046875 57.75 C-67 59 -67 59 -69 59 C-69.2475 59.556875 -69.495 60.11375 -69.75 60.6875 C-71 63 -71 63 -73 65.4375 C-77.4661001 71.15969076 -77.10604266 76.03216384 -76.77734375 83.0390625 C-77 86 -77 86 -78.50390625 87.8984375 C-78.99761719 88.26195313 -79.49132812 88.62546875 -80 89 C-81.89154753 82.60839987 -81.74183538 75.61824251 -79.9375 69.25 C-72.79830544 57.27457687 -61.77034898 49.9034744 -50 43 C-49.23429687 42.53980469 -48.46859375 42.07960937 -47.6796875 41.60546875 C-43.2789311 39 -43.2789311 39 -41 39 C-41.3609375 38.17757812 -41.721875 37.35515625 -42.09375 36.5078125 C-47.63094129 23.18779124 -47.63094129 23.18779124 -46 16 C-42.60424391 7.95301462 -37.3546239 2.57722639 -29.9375 -1.8125 C-20.35453392 -5.68646501 -8.90315503 -5.41469565 0 0 Z M-41 11 C-44.32348839 15.99555398 -43.46815761 22.25633505 -43 28 C-42.05378301 31.65056621 -40.69912815 34.30087185 -38 37 C-36.12973495 37.03895687 -36.12973495 37.03895687 -33.9453125 36.66015625 C-29.23222136 36.08437559 -24.54799274 35.82018805 -19.8046875 35.68359375 C-18.71936737 35.65176498 -18.71936737 35.65176498 -17.61212158 35.61929321 C-15.36648041 35.55595968 -13.12075521 35.49663693 -10.875 35.4375 C-9.33071997 35.39420698 -7.786449 35.35058967 -6.2421875 35.30664062 C-2.49488861 35.20069059 1.25251353 35.0991213 5 35 C8.50431108 27.047485 9.35059994 21.14892117 6.5 12.8125 C3.8388294 6.79882266 -0.52745628 2.66659803 -6.43359375 -0.16796875 C-19.60465824 -4.43803989 -32.2764941 1.14977905 -41 11 Z " fill="#191919" transform="translate(142,19)"/>
<path d="M0 0 C2.27734375 0.15625 2.27734375 0.15625 5 1 C7.86990782 4.6753913 9.87364728 8.857885 12 13 C12.67869141 14.31484375 12.67869141 14.31484375 13.37109375 15.65625 C16.10485208 21.33187282 16.10485208 21.33187282 15.6640625 24.140625 C14.7965162 26.56975463 14.1661445 27.55590366 12 29 C8.3125 29.1875 8.3125 29.1875 5 29 C4.66226563 28.14535156 4.32453125 27.29070313 3.9765625 26.41015625 C3.53054687 25.30542969 3.08453125 24.20070313 2.625 23.0625 C1.96371094 21.40927734 1.96371094 21.40927734 1.2890625 19.72265625 C0.28958568 16.88769814 0.28958568 16.88769814 -2 16 C-2.2475 16.78375 -2.495 17.5675 -2.75 18.375 C-4.15389099 21.32317108 -5.00675737 21.9024777 -8 23 C-9.23697917 21.47005208 -10.47395833 19.94010417 -11.7109375 18.41015625 C-12.9666391 16.86733563 -12.9666391 16.86733563 -15 16 C-15.10957031 16.83144531 -15.21914062 17.66289063 -15.33203125 18.51953125 C-15.49058594 19.60621094 -15.64914063 20.69289063 -15.8125 21.8125 C-15.96332031 22.89144531 -16.11414063 23.97039063 -16.26953125 25.08203125 C-17.02257267 28.09016997 -17.48959644 29.24150475 -20 31 C-23.0625 31.3125 -23.0625 31.3125 -26 31 C-28 29 -28 29 -28.4375 26.5 C-27.90403761 22.23230091 -26.31272237 19.29114509 -24.296875 15.53125 C-23.1273723 13.24860618 -22.25216329 11.05088625 -21.4375 8.625 C-20.03826095 5.09648415 -19.10525848 3.16427106 -16 1 C-14 0.8125 -14 0.8125 -12 2 C-10.43067489 4.25724844 -9.25384352 6.53709308 -8 9 C-7.34 9 -6.68 9 -6 9 C-4.60699818 7.04109119 -3.27754554 5.0360882 -2 3 C-1.34 2.01 -0.68 1.02 0 0 Z " fill="#0B0B0B" transform="translate(131,22)"/>
<path d="M0 0 C2.86721458 0.92249512 5.67186217 1.85545054 8.4296875 3.0703125 C19.09537303 7.6705283 30.71830496 6.61167072 42 5 C42.02701408 7.10409639 42.04640223 9.20829178 42.0625 11.3125 C42.07410156 12.48425781 42.08570313 13.65601563 42.09765625 14.86328125 C42 18 42 18 41 21 C33.01106563 21.72982108 25.08166997 22.10619956 17.0625 22.125 C16.27061279 22.12951172 15.47872559 22.13402344 14.6628418 22.13867188 C10.00622708 22.12688671 5.59328673 21.77064464 1 21 C-0.10087193 13.98194143 -0.09733092 7.09434233 0 0 Z " fill="#F4F4F4" transform="translate(104,194)"/>
<path d="M0 0 C0.495 1.485 0.495 1.485 1 3 C1.99580078 2.7834375 1.99580078 2.7834375 3.01171875 2.5625 C3.89472656 2.376875 4.77773437 2.19125 5.6875 2 C6.55761719 1.814375 7.42773438 1.62875 8.32421875 1.4375 C10.93712964 1.01027953 13.35813038 0.92383799 16 1 C16 2.65 16 4.3 16 6 C16.66 6 17.32 6 18 6 C18 6.66 18 7.32 18 8 C14.0186217 9.3271261 10.14954773 9.06915913 6 9 C6 9.66 6 10.32 6 11 C5.21753906 11.12117187 4.43507813 11.24234375 3.62890625 11.3671875 C2.11103516 11.61855469 2.11103516 11.61855469 0.5625 11.875 C-0.44683594 12.03742188 -1.45617187 12.19984375 -2.49609375 12.3671875 C-3.32238281 12.57601562 -4.14867187 12.78484375 -5 13 C-5.33 13.66 -5.66 14.32 -6 15 C-7.79736328 15.32177734 -7.79736328 15.32177734 -10.1953125 15.4609375 C-18.08806707 16.09876423 -25.78465052 17.80518582 -33.5390625 19.359375 C-34.69921875 19.58367187 -35.859375 19.80796875 -37.0546875 20.0390625 C-38.10124512 20.24740723 -39.14780273 20.45575195 -40.22607422 20.67041016 C-42.87173005 20.98475934 -44.50721897 20.85733728 -47 20 C-47 20.66 -47 21.32 -47 22 C-50.77659251 23.18857226 -54.43520166 23.20281679 -58.375 23.25 C-59.66148438 23.27578125 -60.94796875 23.3015625 -62.2734375 23.328125 C-66.21078501 22.98144031 -68.61975473 21.98837957 -72 20 C-72 19.34 -72 18.68 -72 18 C-63.92970447 17.88452677 -56.02332397 18.09958689 -48 19 C-47.78601563 18.36320312 -47.57203125 17.72640625 -47.3515625 17.0703125 C-46 15 -46 15 -43.4609375 14.2421875 C-42.44257813 14.12101563 -41.42421875 13.99984375 -40.375 13.875 C-39.30378906 13.72675781 -38.23257813 13.57851562 -37.12890625 13.42578125 C-36.09636719 13.28527344 -35.06382812 13.14476562 -34 13 C-31.20682308 12.49645347 -28.71432963 11.87063403 -26 11 C-25.67 10.01 -25.34 9.02 -25 8 C-23.54207031 7.81050781 -23.54207031 7.81050781 -22.0546875 7.6171875 C-17.69638569 6.99143636 -13.41829422 6.09469232 -9.125 5.125 C-7.96871094 4.88330078 -7.96871094 4.88330078 -6.7890625 4.63671875 C-4.83353287 4.19259318 -2.91142327 3.60646909 -1 3 C-0.67 2.01 -0.34 1.02 0 0 Z " fill="#4D4D4D" transform="translate(186,156)"/>
<path d="M0 0 C4.11991749 0.46640575 7.43184262 1.33302581 10.3125 4.375 C11.11756625 6.98830407 11.49217477 9.41060671 11.73046875 12.1328125 C12.08853516 14.55986962 12.08853516 14.55986962 14.36328125 15.6796875 C15.00652344 15.90914062 15.64976563 16.13859375 16.3125 16.375 C15.49265625 16.75011719 14.6728125 17.12523438 13.828125 17.51171875 C12.75046875 18.02347656 11.6728125 18.53523438 10.5625 19.0625 C9.49515625 19.56136719 8.4278125 20.06023437 7.328125 20.57421875 C2.96872998 23.17743261 0.18695328 26.6610284 -1.6875 31.375 C-2.13561137 33.73064596 -2.13561137 33.73064596 -2.3125 36.125 C-2.38726562 36.92421875 -2.46203125 37.7234375 -2.5390625 38.546875 C-2.58804688 39.15015625 -2.63703125 39.7534375 -2.6875 40.375 C-3.0175 40.375 -3.3475 40.375 -3.6875 40.375 C-4.51120906 36.71407084 -4.66309345 34.23743582 -4 30.5 C-3.47151185 27.1034969 -3.93224547 25.41461723 -5.625 22.4375 C-8.10554639 18.04486576 -8.44376349 14.33964741 -7.6875 9.375 C-6.36135738 4.93199988 -5.0166883 0.70000302 0 0 Z " fill="#0F0F0F" transform="translate(104.6875,106.625)"/>
<path d="M0 0 C3.32635882 1.52572656 4.95563002 2.93344504 7 6 C10.73639216 4.75453595 11.18756513 3.36595047 13 0 C13.99 0.33 14.98 0.66 16 1 C17.16796875 3.50390625 17.16796875 3.50390625 18.1875 6.5625 C18.53167969 7.57441406 18.87585938 8.58632813 19.23046875 9.62890625 C19.48441406 10.41136719 19.73835938 11.19382812 20 12 C24.75404012 12.49544197 24.75404012 12.49544197 28.8125 10.5 C29.4003125 9.7575 29.4003125 9.7575 30 9 C30.66 9 31.32 9 32 9 C32.04254356 10.99954746 32.04080783 13.00041636 32 15 C30.07902584 16.92097416 26.58303452 16.22249488 24.03515625 16.28125 C22.97414955 16.30886414 22.97414955 16.30886414 21.89170837 16.33703613 C19.61539268 16.39594235 17.33899588 16.44856191 15.0625 16.5 C6.00253683 16.70908359 -2.99070754 16.9264001 -12 18 C-12.33 16.68 -12.66 15.36 -13 14 C-11.72125 14.04125 -10.4425 14.0825 -9.125 14.125 C-6.98128508 14.24212873 -6.98128508 14.24212873 -5 14 C-2.42853943 11.42853943 -2.19882003 9.3949583 -1.375 5.875 C-1.11460938 4.77929688 -0.85421875 3.68359375 -0.5859375 2.5546875 C-0.39257812 1.71164063 -0.19921875 0.86859375 0 0 Z " fill="#EFEFEF" transform="translate(116,38)"/>
<path d="M0 0 C-0.99 1.32 -1.98 2.64 -3 4 C-0.9304611 8.24958717 1.42670364 12.33129325 3.7578125 16.44140625 C5 19 5 19 5 22 C2.17462936 20.80465088 0.32924926 19.43875959 -2.0625 17.4375 C-6.20636472 13.99897396 -9.50880749 13.60216863 -14.7109375 13.64453125 C-18.62080937 14.25169565 -20.30183583 16.17021807 -23 19 C-23.66 19.99 -24.32 20.98 -25 22 C-25.66 22 -26.32 22 -27 22 C-27 20.02 -27 18.04 -27 16 C-27.99 15.67 -28.98 15.34 -30 15 C-29.21753906 14.22914062 -28.43507813 13.45828125 -27.62890625 12.6640625 C-26.60663943 11.65117427 -25.58451119 10.63814616 -24.5625 9.625 C-24.04623047 9.11710937 -23.52996094 8.60921875 -22.99804688 8.0859375 C-20.142867 5.31431064 -20.142867 5.31431064 -18 2 C-15.52827746 1.33045225 -13.13440391 0.78592843 -10.625 0.3125 C-9.93921875 0.17005859 -9.2534375 0.02761719 -8.546875 -0.11914062 C-5.22524757 -0.7686028 -3.26296327 -1.08765442 0 0 Z " fill="#0B0B0B" transform="translate(110,81)"/>
<path d="M0 0 C5.28137429 0.51525603 8.57221156 2.25477117 13 5 C12.83886719 5.83144531 12.67773438 6.66289062 12.51171875 7.51953125 C11.14155349 16.8387469 11.48132952 26.49058504 13.5625 35.66796875 C14.03002063 38.16002066 14.07189177 40.4703083 14 43 C11.01282347 42.78663025 10.06558604 42.07404875 8.0625 39.8125 C4.71064752 34.55312736 3.9667776 28.14059947 2.75 22.125 C2.3478125 20.26294922 2.3478125 20.26294922 1.9375 18.36328125 C0.63711108 12.13335679 -0.35096692 6.3652636 0 0 Z " fill="#F2F2F2" transform="translate(168,189)"/>
<path d="M0 0 C-0.38375219 9.29084248 -0.81018852 18.57090636 -1.875 27.8125 C-2.01679687 29.05644531 -2.15859375 30.30039063 -2.3046875 31.58203125 C-3.23223986 36.14162851 -4.69154812 39.69154812 -8 43 C-8.99 43 -9.98 43 -11 43 C-10.83886719 42.06285156 -10.67773438 41.12570313 -10.51171875 40.16015625 C-9.81515924 35.25958271 -9.8159778 30.37945537 -9.8125 25.4375 C-9.80025391 24.51775391 -9.78800781 23.59800781 -9.77539062 22.65039062 C-9.76461221 17.65280105 -10.14365159 13.71002911 -12 9 C-12.125 6.125 -12.125 6.125 -12 4 C-5.16964286 -0.28571429 -5.16964286 -0.28571429 0 0 Z " fill="#F3F3F3" transform="translate(83,190)"/>
<path d="M0 0 C0.93199219 0.31195313 1.86398438 0.62390625 2.82421875 0.9453125 C8.66432615 3.02295908 13.26195268 6.02956928 18 10 C17.67 10.66 17.34 11.32 17 12 C16.21238281 11.54109375 15.42476563 11.0821875 14.61328125 10.609375 C3.17959267 4.16862262 -8.39527383 -0.09754965 -21.65234375 -0.23828125 C-22.38892715 -0.246353 -23.12551056 -0.25442474 -23.88441467 -0.26274109 C-25.44350876 -0.27653456 -27.00263243 -0.28727777 -28.56176758 -0.29516602 C-30.12956831 -0.30660511 -31.69733264 -0.3269267 -33.26489258 -0.35668945 C-51.17871413 -0.69597356 -68.53280939 3.03715969 -82.25 15.4375 C-83.27867188 16.45650391 -83.27867188 16.45650391 -84.328125 17.49609375 C-86 19 -86 19 -88 19 C-84.23214329 10.21484187 -74.41787744 4.65099704 -66 1 C-46.04987653 -5.83941801 -20.00551837 -7.76653324 0 0 Z " fill="#272727" transform="translate(159,74)"/>
<path d="M0 0 C0.66 0.33 1.32 0.66 2 1 C0.68 2.32 -0.64 3.64 -2 5 C-1.505 5.99 -1.505 5.99 -1 7 C-1.65484375 7.30550781 -2.3096875 7.61101562 -2.984375 7.92578125 C-5.34486028 10.35488529 -5.30447229 10.96430848 -5.390625 14.23046875 C-5.36407407 15.88326401 -5.31642461 17.53582663 -5.25 19.1875 C-5.23195312 20.03248047 -5.21390625 20.87746094 -5.1953125 21.74804688 C-5.14820586 23.83251573 -5.07646233 25.91640144 -5 28 C-13.47549614 30.64859254 -21.54552069 31.16338904 -30.375 31.125 C-31.25671875 31.12886719 -32.1384375 31.13273437 -33.046875 31.13671875 C-39.08580787 31.12786401 -45.00377415 30.70857151 -51 30 C-51.83211276 24.96145894 -52.1078534 20.1874338 -52.0625 15.0625 C-52.05798828 14.37865234 -52.05347656 13.69480469 -52.04882812 12.99023438 C-52.0371956 11.32678396 -52.01926694 9.6633795 -52 8 C-51.34 8 -50.68 8 -50 8 C-49.67 14.6 -49.34 21.2 -49 28 C-35.8 28 -22.6 28 -9 28 C-8.67 22.72 -8.34 17.44 -8 12 C-9.155 12.33 -10.31 12.66 -11.5 13 C-16.03605486 14.00801219 -20.49392538 14.22429561 -25.125 14.25 C-25.79337891 14.25902344 -26.46175781 14.26804688 -27.15039062 14.27734375 C-31.81760243 14.24975432 -35.61273135 13.43583338 -40 12 C-39.34 11.01 -38.68 10.02 -38 9 C-36.6078125 9.495 -36.6078125 9.495 -35.1875 10 C-26.05696674 12.53523861 -17.38207787 11.27104408 -9 7 C-5.82656589 4.8490657 -2.87835191 2.53010687 0 0 Z " fill="#1F1F1F" transform="translate(154,187)"/>
<path d="M0 0 C2.92937654 1.81310142 5.43647949 3.87295899 7 7 C7.45269417 11.52694175 7.69261379 14.70504096 5 18.5 C1.80420562 21.16316198 0.19922302 21.65773559 -3.9296875 21.34375 C-7.06976738 20.82237825 -9.97929736 20.00690088 -13 19 C-10.50935112 18.31292445 -8.62113708 18 -6 18 C-6.495 17.484375 -6.99 16.96875 -7.5 16.4375 C-9.56178923 13.0870925 -9.40800889 10.87608446 -9 7 C-7.5 4.0625 -7.5 4.0625 -6 2 C-6.66 1.67 -7.32 1.34 -8 1 C-5.09704195 -0.45147903 -3.22738221 -0.37239025 0 0 Z " fill="#232323" transform="translate(95,216)"/>
<path d="M0 0 C5.75536668 4.99665544 9.67994799 10.6328387 10.2421875 18.3046875 C10.36091439 24.54444501 10.23148656 30.14234779 8 36 C7.34 35.34 6.68 34.68 6 34 C6.30077325 31.994845 6.6435691 29.99601306 7 28 C7.69726244 20.64705059 6.79158753 14.43017769 3 8 C-0.94259209 3.47816452 -5.44873608 0.42593041 -11.5078125 -0.30078125 C-22.36641589 -0.34940186 -30.17419355 1.41122324 -38.22265625 8.96484375 C-41.53308682 12.75546865 -42.26852146 15.75930046 -42.625 20.75 C-42.69976562 21.73484375 -42.77453125 22.7196875 -42.8515625 23.734375 C-42.90054688 24.48203125 -42.94953125 25.2296875 -43 26 C-43.99 26 -44.98 26 -46 26 C-46.9473774 17.75430784 -45.11215064 12.50535213 -40 6 C-29.72438596 -4.91927666 -13.07975769 -7.95481004 0 0 Z " fill="#373737" transform="translate(142,19)"/>
<path d="M0 0 C0.66 0.33 1.32 0.66 2 1 C0.35 2.65 -1.3 4.3 -3 6 C-2.67 6.66 -2.34 7.32 -2 8 C-2.16780163 10.69565202 -2.61155645 13.32405554 -3 16 C-2.13375 15.319375 -1.2675 14.63875 -0.375 13.9375 C3 12 3 12 6.375 12.25 C7.24125 12.4975 8.1075 12.745 9 13 C9 13.66 9 14.32 9 15 C6.03 14.505 6.03 14.505 3 14 C1.26337666 17.22515763 0.1094072 20.51329166 -1 24 C0.65 24.33 2.3 24.66 4 25 C4.33 25.99 4.66 26.98 5 28 C2.69 28 0.38 28 -2 28 C-3.32 30.64 -4.64 33.28 -6 36 C-6.99 36 -7.98 36 -9 36 C-9.32613281 35.38511719 -9.65226563 34.77023438 -9.98828125 34.13671875 C-10.64376953 32.92435547 -10.64376953 32.92435547 -11.3125 31.6875 C-11.74175781 30.88699219 -12.17101562 30.08648437 -12.61328125 29.26171875 C-13.87410697 26.9829185 -13.87410697 26.9829185 -15.640625 25.45703125 C-17.88288301 23.05369148 -17.45935642 20.78040282 -17.37109375 17.62890625 C-16.6942337 12.83388713 -14.86144839 8.44587005 -13 4 C-12.01 4.66 -11.02 5.32 -10 6 C-10.4752588 7.64696604 -10.95531891 9.29254728 -11.4375 10.9375 C-11.70433594 11.85402344 -11.97117188 12.77054688 -12.24609375 13.71484375 C-13 16 -13 16 -14 17 C-14.04080783 18.99958364 -14.04254356 21.00045254 -14 23 C-13.34 23.33 -12.68 23.66 -12 24 C-12 23.34 -12 22.68 -12 22 C-11.34 22 -10.68 22 -10 22 C-9.67 24.64 -9.34 27.28 -9 30 C-8.34 30 -7.68 30 -7 30 C-6.15874577 26.743532 -5.91993884 23.65667714 -5.859375 20.3125 C-5.84003906 19.44882813 -5.82070312 18.58515625 -5.80078125 17.6953125 C-5.76693135 15.89866388 -5.74869805 14.10165308 -5.74609375 12.3046875 C-5.5379294 4.96415533 -5.5379294 4.96415533 -2.453125 1.875 C-1.64359375 1.25625 -0.8340625 0.6375 0 0 Z " fill="#1A1A1A" transform="translate(197,107)"/>
<path d="M0 0 C0 2.3125 0 2.3125 -1 5 C-2.80326497 5.71450122 -4.61786238 6.40820234 -6.46875 6.98828125 C-12.28163265 9.31164021 -18.32189062 13.29166365 -22.73046875 17.75 C-24 19 -24 19 -26 19 C-26.37125 19.8353125 -26.37125 19.8353125 -26.75 20.6875 C-28 23 -28 23 -30 25.4375 C-34.4661001 31.15969076 -34.10604266 36.03216384 -33.77734375 43.0390625 C-34 46 -34 46 -35.50390625 47.8984375 C-35.99761719 48.26195312 -36.49132813 48.62546875 -37 49 C-38.89154753 42.60839987 -38.74183538 35.61824251 -36.9375 29.25 C-29.79267615 17.26513418 -18.7638511 9.92877274 -7 3 C-5.62908203 2.14148437 -5.62908203 2.14148437 -4.23046875 1.265625 C-2 0 -2 0 0 0 Z " fill="#2A2A2A" transform="translate(99,59)"/>
<path d="M0 0 C0.33 0.99 0.66 1.98 1 3 C1.66386719 2.855625 2.32773438 2.71125 3.01171875 2.5625 C3.89472656 2.376875 4.77773437 2.19125 5.6875 2 C6.55761719 1.814375 7.42773438 1.62875 8.32421875 1.4375 C10.93712964 1.01027953 13.35813038 0.92383799 16 1 C16 2.65 16 4.3 16 6 C16.66 6 17.32 6 18 6 C18 6.66 18 7.32 18 8 C14.0186217 9.3271261 10.14954773 9.06915913 6 9 C6 9.66 6 10.32 6 11 C3.83264747 10.53556732 2.1100283 10.06449935 0.1875 8.9375 C-6.20762251 6.19673321 -13.49724611 8.93385793 -19.890625 10.5390625 C-23 11 -23 11 -26 9 C-25.27458008 8.85739746 -24.54916016 8.71479492 -23.80175781 8.56787109 C-19.42796627 7.68137413 -15.09050498 6.66080232 -10.75 5.625 C-9.82703125 5.41617188 -8.9040625 5.20734375 -7.953125 4.9921875 C-6.63828125 4.67507812 -6.63828125 4.67507812 -5.296875 4.3515625 C-4.49604492 4.16416504 -3.69521484 3.97676758 -2.87011719 3.78369141 C-2.25297852 3.52507324 -1.63583984 3.26645508 -1 3 C-0.67 2.01 -0.34 1.02 0 0 Z " fill="#4D4D4D" transform="translate(186,156)"/>
<path d="M0 0 C14.18006491 4.0964632 28.32006108 11.55588612 36 24.6875 C37.65952719 27.86581709 37.8125 29.02562639 37.8125 32.8125 C36.8225 33.1425 35.8325 33.4725 34.8125 33.8125 C34.4721875 33.0390625 34.131875 32.265625 33.78125 31.46875 C27.31387807 17.57078053 17.33302734 9.91021087 3.2421875 4.421875 C0.44630117 3.48330323 -2.34669919 2.60334565 -5.1875 1.8125 C-2.1875 -0.1875 -2.1875 -0.1875 0 0 Z " fill="#1C1C1C" transform="translate(155.1875,57.1875)"/>
<path d="M0 0 C0.66 0 1.32 0 2 0 C2.33 6.6 2.66 13.2 3 20 C16.2 20 29.4 20 43 20 C43.495 18.515 43.495 18.515 44 17 C44 17.66 44 18.32 44 19 C44.66 19 45.32 19 46 19 C46 16.03 46 13.06 46 10 C46.33 10 46.66 10 47 10 C47 13.3 47 16.6 47 20 C38.54050626 22.64359179 30.44272735 23.16333794 21.625 23.125 C20.74328125 23.12886719 19.8615625 23.13273437 18.953125 23.13671875 C12.91419213 23.12786401 6.99622585 22.70857151 1 22 C0.16788724 16.96145894 -0.1078534 12.1874338 -0.0625 7.0625 C-0.05798828 6.37865234 -0.05347656 5.69480469 -0.04882812 4.99023438 C-0.0371956 3.32678396 -0.01926694 1.6633795 0 0 Z " fill="#323232" transform="translate(102,195)"/>
<path d="M0 0 C14.7029606 -1.03178671 30.76555869 4.58566371 42 14 C41.67 14.66 41.34 15.32 41 16 C40.21238281 15.54109375 39.42476562 15.0821875 38.61328125 14.609375 C27.36418488 8.27260592 15.97823715 4.07169217 2.94921875 3.68359375 C2.29041214 3.66281265 1.63160553 3.64203156 0.95283508 3.62062073 C-1.13551185 3.55564511 -3.22397612 3.49648425 -5.3125 3.4375 C-6.7350378 3.39426521 -8.15756406 3.3506494 -9.58007812 3.30664062 C-13.05326297 3.20001784 -16.52657726 3.09860652 -20 3 C-20 2.67 -20 2.34 -20 2 C-10.1 1.505 -10.1 1.505 0 1 C0 0.67 0 0.34 0 0 Z " fill="#262626" transform="translate(135,70)"/>
<path d="M0 0 C0.99 0 1.98 0 3 0 C3 1.32 3 2.64 3 4 C4.0725 3.505 5.145 3.01 6.25 2.5 C9.25416808 1.11346089 10.45934895 1 14 1 C15.76953125 2.17578125 15.76953125 2.17578125 17 4 C17.07421875 6.48046875 17.07421875 6.48046875 16.6875 9.1875 C16.56761719 10.08855469 16.44773438 10.98960937 16.32421875 11.91796875 C16.21722656 12.60503906 16.11023438 13.29210937 16 14 C15.67 13.34 15.34 12.68 15 12 C14.34 12 13.68 12 13 12 C13 10.35 13 8.7 13 7 C11.2365625 7.495 11.2365625 7.495 9.4375 8 C5.4988324 8.9969533 2.04860871 9.16869203 -2 9 C-2.25 3.375 -2.25 3.375 0 0 Z " fill="#212121" transform="translate(189,150)"/>
<path d="M0 0 C1.9375 1.0625 1.9375 1.0625 3 3 C2.93273404 6.76689361 2.82032733 9.09178045 0.25 11.9375 C-2.4308537 13.20345869 -4.07167776 13.46236667 -7 13 C-9.46324069 9.30513897 -9.38991688 7.36706908 -9 3 C-6.84332735 -0.71426957 -4.0099826 -0.50124783 0 0 Z " fill="#F3F3F3" transform="translate(95,220)"/>
<path d="M0 0 C2.375 1.625 2.375 1.625 4 4 C3.85205998 7.6985004 3.64194427 9.35805573 1 12 C-2.4375 12.375 -2.4375 12.375 -6 12 C-8 10.375 -8 10.375 -9 8 C-8.875 4.875 -8.875 4.875 -8 2 C-4.75173326 -0.16551116 -3.76905843 -0.55156953 0 0 Z " fill="#ECECEC" transform="translate(165,220)"/>
<path d="M0 0 C2.9375 2 2.9375 2 5 4 C4.67 4.66 4.34 5.32 4 6 C2.9790625 5.2265625 2.9790625 5.2265625 1.9375 4.4375 C-1.90525323 2.55700374 -3.91132242 2.88490612 -8 4 C-11.3733672 6.55281842 -12.65354254 9.05230132 -14 13 C-14.96388988 20.4981666 -13.75976963 25.53789594 -10 32 C-10 32.66 -10 33.32 -10 34 C-10.66 34 -11.32 34 -12 34 C-17.49446214 26.50755163 -17.7294932 20.10325319 -17 11 C-15.77150314 6.80205073 -13.49202297 4.42641991 -10.1875 1.5625 C-6.38420138 -0.30186207 -4.18585327 -0.60885138 0 0 Z " fill="#353535" transform="translate(107,100)"/>
<path d="M0 0 C-3.6225512 2.41503413 -7.04713177 2.9582844 -11.25 3.6875 C-11.98863281 3.82994141 -12.72726563 3.97238281 -13.48828125 4.11914062 C-19.51183266 5.18680715 -24.70845619 5.52769588 -30 2 C-27.48159185 1.322781 -24.96091276 0.65808826 -22.4375 0 C-21.73302734 -0.19078125 -21.02855469 -0.3815625 -20.30273438 -0.578125 C-13.03902883 -2.45262966 -7.10368998 -2.31957224 0 0 Z " fill="#EBEBEB" transform="translate(191,165)"/>
<path d="M0 0 C0.99 0.66 1.98 1.32 3 2 C2.5247412 3.64696604 2.04468109 5.29254728 1.5625 6.9375 C1.29566406 7.85402344 1.02882812 8.77054688 0.75390625 9.71484375 C0 12 0 12 -1 13 C-1.04080783 14.99958364 -1.04254356 17.00045254 -1 19 C-0.34 19.33 0.32 19.66 1 20 C1 19.34 1 18.68 1 18 C1.66 18 2.32 18 3 18 C3.33 20.64 3.66 23.28 4 26 C5.65 26 7.3 26 9 26 C8.67 27.65 8.34 29.3 8 31 C6.68 31.33 5.36 31.66 4 32 C3.67386719 31.38511719 3.34773437 30.77023438 3.01171875 30.13671875 C2.35623047 28.92435547 2.35623047 28.92435547 1.6875 27.6875 C1.25824219 26.88699219 0.82898438 26.08648437 0.38671875 25.26171875 C-0.87410697 22.9829185 -0.87410697 22.9829185 -2.640625 21.45703125 C-4.88288301 19.05369148 -4.45935642 16.78040282 -4.37109375 13.62890625 C-3.6942337 8.83388713 -1.86144839 4.44587005 0 0 Z " fill="#1A1A1A" transform="translate(184,111)"/>
<path d="M0 0 C5.42730015 0.1356825 8.36987915 2.33566127 12.1640625 5.93359375 C18.00446174 12.50714949 18.51503947 19.14821253 18.2734375 27.734375 C17.96180616 31.45614353 17.32521016 34.52132333 16 38 C15.34 37.34 14.68 36.68 14 36 C14.30077325 33.994845 14.6435691 31.99601306 15 30 C15.6961206 22.65909181 14.8059375 16.41350401 11 10 C8.86270202 7.68913954 6.52018276 5.87113337 4 4 C2.64946454 2.68409365 1.30693833 1.35921586 0 0 Z " fill="#363636" transform="translate(134,17)"/>
<path d="M0 0 C2.07918053 2.26229017 2.80418207 4.06028091 4 7 C3.75 9.4375 3.75 9.4375 3 11 C2.01 10.34 1.02 9.68 0 9 C0.33 8.34 0.66 7.68 1 7 C-3.5318934 6.69100727 -5.55585992 7.04787993 -9 10 C-9.66 10 -10.32 10 -11 10 C-11.48280024 2.63729632 -11.48280024 2.63729632 -9.4375 -0.0625 C-5.78721839 -1.46645447 -3.71281204 -1.19340387 0 0 Z " fill="#E5E5E5" transform="translate(205,113)"/>
<path d="M0 0 C1.1823052 3.64619313 0.96614908 6.94614706 0.8125 10.75 C0.77627125 17.72765668 1.59754009 22.46428448 6.49609375 27.5546875 C8.90185934 29.67848056 10.94687465 30.98229155 14 32 C14 32.66 14 33.32 14 34 C10.51460083 33.35455571 7.97180943 31.89865603 5 30 C4.401875 30.515625 3.80375 31.03125 3.1875 31.5625 C2.465625 32.036875 1.74375 32.51125 1 33 C0.01 32.67 -0.98 32.34 -2 32 C-1.34 32 -0.68 32 0 32 C-0.15597656 31.41476563 -0.31195313 30.82953125 -0.47265625 30.2265625 C-2.58499056 20.90990917 -3.05774123 9.1732237 0 0 Z " fill="#363636" transform="translate(182,200)"/>
<path d="M0 0 C9.27075879 0.89141911 21.31077648 5.31077648 28 12 C27.01 12.66 26.02 13.32 25 14 C24.25878906 13.54109375 23.51757812 13.0821875 22.75390625 12.609375 C13.79639845 7.39055773 5.14331935 4.95577774 -5 3 C-5 2.67 -5 2.34 -5 2 C-3.35 2 -1.7 2 0 2 C0 1.34 0 0.68 0 0 Z " fill="#DCDCDC" transform="translate(148,74)"/>
<path d="M0 0 C7.74136601 -0.10920422 15.31395526 0.02840067 23 1 C23.33 1.99 23.66 2.98 24 4 C20.42687005 5.19104332 17.45446678 5.20528823 13.6875 5.25 C12.39199219 5.27578125 11.09648438 5.3015625 9.76171875 5.328125 C5.80416025 4.9829174 3.39545931 4.00042564 0 2 C0 1.34 0 0.68 0 0 Z " fill="#EBEBEB" transform="translate(114,174)"/>
<path d="M0 0 C2.76276177 0.52268466 5.3260876 1.10869587 8 2 C9.48123547 2.0806622 10.96582204 2.10761193 12.44921875 2.09765625 C13.29677734 2.09443359 14.14433594 2.09121094 15.01757812 2.08789062 C16.33918945 2.07532227 16.33918945 2.07532227 17.6875 2.0625 C18.58017578 2.05798828 19.47285156 2.05347656 20.39257812 2.04882812 C22.59511987 2.03704983 24.79752599 2.02060164 27 2 C27 1.34 27 0.68 27 0 C28.32 0.33 29.64 0.66 31 1 C26.24319306 5.32436995 21.91889871 6.73464557 15.5625 7.3125 C10.05750221 6.82960546 5.68891746 5.47780278 1.5 1.8125 C1.005 1.214375 0.51 0.61625 0 0 Z " fill="#1E1E1E" transform="translate(112,176)"/>
<path d="M0 0 C3.49971062 0.49995866 6.25505268 1.78879244 9 4 C9.3125 7.1875 9.3125 7.1875 9 10 C8.278125 9.649375 7.55625 9.29875 6.8125 8.9375 C2.67899282 7.55966427 0.0278052 8.65739827 -4 10 C-4 12.64 -4 15.28 -4 18 C-4.33 18 -4.66 18 -5 18 C-5.55797683 11.30427803 -4.61897757 6.69734622 -1 1 C-0.67 0.67 -0.34 0.34 0 0 Z " fill="#DBDBDB" transform="translate(52,114)"/>
<path d="M0 0 C0 1.65 0 3.3 0 5 C0.66 5 1.32 5 2 5 C2 5.66 2 6.32 2 7 C-0.24940295 7.08119503 -2.49964871 7.13927819 -4.75 7.1875 C-6.00296875 7.22230469 -7.2559375 7.25710937 -8.546875 7.29296875 C-12.14109357 6.98802939 -13.44725126 6.45605371 -16 4 C-14.72942818 3.52014033 -13.45853152 3.0411407 -12.1875 2.5625 C-11.47980469 2.29566406 -10.77210938 2.02882812 -10.04296875 1.75390625 C-6.48700101 0.44166577 -3.78403834 -0.10227131 0 0 Z " fill="#ECECEC" transform="translate(202,157)"/>
<path d="M0 0 C0.66 0.66 1.32 1.32 2 2 C-1.03949302 2.67684298 -4.08189165 3.33961872 -7.125 4 C-8.40890625 4.28617188 -8.40890625 4.28617188 -9.71875 4.578125 C-14.22732794 5.54920333 -18.35645604 6.24359575 -23 6 C-22.67 4.68 -22.34 3.36 -22 2 C-6.81210856 -0.92275574 -6.81210856 -0.92275574 0 0 Z " fill="#E6E6E6" transform="translate(162,169)"/>
<path d="M0 0 C3.72902092 6.92532457 4.31377451 12.95484071 4.25 20.6875 C4.25773437 21.63689453 4.26546875 22.58628906 4.2734375 23.56445312 C4.27085938 24.47517578 4.26828125 25.38589844 4.265625 26.32421875 C4.26336914 27.15010498 4.26111328 27.97599121 4.25878906 28.8269043 C4 31 4 31 2 34 C1.505 32.515 1.505 32.515 1 31 C0.34 31 -0.32 31 -1 31 C-0.67 29.88625 -0.34 28.7725 0 27.625 C1.57409424 21.26116186 1.69072852 15.02059077 -0.0625 8.6875 C-0.95778723 5.16603691 -1.0643119 3.40579807 0 0 Z " fill="#141414" transform="translate(70,195)"/>
<path d="M0 0 C0.99 0.66 1.98 1.32 3 2 C3 3.32 3 4.64 3 6 C3.2981424 7.34164079 3.62243192 8.67851173 4 10 C3.34 10 2.68 10 2 10 C2 9.34 2 8.68 2 8 C1.01 8 0.02 8 -1 8 C0.01914691 11.05744074 0.77867725 12.79764777 3.1875 15 C5 17 5 17 4.875 19.6875 C4 22 4 22 2 23 C1.62875 21.3603125 1.62875 21.3603125 1.25 19.6875 C-0.02002851 15.94091591 -0.65756352 14.89404734 -4 13 C-3.125 8.25 -3.125 8.25 -2 6 C-1.835 5.154375 -1.67 4.30875 -1.5 3.4375 C-1 1 -1 1 0 0 Z " fill="#AFAFAF" transform="translate(204,137)"/>
<path d="M0 0 C0.66 0.33 1.32 0.66 2 1 C0.68 2.32 -0.64 3.64 -2 5 C-1.67 5.66 -1.34 6.32 -1 7 C-1.96679688 7.47373047 -1.96679688 7.47373047 -2.953125 7.95703125 C-6.10831846 11.10620335 -5.6724435 14.39016483 -5.75 18.6875 C-5.77964844 19.48478516 -5.80929688 20.28207031 -5.83984375 21.10351562 C-5.91044082 23.06846749 -5.95749708 25.03423977 -6 27 C-6.66 27 -7.32 27 -8 27 C-8.06058594 25.95199219 -8.12117187 24.90398437 -8.18359375 23.82421875 C-8.26801738 22.44529952 -8.35266447 21.06639395 -8.4375 19.6875 C-8.47681641 18.99720703 -8.51613281 18.30691406 -8.55664062 17.59570312 C-8.74927415 14.52838465 -9.02322717 11.93031848 -10 9 C-6.83047153 5.73991357 -3.60062011 2.77762123 0 0 Z " fill="#141414" transform="translate(154,187)"/>
<path d="M0 0 C0.33 0 0.66 0 1 0 C1.64618593 3.70827198 2.29188591 7.41662842 2.9375 11.125 C3.11990234 12.17171875 3.30230469 13.2184375 3.49023438 14.296875 C4.34281699 19.19534968 5.19359427 24.09365775 6 29 C5.01 29 4.02 29 3 29 C-1.95744681 9.65957447 -1.95744681 9.65957447 0 0 Z " fill="#2B2B2B" transform="translate(167,189)"/>
<path d="M0 0 C0 0.66 0 1.32 0 2 C-0.85722656 1.98839844 -1.71445313 1.97679687 -2.59765625 1.96484375 C-8.50860552 1.9181959 -14.18156704 1.91750084 -20 3 C-20.66 2.01 -21.32 1.02 -22 0 C-15.01548477 -2.1085329 -6.392998 -4.26199867 0 0 Z " fill="#505050" transform="translate(135,17)"/>
<path d="M0 0 C0.66 0 1.32 0 2 0 C2.33 6.6 2.66 13.2 3 20 C5.31 20 7.62 20 10 20 C6.86501708 21.85776765 4.62528568 22.20140476 1 22 C0.16788724 16.96145894 -0.1078534 12.1874338 -0.0625 7.0625 C-0.05798828 6.37865234 -0.05347656 5.69480469 -0.04882812 4.99023438 C-0.0371956 3.32678396 -0.01926694 1.6633795 0 0 Z " fill="#404040" transform="translate(102,195)"/>
<path d="M0 0 C-1.473032 3.88344799 -3.28487074 5.22276249 -7 7 C-10.62890625 7.36328125 -10.62890625 7.36328125 -14.5625 7.3125 C-15.86316406 7.30863281 -17.16382812 7.30476562 -18.50390625 7.30078125 C-21.64935081 7.03016758 -23.38304656 6.67138757 -26 5 C-26 4.34 -26 3.68 -26 3 C-25.01 3.33 -24.02 3.66 -23 4 C-20.56637528 4.17241708 -18.12679404 4.26665768 -15.6875 4.3125 C-13.74423828 4.36857422 -13.74423828 4.36857422 -11.76171875 4.42578125 C-7.15634239 3.90450812 -4.20189332 0 0 0 Z " fill="#3F3F3F" transform="translate(143,182)"/>
<path d="M0 0 C0.98393607 3.21469189 0.98920818 5.90687223 0.8125 9.25 C0.72873692 14.93827474 2.16728979 18.13127932 5 23 C5 23.66 5 24.32 5 25 C4.34 25 3.68 25 3 25 C-1.08057499 19.43557955 -2.15212906 15.77823943 -2.1875 8.9375 C-2.20167969 7.68839844 -2.21585937 6.43929687 -2.23046875 5.15234375 C-2 2 -2 2 0 0 Z " fill="#1F1F1F" transform="translate(92,109)"/>
<path d="M0 0 C2.4375 0.1875 2.4375 0.1875 3.4375 1.1875 C3.625 3.625 3.625 3.625 3.4375 6.1875 C2.7775 6.8475 2.1175 7.5075 1.4375 8.1875 C-1.1875 7.8125 -1.1875 7.8125 -3.5625 7.1875 C-4.1875 4.8125 -4.1875 4.8125 -4.5625 2.1875 C-2.5625 0.1875 -2.5625 0.1875 0 0 Z " fill="#E3E3E3" transform="translate(143.5625,110.8125)"/>
<path d="M0 0 C9.41002278 -0.18451025 9.41002278 -0.18451025 14 1 C14 1.66 14 2.32 14 3 C2.78 3 -8.44 3 -20 3 C-20 2.67 -20 2.34 -20 2 C-10.1 1.505 -10.1 1.505 0 1 C0 0.67 0 0.34 0 0 Z " fill="#525252" transform="translate(135,70)"/>
<path d="M0 0 C0.96292969 -0.01224609 1.92585938 -0.02449219 2.91796875 -0.03710938 C3.84222656 -0.03904297 4.76648438 -0.04097656 5.71875 -0.04296875 C6.9862207 -0.04913208 6.9862207 -0.04913208 8.27929688 -0.05541992 C10.5 0.1875 10.5 0.1875 13.5 2.1875 C3.93 2.5175 -5.64 2.8475 -15.5 3.1875 C-11.28163912 -1.03086088 -5.57965039 0.00373471 0 0 Z " fill="#101010" transform="translate(124.5,69.8125)"/>
<path d="M0 0 C0.66 0 1.32 0 2 0 C2.04254356 1.99954746 2.04080783 4.00041636 2 6 C1 7 1 7 -1.31665039 7.11352539 C-2.31688232 7.10828857 -3.31711426 7.10305176 -4.34765625 7.09765625 C-5.42724609 7.09443359 -6.50683594 7.09121094 -7.61914062 7.08789062 C-8.75544922 7.07951172 -9.89175781 7.07113281 -11.0625 7.0625 C-12.20267578 7.05798828 -13.34285156 7.05347656 -14.51757812 7.04882812 C-17.34510351 7.03699747 -20.1725264 7.0205141 -23 7 C-23 6.67 -23 6.34 -23 6 C-21.75863281 5.98582031 -20.51726562 5.97164062 -19.23828125 5.95703125 C-17.59631757 5.910118 -15.95439163 5.86187068 -14.3125 5.8125 C-13.49587891 5.80669922 -12.67925781 5.80089844 -11.83789062 5.79492188 C-7.34606986 5.63125229 -5.56564269 5.4879322 -2.04296875 2.44921875 C-1.36878906 1.64097656 -0.69460937 0.83273438 0 0 Z " fill="#CECECE" transform="translate(146,47)"/>
<path d="M0 0 C5.57425454 0.13935636 8.36137776 2.59922885 12.36328125 6.11328125 C14.10107946 8.1165188 14.60534001 9.40897136 15 12 C12 12 12 12 10.60546875 10.609375 C10.13753906 9.99578125 9.66960937 9.3821875 9.1875 8.75 C6.4293589 5.33515864 3.71223579 3.29805073 0 1 C0 0.67 0 0.34 0 0 Z " fill="#202020" transform="translate(134,17)"/>
<path d="M0 0 C1.32 0 2.64 0 4 0 C3.690625 0.886875 3.38125 1.77375 3.0625 2.6875 C1.42489586 8.30877947 1.33225589 14.18552198 1 20 C0.34 20 -0.32 20 -1 20 C-1.02703562 17.41659616 -1.04685611 14.83347692 -1.0625 12.25 C-1.07087891 11.52039063 -1.07925781 10.79078125 -1.08789062 10.0390625 C-1.10391684 6.51329442 -0.95292713 3.38965084 0 0 Z " fill="#080808" transform="translate(180,196)"/>
<path d="M0 0 C1.67542976 0.28604898 3.34385343 0.61781233 5 1 C5.625 3.375 5.625 3.375 6 6 C5.34 6.66 4.68 7.32 4 8 C0.46428571 7.46428571 0.46428571 7.46428571 -1 6 C-1.125 3.5 -1.125 3.5 -1 1 C-0.67 0.67 -0.34 0.34 0 0 Z " fill="#E6E6E6" transform="translate(104,111)"/>
<path d="M0 0 C3.8345579 1.16862717 6.67974265 1.0001422 10.65625 0.625 C12.52410156 0.45871094 12.52410156 0.45871094 14.4296875 0.2890625 C15.37070313 0.19367188 16.31171875 0.09828125 17.28125 0 C17.28125 0.99 17.28125 1.98 17.28125 3 C9.36125 3.495 9.36125 3.495 1.28125 4 C1.28125 3.34 1.28125 2.68 1.28125 2 C-1.68875 1.67 -4.65875 1.34 -7.71875 1 C-7.71875 0.67 -7.71875 0.34 -7.71875 0 C-4.62371426 -0.91030463 -3.07419738 -1.13073927 0 0 Z " fill="#363636" transform="translate(162.71875,168)"/>
<path d="M0 0 C0.66 0 1.32 0 2 0 C5.18482809 5.55141971 4.5660349 11.93161477 3 18 C2.34 18 1.68 18 1 18 C0.67 12.06 0.34 6.12 0 0 Z " fill="#424242" transform="translate(158,107)"/>
<path d="M0 0 C-1 2 -1 2 -3.58203125 2.88671875 C-4.64808594 3.15097656 -5.71414062 3.41523437 -6.8125 3.6875 C-7.87082031 3.95949219 -8.92914063 4.23148437 -10.01953125 4.51171875 C-12.83268294 4.97258895 -14.35965663 4.9525694 -17 4 C-15.58521865 3.35004703 -14.16808513 2.70521278 -12.75 2.0625 C-11.96109375 1.70285156 -11.1721875 1.34320313 -10.359375 0.97265625 C-6.48382459 -0.62504582 -4.04859085 -1.30133277 0 0 Z " fill="#2E2E2E" transform="translate(111,72)"/>
<path d="M0 0 C0 0.33 0 0.66 0 1 C-1.98 1.33 -3.96 1.66 -6 2 C-3.03 2.495 -3.03 2.495 0 3 C0 3.33 0 3.66 0 4 C-0.93972656 4.16435547 -0.93972656 4.16435547 -1.8984375 4.33203125 C-3.12433594 4.56986328 -3.12433594 4.56986328 -4.375 4.8125 C-5.59316406 5.03873047 -5.59316406 5.03873047 -6.8359375 5.26953125 C-9.35820641 5.87544942 -9.35820641 5.87544942 -11 9 C-10.67 9.66 -10.34 10.32 -10 11 C-11.32 11 -12.64 11 -14 11 C-11.9431662 2.9596497 -8.53463649 -0.83672907 0 0 Z " fill="#3C3C3C" transform="translate(150,99)"/>
<path d="M0 0 C0.99 0 1.98 0 3 0 C2.53439347 4.74918662 1.83067342 8.10782405 -1 12 C-1.33 12 -1.66 12 -2 12 C-2.28571429 3.42857143 -2.28571429 3.42857143 0 0 Z " fill="#272727" transform="translate(220,215)"/>
<path d="M0 0 C3.28895526 6.10805977 4.23617008 11.15106765 4 18 C3.34 18.33 2.68 18.66 2 19 C1.46678738 16.77376199 0.94889881 14.54384996 0.4375 12.3125 C0.14746094 11.07113281 -0.14257812 9.82976562 -0.44140625 8.55078125 C-0.96241956 5.23888546 -0.91852996 3.18139847 0 0 Z " fill="#333333" transform="translate(70,195)"/>
<path d="M0 0 C0.66 0 1.32 0 2 0 C2.83790789 1.78953185 3.67019396 3.58169695 4.5 5.375 C4.9640625 6.37273437 5.428125 7.37046875 5.90625 8.3984375 C7 11 7 11 7 13 C3.90462649 11.93262982 3.01544003 11.02481433 1.25 8.1875 C0.05271022 5.13441107 -0.28472808 3.22691821 0 0 Z " fill="#272727" transform="translate(39,218)"/>
<path d="M0 0 C0.66 0 1.32 0 2 0 C2.50130606 5.26371362 1.31168629 7.9090934 -2 12 C-2.66 12 -3.32 12 -4 12 C-3.33501617 7.61110675 -1.81242323 4.0188515 0 0 Z " fill="#282828" transform="translate(213,215)"/>
<path d="M0 0 C0 0.66 0 1.32 0 2 C-5.852795 1.48517081 -11.3297637 0.54642808 -17 -1 C-11.63204667 -4.65020826 -5.60490302 -2.05057428 0 0 Z " fill="#212121" transform="translate(162,75)"/>
<path d="M0 0 C3.69620682 1.06779308 7.22747337 2.41494725 10.8125 3.8125 C9.203125 4.9296875 9.203125 4.9296875 6.8125 5.8125 C3.796875 5.1328125 3.796875 5.1328125 0.5625 3.9375 C-0.51515625 3.54820313 -1.5928125 3.15890625 -2.703125 2.7578125 C-3.52296875 2.44585937 -4.3428125 2.13390625 -5.1875 1.8125 C-2.1875 -0.1875 -2.1875 -0.1875 0 0 Z " fill="#383838" transform="translate(155.1875,57.1875)"/>
<path d="M0 0 C2.67289025 3.87671106 2.01875653 7.79267603 1.625 12.25 C1.53992188 13.36761719 1.53992188 13.36761719 1.453125 14.5078125 C1.31223742 16.33935108 1.15748116 18.16981352 1 20 C-2.52509388 13.82760241 -1.14912789 6.75112637 0 0 Z " fill="#515151" transform="translate(83,191)"/>
<path d="M0 0 C0.99 0.66 1.98 1.32 3 2 C2.60446947 3.6510403 2.18286103 5.2958515 1.75 6.9375 C1.51796875 7.85402344 1.2859375 8.77054688 1.046875 9.71484375 C0 12 0 12 -2.109375 12.81640625 C-2.73328125 12.87699219 -3.3571875 12.93757813 -4 13 C-3.52140759 11.39566191 -3.04210442 9.79153584 -2.5625 8.1875 C-2.29566406 7.29417969 -2.02882812 6.40085937 -1.75390625 5.48046875 C-1.19612127 3.64526945 -0.60655425 1.81966274 0 0 Z " fill="#4B4B4B" transform="translate(184,111)"/>
<path d="M0 0 C1.32 0.33 2.64 0.66 4 1 C-1.14285714 5.42857143 -1.14285714 5.42857143 -5 6 C-5 5.67 -5 5.34 -5 5 C-8.3 4.67 -11.6 4.34 -15 4 C-15 3.67 -15 3.34 -15 3 C-10.05 2.67 -5.1 2.34 0 2 C0 1.34 0 0.68 0 0 Z " fill="#2F2F2F" transform="translate(139,176)"/>
<path d="M0 0 C0.99 0 1.98 0 3 0 C4.19287411 3.87684087 5 6.91621923 5 11 C4.34 11 3.68 11 3 11 C0 4.5 0 4.5 0 0 Z " fill="#1E1E1E" transform="translate(32,219)"/>
<path d="M0 0 C0.66 0 1.32 0 2 0 C3.38232443 1.62626404 4.71937515 3.2925002 6 5 C0.80790596 5.21192221 -3.126739 4.5912689 -8 3 C-8 2.67 -8 2.34 -8 2 C-5.36 2 -2.72 2 0 2 C0 1.34 0 0.68 0 0 Z " fill="#101010" transform="translate(147,53)"/>
<path d="M0 0 C0.33 0 0.66 0 1 0 C1.10957031 0.6290625 1.21914062 1.258125 1.33203125 1.90625 C2.14190235 6.27823706 3.02791918 10.3274671 4.75 14.4375 C5.36875 16.2009375 5.36875 16.2009375 6 18 C5.34 18.99 4.68 19.98 4 21 C0.51098155 13.81947541 -0.54470737 7.9587799 0 0 Z " fill="#1F1F1F" transform="translate(97,37)"/>
<path d="M0 0 C0.598125 0.763125 1.19625 1.52625 1.8125 2.3125 C3.80259899 4.93588996 3.80259899 4.93588996 5.8125 6.5 C7 8 7 8 6.8125 10.625 C6 13 6 13 4 14 C3.71125 12.88625 3.4225 11.7725 3.125 10.625 C2.30758671 6.99708908 2.30758671 6.99708908 0 5 C-0.125 2.375 -0.125 2.375 0 0 Z " fill="#CCCCCC" transform="translate(202,146)"/>
<path d="M0 0 C0 0.33 0 0.66 0 1 C-1.60875 1.12375 -1.60875 1.12375 -3.25 1.25 C-6.92018382 1.75146079 -6.92018382 1.75146079 -9.375 3.5 C-11.73975697 7.13808764 -11.8177212 10.73467611 -12 15 C-12.33 15 -12.66 15 -13 15 C-13.76882007 6.20128137 -13.76882007 6.20128137 -11 1.875 C-6.97259374 -0.64212891 -4.67942502 -0.39656144 0 0 Z " fill="#C0C0C0" transform="translate(29,146)"/>
<path d="M0 0 C2.64 0.66 5.28 1.32 8 2 C7.67 2.66 7.34 3.32 7 4 C-1.57142857 4.28571429 -1.57142857 4.28571429 -5 2 C-3.35 2 -1.7 2 0 2 C0 1.34 0 0.68 0 0 Z " fill="#E0E0E0" transform="translate(148,74)"/>
<path d="M0 0 C0.86625 0.2475 1.7325 0.495 2.625 0.75 C2.625 1.41 2.625 2.07 2.625 2.75 C-0.345 2.255 -0.345 2.255 -3.375 1.75 C-4.035 3.07 -4.695 4.39 -5.375 5.75 C-6.695 5.09 -8.015 4.43 -9.375 3.75 C-4.20576923 -0.31153846 -4.20576923 -0.31153846 0 0 Z " fill="#2F2F2F" transform="translate(203.375,119.25)"/>
<path d="M0 0 C0.99 0.33 1.98 0.66 3 1 C1.33333333 2.66666667 -0.33333333 4.33333333 -2 6 C-2.556875 6.598125 -3.11375 7.19625 -3.6875 7.8125 C-5 9 -5 9 -7 9 C-5.44499019 5.18315774 -2.96404505 2.80804268 0 0 Z " fill="#3A3A3A" transform="translate(78,84)"/>
<path d="M0 0 C0.33 0 0.66 0 1 0 C1 2.64 1 5.28 1 8 C3.31 8 5.62 8 8 8 C4.53785351 10.05164237 3.40610765 10 -1 10 C-0.67 6.7 -0.34 3.4 0 0 Z " fill="#343434" transform="translate(104,207)"/>
<path d="M0 0 C0 0.99 0 1.98 0 3 C-7.625 4.25 -7.625 4.25 -11 2 C-9.54494642 1.47007308 -8.08581873 0.9513211 -6.625 0.4375 C-5.81289062 0.14746094 -5.00078125 -0.14257812 -4.1640625 -0.44140625 C-2 -1 -2 -1 0 0 Z " fill="#313131" transform="translate(145,196)"/>
<path d="M0 0 C2.5654594 2.5654594 2.54046087 4.47686668 3 8 C2.34 8 1.68 8 1 8 C0.67 9.32 0.34 10.64 0 12 C-0.19477739 10.37585622 -0.38059458 8.75063577 -0.5625 7.125 C-0.66691406 6.22007813 -0.77132812 5.31515625 -0.87890625 4.3828125 C-1 2 -1 2 0 0 Z " fill="#2D2D2D" transform="translate(72,120)"/>
<path d="M0 0 C2.4932534 0.99730136 3.77467439 1.65074531 5.25 3.9375 C6 6 6 6 6 9 C5.34 9 4.68 9 4 9 C0 2.25 0 2.25 0 0 Z " fill="#303030" transform="translate(24,221)"/>
<path d="M0 0 C0.66 0 1.32 0 2 0 C0.94124926 3.40312738 -0.00902154 6.01353231 -2 9 C-2.66 9 -3.32 9 -4 9 C-2.25 2.25 -2.25 2.25 0 0 Z " fill="#282828" transform="translate(229,217)"/>
<path d="M0 0 C0.66 0.33 1.32 0.66 2 1 C-0.97 3.97 -3.94 6.94 -7 10 C-7.33 9.34 -7.66 8.68 -8 8 C-3.375 2.25 -3.375 2.25 0 0 Z " fill="#D6D6D6" transform="translate(112,126)"/>
<path d="M0 0 C0.66 0.33 1.32 0.66 2 1 C2 1.99 2 2.98 2 4 C-0.875 4.625 -0.875 4.625 -4 5 C-4.66 4.34 -5.32 3.68 -6 3 C-4.03533587 1.93224776 -2.03144641 0.93446535 0 0 Z " fill="#3E3E3E" transform="translate(93,75)"/>
<path d="M0 0 C2.4375 0.75 2.4375 0.75 4.4375 2.75 C3.7775 3.41 3.1175 4.07 2.4375 4.75 C-0.2025 3.76 -2.8425 2.77 -5.5625 1.75 C-2.5625 -0.25 -2.5625 -0.25 0 0 Z " fill="#2E2E2E" transform="translate(164.5625,76.25)"/>
<path d="M0 0 C1.32 0 2.64 0 4 0 C3.1875 3.4375 3.1875 3.4375 2 7 C1.01 7.33 0.02 7.66 -1 8 C-0.67 5.36 -0.34 2.72 0 0 Z " fill="#1B1B1B" transform="translate(180,196)"/>
<path d="M0 0 C1.98 1.65 3.96 3.3 6 5 C5.34 5.66 4.68 6.32 4 7 C3.13375 6.319375 3.13375 6.319375 2.25 5.625 C0.2199667 4.15886484 -1.73539843 3.05142216 -4 2 C-2.68 2 -1.36 2 0 2 C0 1.34 0 0.68 0 0 Z " fill="#DFDFDF" transform="translate(107,97)"/>
<path d="M0 0 C2.75 0.8125 2.75 0.8125 5 2 C5 2.66 5 3.32 5 4 C2.03 3.67 -0.94 3.34 -4 3 C-2.3125 1.375 -2.3125 1.375 0 0 Z " fill="#D0D0D0" transform="translate(156,76)"/>
<path d="M0 0 C0 0.66 0 1.32 0 2 C-4.455 3.485 -4.455 3.485 -9 5 C-9 4.34 -9 3.68 -9 3 C-5.63316085 0.56839395 -4.26649636 0 0 0 Z " fill="#383838" transform="translate(66,233)"/>
<path d="M0 0 C3.465 1.98 3.465 1.98 7 4 C7 4.99 7 5.98 7 7 C4.13302508 5.71480435 2.02392288 4.42870746 0 2 C0 1.34 0 0.68 0 0 Z " fill="#DBDBDB" transform="translate(186,229)"/>
<path d="M0 0 C2.97 1.65 5.94 3.3 9 5 C9 5.66 9 6.32 9 7 C5.00544473 6.38545304 2.25533664 4.29353263 -1 2 C-0.67 1.34 -0.34 0.68 0 0 Z " fill="#3C3C3C" transform="translate(187,227)"/>
<path d="M0 0 C5 7.5 5 7.5 5 10 C4.34 10 3.68 10 3 10 C-1.09030544 4.85790173 -1.09030544 4.85790173 -0.75 1.625 C-0.5025 1.08875 -0.255 0.5525 0 0 Z " fill="#363636" transform="translate(92,124)"/>
<path d="M0 0 C1.32 0 2.64 0 4 0 C3.67 2.31 3.34 4.62 3 7 C2.34 6.01 1.68 5.02 1 4 C0.34 4 -0.32 4 -1 4 C-0.67 2.68 -0.34 1.36 0 0 Z " fill="#323232" transform="translate(70,222)"/>
<path d="M0 0 C0 0.33 0 0.66 0 1 C-0.886875 1.2475 -1.77375 1.495 -2.6875 1.75 C-6.10427135 3.03934768 -8.2797748 4.59980129 -11 7 C-8.87296567 0.78251503 -6.45381515 -0.28683623 0 0 Z " fill="#484848" transform="translate(163,214)"/>
<path d="M0 0 C0 0.33 0 0.66 0 1 C-1.051875 1.0825 -2.10375 1.165 -3.1875 1.25 C-7.27047209 2.05320762 -9.0122727 3.19334709 -12 6 C-9.51338724 -0.92699268 -6.80769872 -0.10980159 0 0 Z " fill="#C9C9C9" transform="translate(230,140)"/>
<path d="M0 0 C-2.39509338 2.89932357 -4.31245243 3.50168276 -8 4 C-7.67 3.01 -7.34 2.02 -7 1 C-4.53721199 -0.231394 -2.7204945 -0.07159196 0 0 Z " fill="#1C1C1C" transform="translate(116,18)"/>
<path d="M0 0 C0.66 0.33 1.32 0.66 2 1 C1.34 1.66 0.68 2.32 0 3 C0.33 3.66 0.66 4.32 1 5 C-0.65 5.66 -2.3 6.32 -4 7 C-4 5.68 -4 4.36 -4 3 C-2 1.25 -2 1.25 0 0 Z " fill="#D5D5D5" transform="translate(142,177)"/>
<path d="M0 0 C3.37462715 0.54723683 5.08235 1.0549 8 3 C7.67 3.66 7.34 4.32 7 5 C3.34683329 3.75023244 2.21934164 3.32901247 0 0 Z " fill="#303030" transform="translate(112,176)"/>
<path d="M0 0 C-0.33 0.99 -0.66 1.98 -1 3 C-3.31 3.33 -5.62 3.66 -8 4 C-5.57415142 1.34311822 -3.76063134 0 0 0 Z " fill="#161616" transform="translate(102,73)"/>
<path d="M0 0 C0.78375 0.2475 1.5675 0.495 2.375 0.75 C2.705 1.41 3.035 2.07 3.375 2.75 C0.405 2.42 -2.565 2.09 -5.625 1.75 C-2.625 -0.25 -2.625 -0.25 0 0 Z " fill="#2B2B2B" transform="translate(155.625,57.25)"/>
</svg>
