<?xml version="1.0" encoding="UTF-8"?>
<svg version="1.1" xmlns="http://www.w3.org/2000/svg" width="256" height="256">
<path d="M0 0 C84.48 0 168.96 0 256 0 C256 84.48 256 168.96 256 256 C171.52 256 87.04 256 0 256 C0 171.52 0 87.04 0 0 Z " fill="#010101" transform="translate(0,0)"/>
<path d="M0 0 C1.299375 0.01353516 2.59875 0.02707031 3.9375 0.04101562 C7.12543412 0.07617666 10.31249599 0.12539336 13.5 0.1875 C13.5 4.1875 13.5 4.1875 12.13671875 5.65625 C11.32654297 6.41421875 11.32654297 6.41421875 10.5 7.1875 C9.29217451 9.34352778 9.29217451 9.34352778 8.3125 11.6875 C7.79623047 12.84765625 7.79623047 12.84765625 7.26953125 14.03125 C6.33193989 16.27683414 6.33193989 16.27683414 6.5 19.1875 C7.180625 18.445 7.86125 17.7025 8.5625 16.9375 C12.61485367 12.94206141 16.73985706 10.00974551 22.5625 9.6875 C29.03752522 10.50972542 31.96774503 13.65524503 36.5 18.1875 C35.51 14.5575 34.52 10.9275 33.5 7.1875 C39.71992716 8.43148543 42.0282589 10.96854739 46.5 15.1875 C47.10972656 15.68765625 47.71945313 16.1878125 48.34765625 16.703125 C51.41686618 19.34424182 52.45435022 20.91360133 53.125 24.9375 C52.81063308 29.25590871 51.09808468 32.9198171 49.40625 36.859375 C48.2421076 39.85001667 47.8974507 42.02411619 48.5 45.1875 C50.35410577 47.29163616 50.35410577 47.29163616 52.5 49.1875 C53.71895224 51.81787063 54.58322067 54.43716202 55.5 57.1875 C56.49 57.1875 57.48 57.1875 58.5 57.1875 C58.78875 56.07375 59.0775 54.96 59.375 53.8125 C60.5 50.1875 60.5 50.1875 62.5 48.1875 C65.125 48.5625 65.125 48.5625 67.5 49.1875 C67.5 48.5275 67.5 47.8675 67.5 47.1875 C65.85 46.8575 64.2 46.5275 62.5 46.1875 C63.03069061 42.36652761 63.99701566 40.12578597 66.5 37.1875 C69.47 37.6825 69.47 37.6825 72.5 38.1875 C72.5 37.5275 72.5 36.8675 72.5 36.1875 C67.9681066 35.87850727 65.94414008 36.23537993 62.5 39.1875 C61.84 39.1875 61.18 39.1875 60.5 39.1875 C60.01538462 32.8875 60.01538462 32.8875 62.1875 29.75 C64.5 28.1875 64.5 28.1875 66.9375 27.5625 C70.89011081 28.52655142 72.24262712 30.92685029 74.5 34.1875 C76.44886184 40.1315286 76.33055965 46.74135875 73.9375 52.5 C72.50854238 56.16558694 72.2502222 57.55178275 73.5 61.1875 C73.17 60.5275 72.84 59.8675 72.5 59.1875 C71.51 59.6825 71.51 59.6825 70.5 60.1875 C70.93328242 62.70053805 71.1780133 63.90266561 73.125 65.625 C74.5 67.1875 74.5 67.1875 74.5 69.5625 C73.1009696 73.23495481 71.613836 74.73784483 68.5 77.1875 C64.93894244 78.2114229 61.3657595 78.61216471 57.6875 79 C56.70845703 79.12052734 55.72941406 79.24105469 54.72070312 79.36523438 C52.31540264 79.6585637 49.90955596 79.93193621 47.5 80.1875 C47.5 81.1775 47.5 82.1675 47.5 83.1875 C43.556195 86.96898376 39.39257962 89.46616658 34.5 91.875 C28.33575888 95.01089634 22.78757191 98.61149805 17.33203125 102.86206055 C9.57842435 108.74414762 0.91296584 109.20767619 -8.5 108.1875 C-12.16895316 106.9851567 -15.24679955 105.24731536 -18.5 103.1875 C-20.02009376 102.26960743 -21.54095469 101.3529844 -23.0625 100.4375 C-23.87589844 99.93605469 -24.68929687 99.43460937 -25.52734375 98.91796875 C-28.58844891 97.13601134 -31.70381241 95.52249704 -34.8581543 93.9140625 C-46.36256659 88.00635783 -53.16059785 83.84812905 -57.6875 71.17578125 C-58.5 68.1875 -58.5 68.1875 -58.5 64.1875 C-59.49 64.1875 -60.48 64.1875 -61.5 64.1875 C-61.5 65.8375 -61.5 67.4875 -61.5 69.1875 C-66.31483604 68.26887997 -69.21596169 65.72415664 -72.5 62.1875 C-76.81858005 55.62325832 -79.20223242 48.05250312 -78.5 40.1875 C-76.97745269 35.61985807 -75.72349015 32.66333905 -71.5 30.1875 C-69.52 31.1775 -67.54 32.1675 -65.5 33.1875 C-65.5 35.1675 -65.5 37.1475 -65.5 39.1875 C-69.46 38.6925 -69.46 38.6925 -73.5 38.1875 C-73.83 38.8475 -74.16 39.5075 -74.5 40.1875 C-73.38625 40.0328125 -73.38625 40.0328125 -72.25 39.875 C-69.5 40.1875 -69.5 40.1875 -67.1875 42.5 C-65.5 45.1875 -65.5 45.1875 -65.5 48.1875 C-66.139375 48.47625 -66.77875 48.765 -67.4375 49.0625 C-69.65206079 50.01573451 -69.65206079 50.01573451 -70.5 52.1875 C-68.025 51.6925 -68.025 51.6925 -65.5 51.1875 C-63.48863724 53.74741624 -61.87154504 56.23340299 -60.5 59.1875 C-59.84 59.1875 -59.18 59.1875 -58.5 59.1875 C-58.04625 58.383125 -57.5925 57.57875 -57.125 56.75 C-55.5 54.1875 -55.5 54.1875 -53.3125 53.375 C-52.714375 53.313125 -52.11625 53.25125 -51.5 53.1875 C-51.11390076 48.07168502 -51.57100396 44.58744441 -53.5 39.8125 C-55.54520542 34.52722003 -56.63718319 29.82397318 -55.5 24.1875 C-53.16587297 19.47951613 -49.24207725 17.17255559 -44.5 15.1875 C-44.5 16.8375 -44.5 18.4875 -44.5 20.1875 C-43.84 20.1875 -43.18 20.1875 -42.5 20.1875 C-42.29375 19.61 -42.0875 19.0325 -41.875 18.4375 C-39.89828244 15.20287126 -37.85785899 13.92861207 -34.5 12.1875 C-29.1208189 11.21238948 -25.14717825 12.29592242 -20.5 15.1875 C-18.80140333 16.47991051 -17.12390477 17.80240475 -15.5 19.1875 C-15.80146486 14.3640623 -18.26135648 11.63611828 -21.22265625 8.0546875 C-22.5 6.1875 -22.5 6.1875 -22.5 3.1875 C-15.05025213 -0.39628022 -8.15685674 -0.16164503 0 0 Z " fill="#F7B890" transform="translate(133.5,89.8125)"/>
<path d="M0 0 C16.00417883 12.37805719 28.90971187 31.93616342 33.16796875 51.97265625 C33.3838364 55.07425716 33.35308682 58.1767375 33.35546875 61.28515625 C33.36771484 62.11466797 33.37996094 62.94417969 33.39257812 63.79882812 C33.41226393 72.11279869 32.20443952 77.79899296 26.16796875 83.97265625 C24.20945531 85.36621389 22.21669762 86.71548172 20.16796875 87.97265625 C18.51717433 89.62345067 18.94247428 91.61001804 18.8515625 93.8828125 C18.80966797 94.87216797 18.76777344 95.86152344 18.72460938 96.88085938 C18.68529297 97.92177734 18.64597656 98.96269531 18.60546875 100.03515625 C18.54069336 101.60233398 18.54069336 101.60233398 18.47460938 103.20117188 C18.3681565 105.79152509 18.26614115 108.38197811 18.16796875 110.97265625 C16.84796875 111.30265625 15.52796875 111.63265625 14.16796875 111.97265625 C14.16796875 109.33265625 14.16796875 106.69265625 14.16796875 103.97265625 C12.18796875 104.96265625 12.18796875 104.96265625 10.16796875 105.97265625 C9.83796875 105.64265625 9.50796875 105.31265625 9.16796875 104.97265625 C9.21910793 99.01494209 10.70081969 94.31814587 13.16796875 88.97265625 C13.38453125 87.58046875 13.38453125 87.58046875 13.60546875 86.16015625 C13.79109375 85.43828125 13.97671875 84.71640625 14.16796875 83.97265625 C15.48443994 83.27328093 16.81819026 82.60536492 18.16796875 81.97265625 C20.43464663 75.42284029 20.04909115 68.05199024 17.23046875 61.78515625 C10.22203184 49.53007182 -3.73322635 42.94142644 -16.83203125 38.97265625 C-18.16404175 38.6340755 -19.49715029 38.29973684 -20.83203125 37.97265625 C-20.8163208 37.41392822 -20.80061035 36.8552002 -20.78442383 36.27954102 C-20.72128201 33.69818635 -20.68279421 31.11699495 -20.64453125 28.53515625 C-20.61939453 27.65666016 -20.59425781 26.77816406 -20.56835938 25.87304688 C-20.49242155 19.01332958 -21.17778916 12.46237405 -25.4453125 6.8515625 C-26.28642578 6.19994141 -26.28642578 6.19994141 -27.14453125 5.53515625 C-27.97404297 4.85646484 -27.97404297 4.85646484 -28.8203125 4.1640625 C-36.15610386 -0.1804353 -44.99241907 0.00099096 -53.203125 1.3671875 C-60.14108999 3.53093916 -65.68521573 9.04518054 -69.89453125 14.78515625 C-71.78815182 21.22346618 -71.92972208 27.48308412 -68.83203125 33.53515625 C-68.17203125 34.66953125 -67.51203125 35.80390625 -66.83203125 36.97265625 C-66.83203125 37.63265625 -66.83203125 38.29265625 -66.83203125 38.97265625 C-68.57226562 39.89884766 -68.57226562 39.89884766 -70.34765625 40.84375 C-90.46544675 50.74822318 -90.46544675 50.74822318 -103.46875 67.90234375 C-104.57404268 74.20132357 -103.91999787 80.71684817 -102.83203125 86.97265625 C-100.35703125 86.47765625 -100.35703125 86.47765625 -97.83203125 85.97265625 C-97.15901836 89.22137541 -96.49473615 92.47182004 -95.83203125 95.72265625 C-95.64125 96.64304687 -95.45046875 97.5634375 -95.25390625 98.51171875 C-94.98320313 99.84589844 -94.98320313 99.84589844 -94.70703125 101.20703125 C-94.53945312 102.02397461 -94.371875 102.84091797 -94.19921875 103.68261719 C-93.83203125 105.97265625 -93.83203125 105.97265625 -93.83203125 109.97265625 C-95.15203125 109.97265625 -96.47203125 109.97265625 -97.83203125 109.97265625 C-97.83203125 110.96265625 -97.83203125 111.95265625 -97.83203125 112.97265625 C-98.82203125 112.97265625 -99.81203125 112.97265625 -100.83203125 112.97265625 C-102.61421062 106.9132464 -103.22387248 101.13101206 -103.5859375 94.828125 C-103.72623179 91.90071935 -103.72623179 91.90071935 -104.83203125 88.97265625 C-105.91484375 88.60140625 -105.91484375 88.60140625 -107.01953125 88.22265625 C-112.8540713 85.62952734 -115.8288662 80.60399216 -118.20703125 74.84765625 C-120.29124227 68.50818106 -120.33581157 62.57867885 -119.83203125 55.97265625 C-119.77273437 55.07933594 -119.7134375 54.18601562 -119.65234375 53.265625 C-117.12995357 32.74813415 -100.78389907 14.03424452 -85.83203125 0.97265625 C-82.31398029 -1.73633389 -78.77010962 -3.9845025 -74.83203125 -6.02734375 C-73.94128906 -6.49398438 -73.05054688 -6.960625 -72.1328125 -7.44140625 C-47.52173463 -19.4485227 -21.83674569 -15.63209795 0 0 Z " fill="#CA0C11" transform="translate(173.83203125,30.02734375)"/>
<path d="M0 0 C5.00319201 3.72908722 7.11777278 7.65822607 8.13671875 13.78125 C8.6077723 20.5270923 8.16307447 27.10993782 7.13671875 33.78125 C8.86921875 33.91466797 8.86921875 33.91466797 10.63671875 34.05078125 C15.31647896 34.64090066 18.99394217 36.2870719 23.13671875 38.46875 C23.83514893 38.82888184 24.5335791 39.18901367 25.25317383 39.56005859 C35.21633415 44.80284738 44.57821632 51.5479234 48.13671875 62.78125 C48.78731939 68.50010993 48.74905138 73.55658473 46.13671875 78.78125 C44.01171875 79.59375 44.01171875 79.59375 42.13671875 79.78125 C41.98203125 81.51375 41.98203125 81.51375 41.82421875 83.28125 C41.35941962 87.14318392 40.22620124 90.36411348 38.76953125 93.94921875 C37.96409199 96.28101512 37.90757028 98.33699969 38.13671875 100.78125 C39.45671875 100.45125 40.77671875 100.12125 42.13671875 99.78125 C42.13671875 102.42125 42.13671875 105.06125 42.13671875 107.78125 C43.12671875 107.45125 44.11671875 107.12125 45.13671875 106.78125 C45.46671875 99.52125 45.79671875 92.26125 46.13671875 84.78125 C46.46671875 84.78125 46.79671875 84.78125 47.13671875 84.78125 C47.46671875 88.08125 47.79671875 91.38125 48.13671875 94.78125 C49.43609375 93.7603125 49.43609375 93.7603125 50.76171875 92.71875 C54.13671875 90.78125 54.13671875 90.78125 57.51171875 91.03125 C58.37796875 91.27875 59.24421875 91.52625 60.13671875 91.78125 C60.13671875 92.44125 60.13671875 93.10125 60.13671875 93.78125 C59.20859375 93.69875 58.28046875 93.61625 57.32421875 93.53125 C54.10145081 93.44394667 54.10145081 93.44394667 52.32421875 95.53125 C51.20811514 97.64597262 50.55553492 99.43587942 50.13671875 101.78125 C51.78671875 102.11125 53.43671875 102.44125 55.13671875 102.78125 C55.13671875 103.44125 55.13671875 104.10125 55.13671875 104.78125 C53.48671875 104.78125 51.83671875 104.78125 50.13671875 104.78125 C48.81671875 107.42125 47.49671875 110.06125 46.13671875 112.78125 C45.14671875 112.78125 44.15671875 112.78125 43.13671875 112.78125 C41.33227147 110.83799908 40.26939096 109.38775153 39.69921875 106.78125 C39.2854371 104.5612219 39.2854371 104.5612219 37.01171875 103.09375 C34.82078629 100.39159997 34.89942302 99.80609869 35.19921875 96.46875 C35.68982192 93.34115482 36.40393282 91.17200192 37.69921875 88.21875 C39.41234862 84.1221351 40.66072265 81.02931883 39.13671875 76.78125 C34.13021073 70.34431112 28.80654799 65.66342054 21.13671875 62.78125 C21.35328125 63.32394531 21.56984375 63.86664063 21.79296875 64.42578125 C22.07140625 65.14121094 22.34984375 65.85664062 22.63671875 66.59375 C22.91515625 67.30144531 23.19359375 68.00914063 23.48046875 68.73828125 C24.13671875 70.78125 24.13671875 70.78125 24.13671875 73.78125 C20.43327847 72.54676991 18.83420893 70.54790659 16.13671875 67.78125 C12.92191027 66.17384576 9.62353453 66.29749358 6.13671875 66.78125 C3.61119401 67.90425032 1.47709921 69.28340651 -0.86328125 70.78125 C-1.52328125 70.78125 -2.18328125 70.78125 -2.86328125 70.78125 C-3.15203125 71.420625 -3.44078125 72.06 -3.73828125 72.71875 C-4.86328125 74.78125 -4.86328125 74.78125 -6.86328125 75.78125 C-6.03308209 69.34720654 -3.45730007 63.32276575 1.13671875 58.78125 C1.13671875 58.12125 1.13671875 57.46125 1.13671875 56.78125 C-3.36322597 56.72279748 -7.86307188 56.68750145 -12.36328125 56.65625 C-13.63171875 56.63949219 -14.90015625 56.62273437 -16.20703125 56.60546875 C-22.79054444 56.57117962 -28.57699997 56.76519515 -34.86328125 58.78125 C-32.87527801 62.33125578 -30.94327497 65.67098839 -28.55078125 68.96875 C-26.86328125 71.78125 -26.86328125 71.78125 -27.11328125 74.15625 C-27.36078125 74.6925 -27.60828125 75.22875 -27.86328125 75.78125 C-28.75015625 74.9975 -29.63703125 74.21375 -30.55078125 73.40625 C-35.02295553 69.72634902 -38.86554578 68.26291491 -44.796875 68.38671875 C-48.46613677 69.08727724 -51.20175548 71.23544274 -53.86328125 73.78125 C-54.19328125 74.44125 -54.52328125 75.10125 -54.86328125 75.78125 C-55.52328125 75.78125 -56.18328125 75.78125 -56.86328125 75.78125 C-57.19328125 74.46125 -57.52328125 73.14125 -57.86328125 71.78125 C-59.17939802 72.73461021 -60.49107086 73.69410774 -61.80078125 74.65625 C-62.53167969 75.18992187 -63.26257813 75.72359375 -64.015625 76.2734375 C-66.17422151 78.03499829 -66.77252348 79.0209677 -67.1015625 81.77734375 C-67.28926351 87.95171905 -66.05627626 92.45316729 -63.75390625 98.15234375 C-62.49367549 101.87223541 -62.56964185 104.8905279 -62.86328125 108.78125 C-63.62640625 109.008125 -64.38953125 109.235 -65.17578125 109.46875 C-68.41064426 111.04856682 -69.27969483 112.61407717 -70.86328125 115.78125 C-74.15476368 114.64625606 -74.85926815 113.78841624 -76.61328125 110.65625 C-77.02578125 109.7075 -77.43828125 108.75875 -77.86328125 107.78125 C-79.51328125 107.78125 -81.16328125 107.78125 -82.86328125 107.78125 C-82.20328125 106.46125 -81.54328125 105.14125 -80.86328125 103.78125 C-79.87328125 103.78125 -78.88328125 103.78125 -77.86328125 103.78125 C-79.84328125 100.31625 -79.84328125 100.31625 -81.86328125 96.78125 C-83.84328125 96.78125 -85.82328125 96.78125 -87.86328125 96.78125 C-87.20328125 95.46125 -86.54328125 94.14125 -85.86328125 92.78125 C-80.11328125 93.65625 -80.11328125 93.65625 -77.86328125 94.78125 C-77.67765625 93.8840625 -77.67765625 93.8840625 -77.48828125 92.96875 C-76.86328125 90.78125 -76.86328125 90.78125 -74.86328125 87.78125 C-74.80269531 88.69648437 -74.74210937 89.61171875 -74.6796875 90.5546875 C-74.59589844 91.74320312 -74.51210937 92.93171875 -74.42578125 94.15625 C-74.34457031 95.33960938 -74.26335937 96.52296875 -74.1796875 97.7421875 C-74.05243189 100.69643901 -74.05243189 100.69643901 -72.86328125 102.78125 C-72.82328925 104.78085012 -72.81981326 106.78172242 -72.86328125 108.78125 C-71.87328125 108.78125 -70.88328125 108.78125 -69.86328125 108.78125 C-69.86328125 107.79125 -69.86328125 106.80125 -69.86328125 105.78125 C-68.54328125 105.78125 -67.22328125 105.78125 -65.86328125 105.78125 C-66.15203125 104.55148438 -66.44078125 103.32171875 -66.73828125 102.0546875 C-67.11362242 100.42195339 -67.48860343 98.78913646 -67.86328125 97.15625 C-68.0540625 96.34800781 -68.24484375 95.53976563 -68.44140625 94.70703125 C-69.44253668 90.30920831 -70.09858945 86.32563961 -69.86328125 81.78125 C-72.33828125 82.27625 -72.33828125 82.27625 -74.86328125 82.78125 C-77.2854365 75.81755366 -77.89515501 69.30176049 -75.80078125 62.15625 C-68.39751042 49.26022985 -54.1044936 40.91559696 -40.86328125 34.78125 C-40.20328125 34.78125 -39.54328125 34.78125 -38.86328125 34.78125 C-39.22421875 34.18699219 -39.58515625 33.59273437 -39.95703125 32.98046875 C-43.56066116 26.54398532 -45.2131205 21.15004459 -43.86328125 13.78125 C-41.04253935 6.40591568 -34.36321654 0.10870964 -27.23828125 -3.15625 C-17.95293478 -6.11652878 -8.06490041 -5.27515498 0 0 Z " fill="#0D0807" transform="translate(145.86328125,34.21875)"/>
<path d="M0 0 C3.99434079 0.09648166 6.59042629 0.6025605 9.6875 3.3125 C10.65858313 6.21909009 10.8671041 9.02939127 11.00390625 12.078125 C11.04580078 12.96757812 11.08769531 13.85703125 11.13085938 14.7734375 C11.17017578 15.69382813 11.20949219 16.61421875 11.25 17.5625 C11.29318359 18.49835938 11.33636719 19.43421875 11.38085938 20.3984375 C11.4866805 22.70298641 11.58876557 25.00763839 11.6875 27.3125 C16.22255583 27.1932069 20.7574382 27.06890357 25.29223633 26.94018555 C26.83126199 26.89717981 28.37032491 26.85548471 29.90942383 26.81518555 C37.87585978 26.60574663 45.77959621 26.38308083 53.6875 25.3125 C53.5946875 24.15492188 53.501875 22.99734375 53.40625 21.8046875 C52.72554628 9.77935978 52.72554628 9.77935978 55.2578125 5.91796875 C58.9812321 3.12186468 63.17247804 1.44125549 67.6875 0.3125 C69.85097979 5.06635165 71.37521704 9.56732729 72.5546875 14.6796875 C72.88631606 16.07431457 73.21836033 17.46884284 73.55078125 18.86328125 C74.0583029 21.02306239 74.56161168 23.18362313 75.05712891 25.34619141 C77.60183815 36.40165227 77.60183815 36.40165227 82.58618164 46.55053711 C84.44312802 49.52140432 85.22528675 51.81288538 85.6875 55.3125 C83.8125 58.75 83.8125 58.75 81.6875 61.3125 C82.6775 60.6525 83.6675 59.9925 84.6875 59.3125 C86.1725 59.8075 86.1725 59.8075 87.6875 60.3125 C87.6875 62.9525 87.6875 65.5925 87.6875 68.3125 C52.3775 68.3125 17.0675 68.3125 -19.3125 68.3125 C-18.9825 64.6825 -18.6525 61.0525 -18.3125 57.3125 C-16.9925 57.3125 -15.6725 57.3125 -14.3125 57.3125 C-14.9725 56.6525 -15.6325 55.9925 -16.3125 55.3125 C-15.93779757 51.51379262 -14.5207929 48.49776581 -12.9375 45.0625 C-8.49461549 33.85256306 -8.01620972 21.31787934 -7.08398438 9.38818359 C-7.00986328 8.4905127 -6.93574219 7.5928418 -6.859375 6.66796875 C-6.80104492 5.87414795 -6.74271484 5.08032715 -6.68261719 4.26245117 C-5.91734813 0.23065439 -3.60329794 0.01816789 0 0 Z " fill="#2159D8" transform="translate(97.3125,187.6875)"/>
<path d="M0 0 C4.2171185 2.14256827 7.29788994 4.49583139 9 9 C9.77664922 14.79625573 10.0564295 20.30023886 6.625 25.25 C5.75875 26.1575 4.8925 27.065 4 28 C3.34 28 2.68 28 2 28 C2 28.66 2 29.32 2 30 C1.34 30.33 0.68 30.66 0 31 C0.99 32.485 0.99 32.485 2 34 C2.38499891 35.65549531 2.72793135 37.3222433 3 39 C10.08979716 37.22537446 10.08979716 37.22537446 16.4375 33.75 C17.283125 33.1725 18.12875 32.595 19 32 C22 33 22 33 23.6875 35.625 C25.18998262 39.48852675 25.59730748 41.89351106 25 46 C22.67558772 48.92211829 20.53191405 50.69074765 17.3125 52.5625 C14.72045738 54.17376974 14.2159831 55.28485966 13 58 C13.55985596 57.87882812 14.11971191 57.75765625 14.6965332 57.6328125 C17.23451635 57.08536824 19.77348433 56.5426344 22.3125 56 C23.19357422 55.80921875 24.07464844 55.6184375 24.98242188 55.421875 C25.82998047 55.24140625 26.67753906 55.0609375 27.55078125 54.875 C28.33106689 54.70742187 29.11135254 54.53984375 29.9152832 54.3671875 C32 54 32 54 35 54 C35.0825 53.05125 35.165 52.1025 35.25 51.125 C36 48 36 48 38.0625 46.625 C38.701875 46.41875 39.34125 46.2125 40 46 C40 47.32 40 48.64 40 50 C40.9075 49.525625 41.815 49.05125 42.75 48.5625 C47.77089783 46.14860681 47.77089783 46.14860681 50 46 C52.25 47.1875 52.25 47.1875 54 49 C54 50.32 54 51.64 54 53 C53.15179688 52.79503906 52.30359375 52.59007812 51.4296875 52.37890625 C47.42869714 51.9368834 44.92183258 52.65897474 41.125 53.9375 C39.97257812 54.31777344 38.82015625 54.69804687 37.6328125 55.08984375 C36.32957031 55.54037109 36.32957031 55.54037109 35 56 C38.16245541 57.0541518 40.86948218 57.31275672 44.1875 57.5625 C45.27417969 57.64628906 46.36085938 57.73007813 47.48046875 57.81640625 C48.31191406 57.87699219 49.14335937 57.93757813 50 58 C50 58.33 50 58.66 50 59 C43.07 59.99 36.14 60.98 29 62 C29.33 62.66 29.66 63.32 30 64 C29.23300781 64.09796875 28.46601563 64.1959375 27.67578125 64.296875 C6.62094375 66.60508608 6.62094375 66.60508608 -12.8828125 74.01171875 C-17.67486488 76.24859929 -22.59215113 75.76782797 -27.5234375 74.1953125 C-34.75725737 71.17536828 -34.75725737 71.17536828 -37 68 C-36.6875 65.3125 -36.6875 65.3125 -36 63 C-36.88042969 63.04640625 -37.76085937 63.0928125 -38.66796875 63.140625 C-40.41013672 63.19476563 -40.41013672 63.19476563 -42.1875 63.25 C-43.33605469 63.29640625 -44.48460938 63.3428125 -45.66796875 63.390625 C-49.64558315 62.92431616 -51.16781202 61.7607454 -54 59 C-54.7425 57.9790625 -54.7425 57.9790625 -55.5 56.9375 C-56.9298444 54.8318295 -56.9298444 54.8318295 -59.4375 53.625 C-62.79627162 51.49504726 -64.19542493 49.54231402 -66 46 C-66.67543718 42.10497892 -66.58158082 38.96930136 -64.5 35.5 C-64.005 35.005 -63.51 34.51 -63 34 C-60.23498164 35.0572129 -57.6288586 36.19330281 -55 37.5625 C-52.25638574 38.8771485 -49.99029816 39.56025027 -47 40 C-46.5359375 38.14375 -46.5359375 38.14375 -46.0625 36.25 C-45 32 -45 32 -44.3125 29.96484375 C-43.90424301 27.39792795 -44.5804341 26.49203008 -45.9375 24.3125 C-48.30412498 19.84497635 -49.16665855 15.98724266 -48 11 C-46.45481211 8.02974484 -44.73824844 5.93534846 -42 4 C-38.375 3.25 -38.375 3.25 -35 4 C-32.5625 5.875 -32.5625 5.875 -31 9 C-30.68687058 12.36229135 -30.76475158 15.63464065 -31 19 C-29.94039062 18.98839844 -28.88078125 18.97679688 -27.7890625 18.96484375 C-26.40104342 18.95546524 -25.01302245 18.94636511 -23.625 18.9375 C-22.92632812 18.92912109 -22.22765625 18.92074219 -21.5078125 18.91210938 C-16.2265625 18.88671875 -16.2265625 18.88671875 -14 20 C-14.05220703 19.03900391 -14.05220703 19.03900391 -14.10546875 18.05859375 C-14.31617475 11.32603538 -13.95382752 6.27030904 -9.25 1.0625 C-5.88869008 -0.52478524 -3.68336791 -0.49943972 0 0 Z " fill="#5E403F" transform="translate(152,108)"/>
<path d="M0 0 C3.12037691 2.57770267 5.77298427 4.79969367 6.203125 8.96875 C6.3316082 15.90684273 5.36589696 22.40355424 4.14428711 29.20263672 C2.975973 35.79501784 2.34282682 42.30896616 2 49 C2.66 46.36 3.32 43.72 4 41 C6.65696068 41.15182632 8.44234524 41.47324024 10.41015625 43.33203125 C15.18864248 49.05785586 15.47377221 52.83483214 15.3984375 60.1875 C14.45237575 69.24001248 9.68139143 76.62743354 2.69140625 82.31640625 C-2.49427916 85.56028203 -8.16166573 87.29340998 -14 89 C-14.79019531 89.24621094 -15.58039063 89.49242187 -16.39453125 89.74609375 C-23.85473648 91.87968302 -29.39124321 91.79287124 -36.23828125 88.16796875 C-38.09946493 86.93405762 -39.55063929 85.69909671 -41 84 C-41 83.34 -41 82.68 -41 82 C-40.38125 82.33 -39.7625 82.66 -39.125 83 C-37.08981656 84.14193235 -37.08981656 84.14193235 -35 84 C-35.47050781 83.63648438 -35.94101563 83.27296875 -36.42578125 82.8984375 C-42.19731917 78.23818949 -45.35166305 73.46303598 -46.23828125 65.9921875 C-46.50173004 58.47696423 -44.14869741 52.22304612 -40 46 C-38.02 46.33 -36.04 46.66 -34 47 C-33.67 47.99 -33.34 48.98 -33 50 C-32.34 50 -31.68 50 -31 50 C-31.02320313 49.30132812 -31.04640625 48.60265625 -31.0703125 47.8828125 C-31.08835938 46.97273438 -31.10640625 46.06265625 -31.125 45.125 C-31.14820313 44.22007812 -31.17140625 43.31515625 -31.1953125 42.3828125 C-31 40 -31 40 -29 38 C-22.06818182 37.31818182 -22.06818182 37.31818182 -18.0625 39.875 C-16 42 -16 42 -15 44 C-14.9906543 43.04746338 -14.98130859 42.09492676 -14.97167969 41.11352539 C-14.93145797 37.54031581 -14.86561531 33.96793848 -14.79248047 30.39526367 C-14.76445558 28.85631088 -14.74315014 27.3172191 -14.72900391 25.77807617 C-14.55828958 8.24571457 -14.55828958 8.24571457 -10 2 C-6.24952518 -0.50031654 -4.44143734 -0.53603554 0 0 Z " fill="#F6F0EE" transform="translate(228,144)"/>
<path d="M0 0 C4.08948648 0.91804799 6.65056817 2.29552436 9.0625 5.6875 C12.46673163 14.54965187 12.43341175 23.5787978 12.25 32.9375 C12.23490372 34.27993265 12.22122418 35.62238201 12.20898438 36.96484375 C12.17400604 40.20616944 12.12492337 43.44660662 12.0625 46.6875 C12.7225 46.6875 13.3825 46.6875 14.0625 46.6875 C14.330625 45.57375 14.59875 44.46 14.875 43.3125 C16.0625 39.6875 16.0625 39.6875 19.0625 37.6875 C22.51923923 37.15086911 25.85894797 37.06631186 29 38.6875 C30.70550706 41.89786623 30.76684404 45.08049727 31.0625 48.6875 C31.7225 47.6975 32.3825 46.7075 33.0625 45.6875 C35.375 45.125 35.375 45.125 38.0625 45.6875 C42.86206092 50.48706092 45.33634988 55.01883164 45.4375 61.9375 C45.29355565 69.05794739 43.14539081 74.17734954 38.625 79.625 C36.13961464 81.62543212 34.09085119 82.73573248 31.0625 83.6875 C31.0625 84.3475 31.0625 85.0075 31.0625 85.6875 C34.3625 84.0375 37.6625 82.3875 41.0625 80.6875 C38.8058237 85.20085259 37.15178539 86.5848216 32.8125 88.875 C25.62456936 90.99870678 19.31893748 89.20946666 12.4375 86.9375 C11.20773438 86.55851562 11.20773438 86.55851562 9.953125 86.171875 C0.65497177 83.18211512 -6.59476811 78.00043041 -11.234375 69.23828125 C-12.19664117 67.07318236 -13.08469779 64.89744982 -13.9375 62.6875 C-14.2675 62.0275 -14.5975 61.3675 -14.9375 60.6875 C-15.4725086 55.31987273 -15.59925234 50.98818563 -13.125 46.125 C-10.9375 43.6875 -10.9375 43.6875 -7.9375 41.6875 C-6.6175 41.6875 -5.2975 41.6875 -3.9375 41.6875 C-4.30266801 35.51741975 -5.10079661 29.6508146 -6.5 23.625 C-9.49779834 10.00813492 -9.49779834 10.00813492 -7.0234375 4.7421875 C-5.01305458 1.95359184 -3.33195031 0.77981816 0 0 Z " fill="#F5F0EE" transform="translate(33.9375,148.3125)"/>
<path d="M0 0 C1.60294922 0.56074219 1.60294922 0.56074219 3.23828125 1.1328125 C14.92814605 5.61863101 24.5539487 12.39868648 30.9375 23.3125 C32.36450083 28.26503229 32.24980401 32.88364386 32 38 C27.71120359 37.53689053 25.5073234 34.77887259 22.625 31.875 C8.62065082 18.51894009 -8.3295619 15.52202638 -27.08251953 15.64379883 C-32.9842114 15.78470569 -38.40832385 16.31700185 -44.0703125 18.09765625 C-46.40211605 18.81585174 -48.60613186 19.34628847 -50.9921875 19.80859375 C-58.48313021 21.31247358 -63.97402597 22.76175585 -69.05859375 28.8359375 C-72.14281774 32.27388537 -75.91061839 34.70073876 -79.6796875 37.3359375 C-82.04656925 38.93822508 -82.04656925 38.93822508 -84 41 C-84.99 41 -85.98 41 -87 41 C-88.90210923 37.19578153 -88.58003766 33.13566855 -88 29 C-82.88547637 15.22851628 -68.62260803 7.88641508 -56.08056641 1.92333984 C-38.31617438 -5.96036476 -18.22593806 -6.41787922 0 0 Z " fill="#C40E12" transform="translate(159,71)"/>
<path d="M0 0 C0.69029297 -0.01611328 1.38058594 -0.03222656 2.09179688 -0.04882812 C7.88377273 -0.05431815 11.82784828 1.27402 16.109375 5.1796875 C20.13608952 9.92677755 22.72283484 13.31212446 23.4375 19.625 C22.87782736 25.12844765 21.25963716 29.23462289 17.19140625 33.08203125 C10.30758958 38.43032738 4.76809319 40.12986568 -3.9375 39.3125 C-11.78203576 37.79461422 -17.2904378 34.06962054 -21.875 27.5625 C-23.58930451 22.31874502 -24.15149692 17.2300893 -21.98828125 12.03125 C-16.74539196 3.16630155 -10.14237098 -0.04708622 0 0 Z " fill="#FCBB93" transform="translate(129.9375,128.6875)"/>
<path d="M0 0 C5.1284249 3.00226541 9.51203221 7.85461263 11.625 13.4375 C11.890625 16.96875 11.890625 16.96875 11.875 20.9375 C11.88273437 22.90203125 11.88273437 22.90203125 11.890625 24.90625 C11.64288672 28.19971185 11.1674031 29.64677662 9.625 32.4375 C8.88040527 32.43226318 8.13581055 32.42702637 7.36865234 32.42163086 C3.91243788 32.40052053 0.45625987 32.38652991 -3 32.375 C-4.23427734 32.37024658 -5.46855469 32.36549316 -6.74023438 32.3605957 C-14.22787544 32.35812877 -21.53428445 32.58241056 -28.96875 33.51171875 C-31.375 33.4375 -31.375 33.4375 -33.15625 32.14453125 C-37.0256684 26.7248651 -36.17117763 18.75428119 -35.375 12.4375 C-29.36256187 0.44830587 -12.15045779 -5.4548298 0 0 Z " fill="#F8F4F4" transform="translate(140.375,33.5625)"/>
<path d="M0 0 C4.2171185 2.14256827 7.29788994 4.49583139 9 9 C9.77664922 14.79625573 10.0564295 20.30023886 6.625 25.25 C5.75875 26.1575 4.8925 27.065 4 28 C3.34 28 2.68 28 2 28 C2 28.66 2 29.32 2 30 C0.68 30 -0.64 30 -2 30 C-2 29.34 -2 28.68 -2 28 C-2.8353125 27.87625 -2.8353125 27.87625 -3.6875 27.75 C-6.69256318 26.77538491 -8.57254822 24.99175531 -11 23 C-17.85829526 20.71390158 -28.28878314 20.61172506 -34.8125 23.8125 C-37.23075018 25.47208346 -39.01246325 26.91696599 -41 29 C-44.38822712 27.87059096 -44.62624605 27.51483521 -46.1875 24.5 C-48.26633857 19.9783239 -49.14768507 15.90613465 -48 11 C-46.45481211 8.02974484 -44.73824844 5.93534846 -42 4 C-38.375 3.25 -38.375 3.25 -35 4 C-32.5625 5.875 -32.5625 5.875 -31 9 C-30.68687058 12.36229135 -30.76475158 15.63464065 -31 19 C-29.94039062 18.98839844 -28.88078125 18.97679688 -27.7890625 18.96484375 C-26.40104342 18.95546524 -25.01302245 18.94636511 -23.625 18.9375 C-22.92632812 18.92912109 -22.22765625 18.92074219 -21.5078125 18.91210938 C-16.2265625 18.88671875 -16.2265625 18.88671875 -14 20 C-14.05220703 19.03900391 -14.05220703 19.03900391 -14.10546875 18.05859375 C-14.31617475 11.32603538 -13.95382752 6.27030904 -9.25 1.0625 C-5.88869008 -0.52478524 -3.68336791 -0.49943972 0 0 Z " fill="#565D6D" transform="translate(152,108)"/>
<path d="M0 0 C4.29 0.33 8.58 0.66 13 1 C10.34358456 3.65641544 7.91206758 4.04926716 4.3125 5.125 C-10.20839795 9.73863966 -26.36506621 17.46101828 -34.015625 31.2578125 C-35.75968359 36.11626143 -35.47123127 40.92117406 -35 46 C-30.99026439 43.70872251 -27.33133259 41.07419823 -23.6875 38.25 C-23.10991943 37.80970459 -22.53233887 37.36940918 -21.93725586 36.91577148 C-18.75542698 34.46529501 -15.88484071 31.92760345 -13.0625 29.0625 C-8.10853143 24.56565729 -1.48188566 23.65889562 5 23 C5.99 23.33 6.98 23.66 8 24 C7.34 24.99 6.68 25.98 6 27 C5.34 27 4.68 27 4 27 C5.98800324 30.55000578 7.92000628 33.88973839 10.3125 37.1875 C12 40 12 40 11.75 42.375 C11.5025 42.91125 11.255 43.4475 11 44 C10.113125 43.21625 9.22625 42.4325 8.3125 41.625 C3.84032572 37.94509902 -0.00226453 36.48166491 -5.93359375 36.60546875 C-9.60285552 37.30602724 -12.33847423 39.45419274 -15 42 C-15.495 42.99 -15.495 42.99 -16 44 C-16.66 44 -17.32 44 -18 44 C-18.33 42.68 -18.66 41.36 -19 40 C-20.31611677 40.95336021 -21.62778961 41.91285774 -22.9375 42.875 C-23.66839844 43.40867188 -24.39929688 43.94234375 -25.15234375 44.4921875 C-27.31094026 46.25374829 -27.90924223 47.2397177 -28.23828125 49.99609375 C-28.42598226 56.17046905 -27.19299501 60.67191729 -24.890625 66.37109375 C-23.63039424 70.09098541 -23.7063606 73.1092779 -24 77 C-24.763125 77.226875 -25.52625 77.45375 -26.3125 77.6875 C-29.54736301 79.26731682 -30.41641358 80.83282717 -32 84 C-35.29148243 82.86500606 -35.9959869 82.00716624 -37.75 78.875 C-38.1625 77.92625 -38.575 76.9775 -39 76 C-40.65 76 -42.3 76 -44 76 C-43.34 74.68 -42.68 73.36 -42 72 C-41.01 72 -40.02 72 -39 72 C-40.98 68.535 -40.98 68.535 -43 65 C-44.98 65 -46.96 65 -49 65 C-48.34 63.68 -47.68 62.36 -47 61 C-41.25 61.875 -41.25 61.875 -39 63 C-38.87625 62.401875 -38.7525 61.80375 -38.625 61.1875 C-38 59 -38 59 -36 56 C-35.93941406 56.91523437 -35.87882812 57.83046875 -35.81640625 58.7734375 C-35.73261719 59.96195313 -35.64882812 61.15046875 -35.5625 62.375 C-35.48128906 63.55835938 -35.40007812 64.74171875 -35.31640625 65.9609375 C-35.18915064 68.91518901 -35.18915064 68.91518901 -34 71 C-33.960008 72.99960012 -33.95653201 75.00047242 -34 77 C-33.01 77 -32.02 77 -31 77 C-31 76.01 -31 75.02 -31 74 C-29.68 74 -28.36 74 -27 74 C-27.28875 72.77023438 -27.5775 71.54046875 -27.875 70.2734375 C-28.25034117 68.64070339 -28.62532218 67.00788646 -29 65.375 C-29.19078125 64.56675781 -29.3815625 63.75851563 -29.578125 62.92578125 C-30.57925543 58.52795831 -31.2353082 54.54438961 -31 50 C-33.475 50.495 -33.475 50.495 -36 51 C-38.42215525 44.03630366 -39.03187376 37.52051049 -36.9375 30.375 C-29.53422917 17.47897985 -15.24121235 9.13434696 -2 3 C-1.34 3 -0.68 3 0 3 C0 2.01 0 1.02 0 0 Z " fill="#0D0706" transform="translate(107,66)"/>
<path d="M0 0 C2.61056069 0.36491709 3.74749644 0.71649856 5.52734375 2.71484375 C15.21339608 17.98177942 15.21339608 17.98177942 14.76953125 22.1796875 C13.55530868 25.05190941 11.79890911 25.79138016 9 27 C6.4375 27.25 6.4375 27.25 4 26 C2.00134806 22.65809821 0 18.95397834 0 15 C-2.27521866 17.16687491 -4.15794162 19.45620509 -6 22 C-9.76430913 20.74523029 -10.05044108 19.30577382 -12 16 C-12.66 16 -13.32 16 -14 16 C-14.20496094 16.78246094 -14.40992187 17.56492187 -14.62109375 18.37109375 C-14.89050781 19.38300781 -15.15992187 20.39492188 -15.4375 21.4375 C-15.70433594 22.44683594 -15.97117187 23.45617187 -16.24609375 24.49609375 C-17 27 -17 27 -18 28 C-21.4375 28.1875 -21.4375 28.1875 -25 28 C-25.66 27.34 -26.32 26.68 -27 26 C-26.3052965 17.71065649 -22.35510383 8.39157553 -17 2 C-15.68 1.67 -14.36 1.34 -13 1 C-10.525 4.465 -10.525 4.465 -8 8 C-4.65001479 6.88333826 -4.20659778 6.25305075 -2.3125 3.4375 C-1.87550781 2.79683594 -1.43851563 2.15617187 -0.98828125 1.49609375 C-0.66214844 1.00238281 -0.33601563 0.50867187 0 0 Z " fill="#CE1318" transform="translate(135,36)"/>
<path d="M0 0 C3.63282031 1.15708194 7.00777403 2.47432975 10.4375 4.125 C19.55007045 7.81965791 29.76600347 6.77019896 39 4 C40 5 40 5 40.1328125 8.125 C40.13023437 9.40375 40.12765625 10.6825 40.125 12 C40.12886719 13.918125 40.12886719 13.918125 40.1328125 15.875 C40 19 40 19 39 20 C31.41286265 21.0559418 23.70980761 21.10057953 16.0625 21.125 C14.8561792 21.13188843 14.8561792 21.13188843 13.62548828 21.13891602 C9.30518892 21.1276488 5.25417688 20.86039532 1 20 C-0.05619003 15.71702469 -0.11702092 11.57014354 -0.0625 7.1875 C-0.05798828 6.49462891 -0.05347656 5.80175781 -0.04882812 5.08789062 C-0.03713156 3.39188932 -0.01919924 1.69593297 0 0 Z " fill="#C50D12" transform="translate(109,193)"/>
<path d="M0 0 C0.66 0 1.32 0 2 0 C2 1.32 2 2.64 2 4 C2.9075 3.525625 3.815 3.05125 4.75 2.5625 C9.77089783 0.14860681 9.77089783 0.14860681 12 0 C14.25 1.1875 14.25 1.1875 16 3 C16 4.32 16 5.64 16 7 C15.15179688 6.79503906 14.30359375 6.59007812 13.4296875 6.37890625 C9.42869714 5.9368834 6.92183258 6.65897474 3.125 7.9375 C1.39636719 8.50791016 1.39636719 8.50791016 -0.3671875 9.08984375 C-1.23601562 9.39019531 -2.10484375 9.69054687 -3 10 C0.16245541 11.0541518 2.86948218 11.31275672 6.1875 11.5625 C7.27417969 11.64628906 8.36085938 11.73007813 9.48046875 11.81640625 C10.31191406 11.87699219 11.14335937 11.93757812 12 12 C12 12.33 12 12.66 12 13 C1.605 14.485 1.605 14.485 -9 16 C-8.505 16.99 -8.505 16.99 -8 18 C-8.76699219 18.09796875 -9.53398437 18.1959375 -10.32421875 18.296875 C-31.37905625 20.60508608 -31.37905625 20.60508608 -50.8828125 28.01171875 C-55.67486488 30.24859929 -60.59215113 29.76782797 -65.5234375 28.1953125 C-69.33463725 26.60422911 -72.19305691 25.07091893 -75 22 C-74.34 20.35 -73.68 18.7 -73 17 C-70.525 17.99 -70.525 17.99 -68 19 C-68.66 20.32 -69.32 21.64 -70 23 C-65.02988327 24.99118241 -60.87666865 25.24845695 -55.625 25.125 C-54.88894531 25.11597656 -54.15289062 25.10695312 -53.39453125 25.09765625 C-51.5962112 25.07430144 -49.79806089 25.03843836 -48 25 C-48.33 24.34 -48.66 23.68 -49 23 C-51.70599842 22.52402634 -54.33595404 22.15906371 -57.0625 21.875 C-57.82111328 21.78863281 -58.57972656 21.70226562 -59.36132812 21.61328125 C-61.23996986 21.40060483 -63.11988636 21.19924541 -65 21 C-65 20.67 -65 20.34 -65 20 C-56.585 19.505 -56.585 19.505 -48 19 C-48 19.99 -48 20.98 -48 22 C-40.41 20.68 -32.82 19.36 -25 18 C-31.01016911 17.24872886 -34.36818324 16.94403436 -40 18 C-37.79168118 15.79168118 -36.50342124 15.3885542 -33.5625 14.5 C-30.53797225 13.58317446 -28.68542804 12.79028536 -26 11 C-26 11.66 -26 12.32 -26 13 C-25.40985107 12.84853516 -24.81970215 12.69707031 -24.21166992 12.54101562 C-21.53787681 11.85697921 -18.8627205 11.17843152 -16.1875 10.5 C-15.25873047 10.26152344 -14.32996094 10.02304688 -13.37304688 9.77734375 C-12.48037109 9.55175781 -11.58769531 9.32617188 -10.66796875 9.09375 C-9.84578857 8.88427734 -9.0236084 8.67480469 -8.17651367 8.45898438 C-6 8 -6 8 -3 8 C-2.814375 6.576875 -2.814375 6.576875 -2.625 5.125 C-2 2 -2 2 0 0 Z " fill="#3A322F" transform="translate(190,154)"/>
<path d="M0 0 C5.00319201 3.72908722 7.11777278 7.65822607 8.13671875 13.78125 C8.6077723 20.5270923 8.16307447 27.10993782 7.13671875 33.78125 C8.86921875 33.91466797 8.86921875 33.91466797 10.63671875 34.05078125 C15.31647896 34.64090066 18.99394217 36.2870719 23.13671875 38.46875 C23.83514893 38.82888184 24.5335791 39.18901367 25.25317383 39.56005859 C35.17878863 44.78309028 44.64788383 51.55215836 48.13671875 62.78125 C48.44426894 66.47673404 48.38140516 70.08376641 48.13671875 73.78125 C46.65171875 73.28625 46.65171875 73.28625 45.13671875 72.78125 C45.02457031 71.63849609 45.02457031 71.63849609 44.91015625 70.47265625 C43.66456126 60.69107202 40.18321427 53.44029041 32.359375 47.25 C22.91267242 41.00753924 13.06584061 37.46306618 2.13671875 34.78125 C1.52908691 34.60182861 0.92145508 34.42240723 0.29541016 34.23754883 C-2.31579495 33.68559878 -4.6948312 33.70391764 -7.36328125 33.75390625 C-8.41515625 33.76615234 -9.46703125 33.77839844 -10.55078125 33.79101562 C-12.75918021 33.82617292 -14.96752044 33.86523579 -17.17578125 33.90820312 C-18.22765625 33.91916016 -19.27953125 33.93011719 -20.36328125 33.94140625 C-21.801875 33.96666382 -21.801875 33.96666382 -23.26953125 33.99243164 C-25.95914202 33.77344507 -27.56606404 33.15436554 -29.86328125 31.78125 C-23.80002126 30.71722387 -17.88519771 30.63169507 -11.73828125 30.65625 C-10.76246094 30.65238281 -9.78664062 30.64851563 -8.78125 30.64453125 C-7.36392578 30.64646484 -7.36392578 30.64646484 -5.91796875 30.6484375 C-4.64155518 30.65012939 -4.64155518 30.65012939 -3.33935547 30.65185547 C-0.7640544 30.78643539 1.62378417 31.21551668 4.13671875 31.78125 C6.13266077 25.30261853 6.50394047 16.58791295 4.1953125 10.16015625 C0.79608915 4.52319966 -3.62689988 0.90810839 -9.86328125 -1.21875 C-18.84986041 -2.29814359 -25.95248955 -0.96865727 -33.16015625 4.53515625 C-37.04841504 7.71846054 -37.04841504 7.71846054 -39.86328125 11.78125 C-39.98800897 14.23229466 -40.04844456 16.64256348 -40.05078125 19.09375 C-40.06496094 20.40988281 -40.07914062 21.72601563 -40.09375 23.08203125 C-39.88064771 26.50250367 -39.35453107 28.73391341 -37.86328125 31.78125 C-38.85328125 32.27625 -38.85328125 32.27625 -39.86328125 32.78125 C-43.69465447 26.43553811 -45.08797306 21.19442875 -43.86328125 13.78125 C-41.06571856 6.40702946 -34.34976705 0.10254649 -27.23828125 -3.15625 C-17.95293478 -6.11652878 -8.06490041 -5.27515498 0 0 Z " fill="#100707" transform="translate(145.86328125,34.21875)"/>
<path d="M0 0 C4.2171185 2.14256827 7.29788994 4.49583139 9 9 C9.77664922 14.79625573 10.0564295 20.30023886 6.625 25.25 C5.75875 26.1575 4.8925 27.065 4 28 C3.34 28 2.68 28 2 28 C2 28.66 2 29.32 2 30 C0.68 30 -0.64 30 -2 30 C-2 29.34 -2 28.68 -2 28 C-2.66 28 -3.32 28 -4 28 C-5.625 25.5 -5.625 25.5 -7 23 C-6.01 22.67 -5.02 22.34 -4 22 C-2.79727181 19.59454362 -2.89928528 18.05003047 -2.9375 15.375 C-2.94652344 14.55773437 -2.95554688 13.74046875 -2.96484375 12.8984375 C-2.97644531 12.27195312 -2.98804688 11.64546875 -3 11 C-3.66 11 -4.32 11 -5 11 C-5.33 12.32 -5.66 13.64 -6 15 C-6.99 15 -7.98 15 -9 15 C-9 13.68 -9 12.36 -9 11 C-9.99 11 -10.98 11 -12 11 C-12.33 13.64 -12.66 16.28 -13 19 C-12.01 19.33 -11.02 19.66 -10 20 C-10.66 20.33 -11.32 20.66 -12 21 C-12.66 20.67 -13.32 20.34 -14 20 C-14.3511314 13.53658132 -14.25155853 8.69022743 -11 3 C-7.74942465 -0.59885128 -4.68467485 -0.63521015 0 0 Z " fill="#ADB0BA" transform="translate(152,108)"/>
<path d="M0 0 C1.43931117 0.45261358 2.87638999 0.91232979 4.3125 1.375 C5.11300781 1.63023437 5.91351563 1.88546875 6.73828125 2.1484375 C9 3 9 3 12 5 C11.83886719 5.66515625 11.67773438 6.3303125 11.51171875 7.015625 C10.89616699 10.60556048 10.80865793 14.11924243 10.8125 17.75 C10.81258057 18.45648682 10.81266113 19.16297363 10.81274414 19.89086914 C10.66079699 28.48483775 10.66079699 28.48483775 14 36 C14.04063832 37.66617115 14.042721 39.33388095 14 41 C10.97356989 40.77581999 9.77090038 39.80442715 7.4375 37.8125 C3.49961959 32.77875685 3.12751194 26.10894888 2 20 C1.20655013 16.63972154 0.38414847 13.28806361 -0.44921875 9.9375 C-1.02324015 6.87605251 -1.1671232 4.10758823 -1 1 C-0.67 0.67 -0.34 0.34 0 0 Z " fill="#C30E13" transform="translate(170,188)"/>
<path d="M0 0 C0.22480615 5.8449599 -0.45334517 11.15301064 -1.5 16.90234375 C-1.98433189 19.90293117 -2.23953748 22.84369898 -2.4375 25.875 C-2.86632811 31.09617034 -4.17079781 34.80495737 -7.5625 38.875 C-9 40 -9 40 -11 40 C-10.9278125 39.28457031 -10.855625 38.56914062 -10.78125 37.83203125 C-9.71679133 26.40388466 -8.86635739 15.90002188 -13 5 C-4.9 -1.75 -4.9 -1.75 0 0 Z " fill="#C20E13" transform="translate(90,190)"/>
<path d="M0 0 C2.69990662 1.79993774 4.5418865 3.083773 6 6 C6.68571429 13.08571429 6.68571429 13.08571429 4.125 16.5 C-0.28811722 18.61829627 -4.19422281 18.92290877 -9 18 C-11.25 16.125 -11.25 16.125 -12 13 C-11.73645442 8.52684805 -11.4844705 4.38408623 -8.09375 1.22265625 C-5.16280986 -0.48888155 -3.34371875 -0.47767411 0 0 Z " fill="#16180F" transform="translate(101,214)"/>
<path d="M0 0 C3.65813428 0.79710319 4.99881769 2.36122669 7.0078125 5.4375 C7.62709098 8.56677443 7.64642686 11.31069949 7.0078125 14.4375 C4.77600096 17.38349124 3.22064921 17.40654193 -0.4296875 17.9375 C-4.86790102 17.31459284 -6.18324756 15.8247511 -8.9921875 12.4375 C-9.3221875 12.1075 -9.6521875 11.7775 -9.9921875 11.4375 C-9.73468348 8.02557179 -9.30114219 5.14627841 -7.9296875 2 C-5.3940762 -0.04484782 -3.20673747 -0.18932767 0 0 Z " fill="#0B1018" transform="translate(164.9921875,214.5625)"/>
<path d="M0 0 C0.33 0 0.66 0 1 0 C1.10957031 0.70125 1.21914062 1.4025 1.33203125 2.125 C2.09012595 6.66124146 2.83419565 10.93540058 4.625 15.1875 C6.29548317 19.24198929 6.23326623 22.64569705 6 27 C5.236875 27.226875 4.47375 27.45375 3.6875 27.6875 C0.45263699 29.26731682 -0.41641358 30.83282717 -2 34 C-5.29148243 32.86500606 -5.9959869 32.00716624 -7.75 28.875 C-8.1625 27.92625 -8.575 26.9775 -9 26 C-10.65 26 -12.3 26 -14 26 C-13.34 24.68 -12.68 23.36 -12 22 C-11.01 22 -10.02 22 -9 22 C-10.32 19.69 -11.64 17.38 -13 15 C-14.98 15 -16.96 15 -19 15 C-18.34 13.68 -17.68 12.36 -17 11 C-11.25 11.875 -11.25 11.875 -9 13 C-8.87625 12.401875 -8.7525 11.80375 -8.625 11.1875 C-8 9 -8 9 -6 6 C-5.93941406 6.91523437 -5.87882812 7.83046875 -5.81640625 8.7734375 C-5.73261719 9.96195313 -5.64882812 11.15046875 -5.5625 12.375 C-5.48128906 13.55835938 -5.40007812 14.74171875 -5.31640625 15.9609375 C-5.18915064 18.91518901 -5.18915064 18.91518901 -4 21 C-3.960008 22.99960012 -3.95653201 25.00047242 -4 27 C-3.01 27 -2.02 27 -1 27 C-1 26.01 -1 25.02 -1 24 C0.32 24 1.64 24 3 24 C2.69964844 22.77023438 2.39929688 21.54046875 2.08984375 20.2734375 C1.70513361 18.64076522 1.32105213 17.00794471 0.9375 15.375 C0.73833984 14.56675781 0.53917969 13.75851563 0.33398438 12.92578125 C-0.74292002 8.2780886 -1.21667865 4.72897741 0 0 Z " fill="#19110F" transform="translate(77,116)"/>
<path d="M0 0 C5.00245953 3.72854127 7.11938237 7.65856503 8.13671875 13.78125 C8.5794382 20.19650537 8.28625049 26.45882543 7.13671875 32.78125 C4.5739199 28.93705172 5.11520689 26.00753321 5.32421875 21.59375 C5.46693097 15.60675226 5.43815152 11.10270197 1.5625 6.22265625 C-3.60026889 1.00330907 -8.20637983 -1.49577511 -15.61328125 -1.59375 C-25.46514275 -1.38850289 -32.11247754 2.78934616 -38.86328125 9.78125 C-40.35696989 12.76862728 -40.04766124 15.82085907 -40.05078125 19.09375 C-40.06496094 20.40988281 -40.07914062 21.72601563 -40.09375 23.08203125 C-39.88064771 26.50250367 -39.35453107 28.73391341 -37.86328125 31.78125 C-38.85328125 32.27625 -38.85328125 32.27625 -39.86328125 32.78125 C-43.69465447 26.43553811 -45.08797306 21.19442875 -43.86328125 13.78125 C-41.06571856 6.40702946 -34.34976705 0.10254649 -27.23828125 -3.15625 C-17.95293478 -6.11652878 -8.06490041 -5.27515498 0 0 Z " fill="#23191A" transform="translate(145.86328125,34.21875)"/>
<path d="M0 0 C3.375 0.75 3.375 0.75 5.8125 2.625 C8.0105471 7.02109421 7.71229606 10.92479248 7.375 15.75 C6.715 15.75 6.055 15.75 5.375 15.75 C5.045 13.44 4.715 11.13 4.375 8.75 C3.715 8.75 3.055 8.75 2.375 8.75 C2.375 10.4 2.375 12.05 2.375 13.75 C-0.0625 13.375 -0.0625 13.375 -2.625 12.75 C-2.955 12.09 -3.285 11.43 -3.625 10.75 C-3.98106813 15.71551325 -3.98106813 15.71551325 -2.125 20.1875 C-1.63 20.703125 -1.135 21.21875 -0.625 21.75 C-1.945 23.07 -3.265 24.39 -4.625 25.75 C-8.75270387 19.7581718 -10.87993337 15.05033356 -9.625 7.75 C-7.31701194 3.22469484 -4.99680077 1.03382085 0 0 Z " fill="#518CC6" transform="translate(113.625,111.25)"/>
<path d="M0 0 C0.99 0.495 0.99 0.495 2 1 C2 1.66 2 2.32 2 3 C-0.48093575 2.042754 -2.88953686 1.05609009 -5.26171875 -0.1484375 C-24.57900577 -9.91595461 -49.51713108 -11.42153465 -70.1953125 -5.328125 C-79.96922903 -2.08180628 -88.73667405 2.57877566 -96 10 C-96.66 9.67 -97.32 9.34 -98 9 C-73.92950936 -17.16021169 -29.24646052 -17.23107185 0 0 Z " fill="#130909" transform="translate(176,91)"/>
<path d="M0 0 C0.66 0.33 1.32 0.66 2 1 C1.53671147 6.18883152 0.58851289 10.3546673 -1.3671875 15.16796875 C-2.17262676 17.49976512 -2.22914847 19.55574969 -2 22 C-0.68 21.67 0.64 21.34 2 21 C2 23.64 2 26.28 2 29 C2.99 28.67 3.98 28.34 5 28 C5.33 20.74 5.66 13.48 6 6 C6.33 6 6.66 6 7 6 C7.33 9.3 7.66 12.6 8 16 C8.86625 15.319375 9.7325 14.63875 10.625 13.9375 C14 12 14 12 17.375 12.25 C18.24125 12.4975 19.1075 12.745 20 13 C20 13.66 20 14.32 20 15 C19.071875 14.9175 18.14375 14.835 17.1875 14.75 C13.96473206 14.66269667 13.96473206 14.66269667 12.1875 16.75 C11.07139639 18.86472262 10.41881617 20.65462942 10 23 C11.65 23.33 13.3 23.66 15 24 C15 24.66 15 25.32 15 26 C13.35 26 11.7 26 10 26 C8.68 28.64 7.36 31.28 6 34 C5.01 34 4.02 34 3 34 C1.19555272 32.05674908 0.13267221 30.60650153 -0.4375 28 C-0.85128165 25.7799719 -0.85128165 25.7799719 -3.125 24.3125 C-5.31593246 21.61034997 -5.23729573 21.02484869 -4.9375 17.6875 C-4.26562229 13.46228964 -2.76460157 9.89682847 -1 6 C-0.60235737 4.01178687 -0.24544834 2.01267638 0 0 Z " fill="#1A100F" transform="translate(186,113)"/>
<path d="M0 0 C3.46266845 3.3331422 5.28724188 7.33331718 5.5 12.125 C4.99272008 16.05641939 4.02747816 18.62086974 2 22 C1.01 21.67 0.02 21.34 -1 21 C-0.835 20.360625 -0.67 19.72125 -0.5 19.0625 C0.15932515 15.02413348 0.08003779 11.08192742 0 7 C-0.66 7 -1.32 7 -2 7 C-2.33 8.32 -2.66 9.64 -3 11 C-3.99 11 -4.98 11 -6 11 C-6 9.68 -6 8.36 -6 7 C-6.99 7 -7.98 7 -9 7 C-9.33 9.64 -9.66 12.28 -10 15 C-9.01 15.33 -8.02 15.66 -7 16 C-7.66 16.33 -8.32 16.66 -9 17 C-9.66 16.67 -10.32 16.34 -11 16 C-11.027193 14.41676312 -11.04648306 12.83338938 -11.0625 11.25 C-11.07410156 10.36828125 -11.08570313 9.4865625 -11.09765625 8.578125 C-11.00610065 6.16105727 -10.85906399 4.25811107 -10 2 C-6.20189934 -0.53206711 -4.49065077 -0.77425013 0 0 Z " fill="#467DBD" transform="translate(149,112)"/>
<path d="M0 0 C0.66 0 1.32 0 2 0 C2 1.65 2 3.3 2 5 C2.66 5 3.32 5 4 5 C3.67 6.32 3.34 7.64 3 9 C3 8.34 3 7.68 3 7 C2.01 7.495 2.01 7.495 1 8 C1.43328242 10.51303805 1.6780133 11.71516561 3.625 13.4375 C5 15 5 15 4.875 17.4375 C3.89683717 20.30211972 3.15553948 21.862386 1 24 C-2.21484375 24.4609375 -2.21484375 24.4609375 -5.9375 24.375 C-7.77634766 24.35566406 -7.77634766 24.35566406 -9.65234375 24.3359375 C-12.69875156 24.0302303 -14.44295213 23.60216032 -17 22 C-14.07089056 20.04726038 -11.91867709 19.24603637 -8.5625 18.3125 C-7.61503906 18.04050781 -6.66757813 17.76851562 -5.69140625 17.48828125 C-2.16436151 16.8483965 -0.14877282 17.42561359 3 19 C3 17.68 3 16.36 3 15 C2.38125 14.690625 1.7625 14.38125 1.125 14.0625 C-0.25 13.375 -1.625 12.6875 -3 12 C-2.25749403 7.91621717 -1.17076699 3.98060777 0 0 Z " fill="#767575" transform="translate(203,142)"/>
<path d="M0 0 C-1 2 -2 4 -3 6 C-3.88762904 12.8827629 -2.20059686 17.95601575 1 24 C-1.75 24.3125 -1.75 24.3125 -5 24 C-9.31171027 19.80482244 -10.14145654 15.89210394 -10.375 10.0625 C-10.33481288 6.17583096 -10.13558576 5.19369394 -7.8125 1.875 C-4.81690334 -0.12206444 -3.51088794 -0.50155542 0 0 Z " fill="#F0E6E2" transform="translate(108,113)"/>
<path d="M0 0 C0.66 0.33 1.32 0.66 2 1 C1.27876953 1.96486328 1.27876953 1.96486328 0.54296875 2.94921875 C-1.48378864 6.95655425 -1.55753575 10.38257554 -1.6875 14.8125 C-1.72166016 15.60076172 -1.75582031 16.38902344 -1.79101562 17.20117188 C-1.87299875 19.13363119 -1.93818845 21.06679035 -2 23 C-2.99 22.67 -3.98 22.34 -5 22 C-5 17.38 -5 12.76 -5 8 C-6.5159375 8.495 -6.5159375 8.495 -8.0625 9 C-17.78035887 11.40352737 -27.81119264 10.86897152 -37 7 C-35.3125 5.875 -35.3125 5.875 -33 5 C-31.31509224 5.61911879 -29.65004057 6.29318437 -28 7 C-18.49875568 7.88356982 -9.83465119 7.45332228 -1.9375 1.8125 C-0.9784375 0.9153125 -0.9784375 0.9153125 0 0 Z " fill="#110B0C" transform="translate(153,190)"/>
<path d="M0 0 C2 2 2 2 2.375 4.375 C2 7 2 7 0.375 9.3125 C-2.64620436 11.4591452 -4.36727627 11.47383353 -8 11 C-10 9 -10 9 -10.3125 5.5625 C-10 2 -10 2 -8.9375 0 C-5.80557344 -1.61647822 -3.32814714 -0.78665296 0 0 Z " fill="#F5E801" transform="translate(102,218)"/>
<path d="M0 0 C0.66 0 1.32 0 2 0 C2.495 1.485 2.495 1.485 3 3 C5.160312 3.95830831 5.160312 3.95830831 7.75 4.5625 C11.27688939 5.52254152 14.63841199 6.54331186 18 8 C17.67 8.99 17.34 9.98 17 11 C16.09378906 10.66226563 15.18757813 10.32453125 14.25390625 9.9765625 C13.03574219 9.53054687 11.81757813 9.08453125 10.5625 8.625 C9.36753906 8.18414062 8.17257813 7.74328125 6.94140625 7.2890625 C-1.61381001 4.39089256 -9.28845064 3.77868671 -18.3125 4 C-20.43338806 4.05107497 -22.55451782 4.09312128 -24.67578125 4.125 C-25.60302002 4.14820312 -26.53025879 4.17140625 -27.4855957 4.1953125 C-30.13877216 3.98922053 -31.73132269 3.3501105 -34 2 C-27.93674001 0.93597387 -22.02191646 0.85044507 -15.875 0.875 C-14.89917969 0.87113281 -13.92335937 0.86726563 -12.91796875 0.86328125 C-11.50064453 0.86521484 -11.50064453 0.86521484 -10.0546875 0.8671875 C-8.77827393 0.86887939 -8.77827393 0.86887939 -7.47607422 0.87060547 C-4.90077315 1.00518539 -2.51293458 1.43426668 0 2 C0 1.34 0 0.68 0 0 Z " fill="#181414" transform="translate(150,64)"/>
<path d="M0 0 C2.9375 0.8125 2.9375 0.8125 4.9375 2.8125 C5.25 6.3125 5.25 6.3125 4.9375 9.8125 C1.9375 11.8125 1.9375 11.8125 -1.6875 11.5625 C-2.80125 11.315 -3.915 11.0675 -5.0625 10.8125 C-6.46185013 8.01379973 -6.31515405 5.90751208 -6.0625 2.8125 C-4.31169972 -0.20276715 -3.50175349 -0.21439307 0 0 Z " fill="#F6E901" transform="translate(165.0625,217.1875)"/>
<path d="M0 0 C4.01880114 0.9801954 5.38543659 3.23134233 7.5625 6.625 C7.375 9.5 7.375 9.5 6.5625 11.625 C5.9025 11.295 5.2425 10.965 4.5625 10.625 C4.8925 9.965 5.2225 9.305 5.5625 8.625 C1.0306066 8.31600727 -0.99335992 8.67287993 -4.4375 11.625 C-5.0975 11.625 -5.7575 11.625 -6.4375 11.625 C-6.92211538 5.325 -6.92211538 5.325 -4.75 2.1875 C-2.4375 0.625 -2.4375 0.625 0 0 Z " fill="#EBAF8A" transform="translate(200.4375,117.375)"/>
<path d="M0 0 C-6.91318309 4.60878873 -17.86722463 4.94859129 -26 4 C-26.99 3.34 -27.98 2.68 -29 2 C-26.64856824 1.32210976 -24.29461376 0.65759253 -21.9375 0 C-20.95233398 -0.28617188 -20.95233398 -0.28617188 -19.94726562 -0.578125 C-12.83174032 -2.54102853 -6.96908176 -2.27561854 0 0 Z " fill="#F1F1F1" transform="translate(192,167)"/>
<path d="M0 0 C2.475 0.99 2.475 0.99 5 2 C4.34 3.32 3.68 4.64 3 6 C8.11236781 8.07434732 12.46330893 8.24424065 17.875 8.125 C18.65875 8.11597656 19.4425 8.10695312 20.25 8.09765625 C22.16680055 8.07428063 24.08344191 8.03841653 26 8 C26 7.34 26 6.68 26 6 C26.99 6.33 27.98 6.66 29 7 C22.46990841 11.49850754 17.85504863 12.83877864 10 12 C5.24039952 10.52765804 1.38465356 8.70295953 -2 5 C-1.34 3.35 -0.68 1.7 0 0 Z " fill="#1C1717" transform="translate(117,171)"/>
<path d="M0 0 C7.41017023 -0.11459026 14.64206267 0.08839714 22 1 C22.33 1.99 22.66 2.98 23 4 C16.77983848 6.07338717 8.75623167 6.1418298 2.6875 3.5 C1.800625 3.005 0.91375 2.51 0 2 C0 1.34 0 0.68 0 0 Z " fill="#F4A8C0" transform="translate(119,175)"/>
<path d="M0 0 C0.66 0 1.32 0 2 0 C2 1.32 2 2.64 2 4 C2.9075 3.525625 3.815 3.05125 4.75 2.5625 C9.77089783 0.14860681 9.77089783 0.14860681 12 0 C14.25 1.1875 14.25 1.1875 16 3 C16 4.32 16 5.64 16 7 C15.13375 6.79375 14.2675 6.5875 13.375 6.375 C9.57470198 5.95274466 7.56161642 6.73859419 4 8 C0.625 8.125 0.625 8.125 -2 8 C-2.125 5.125 -2.125 5.125 -2 2 C-1.34 1.34 -0.68 0.68 0 0 Z " fill="#070606" transform="translate(190,154)"/>
<path d="M0 0 C0.99 0 1.98 0 3 0 C3 1.32 3 2.64 3 4 C3.99 3.67 4.98 3.34 6 3 C6.33 2.01 6.66 1.02 7 0 C7.66 0 8.32 0 9 0 C10.4783226 2.95664519 10.06032783 5.74229737 10 9 C9.34 9 8.68 9 8 9 C7.67 9.66 7.34 10.32 7 11 C3.62537285 10.45276317 1.91765 9.9451 -1 8 C-1.25660094 4.92078868 -1.39431504 2.78863007 0 0 Z " fill="#343D62" transform="translate(140,119)"/>
<path d="M0 0 C0.66 1.98 1.32 3.96 2 6 C-0.24973447 6.054138 -2.49984383 6.09285491 -4.75 6.125 C-6.00296875 6.14820313 -7.2559375 6.17140625 -8.546875 6.1953125 C-11.72820492 6.01537302 -13.36521896 5.68998582 -16 4 C-10.96003362 0.64002241 -6.00290323 -0.29282455 0 0 Z " fill="#F2F2F2" transform="translate(202,160)"/>
<path d="M0 0 C2.19702465 0.37879735 3.83875922 0.90210381 5.75 2.0625 C7.76718975 5.18914411 7.52225211 8.44466832 7 12 C5.5 15.5 5.5 15.5 4 18 C3.01 17.67 2.02 17.34 1 17 C1.2475 15.9790625 1.2475 15.9790625 1.5 14.9375 C2.42934163 9.4776179 2.44105075 5.03466718 0 0 Z " fill="#3195E1" transform="translate(147,116)"/>
<path d="M0 0 C0.33 0.66 0.66 1.32 1 2 C-1.49840454 2.50938345 -3.99823388 3.00763114 -6.5 3.5 C-7.19609375 3.64308594 -7.8921875 3.78617188 -8.609375 3.93359375 C-13.49087203 4.88277373 -18.02718299 5.13440046 -23 5 C-22.67 4.01 -22.34 3.02 -22 2 C-14.84936603 -0.44499289 -7.39128458 -1.88405293 0 0 Z " fill="#E8E8E8" transform="translate(165,171)"/>
<path d="M0 0 C0.66 1.32 1.32 2.64 2 4 C1.01 4.66 0.02 5.32 -1 6 C-0.34 7.32 0.32 8.64 1 10 C0.52949219 9.65066406 0.05898437 9.30132812 -0.42578125 8.94140625 C-1.04839844 8.48636719 -1.67101562 8.03132812 -2.3125 7.5625 C-2.92738281 7.11003906 -3.54226562 6.65757812 -4.17578125 6.19140625 C-8.15474405 3.59272605 -12.17742727 3.81667206 -16.75 3.8125 C-17.78640625 3.79413086 -17.78640625 3.79413086 -18.84375 3.77539062 C-23.59508765 3.761994 -27.48802571 4.50585144 -32 6 C-29.40282608 2.82567632 -26.9729485 1.90611106 -23 1 C-14.82869899 0.3071119 -7.75614574 1.43497543 0 4 C0 2.68 0 1.36 0 0 Z " fill="#654B3B" transform="translate(147,126)"/>
<path d="M0 0 C1.32 0.66 2.64 1.32 4 2 C3.67 2.99 3.34 3.98 3 5 C1.329375 5.2165625 1.329375 5.2165625 -0.375 5.4375 C-3.82142047 5.78372035 -3.82142047 5.78372035 -6 7 C-8.3329866 7.04022391 -10.66706666 7.04320247 -13 7 C-10.25 2.125 -10.25 2.125 -8 1 C-5.66666667 1 -3.33333333 1 -1 1 C-0.67 0.67 -0.34 0.34 0 0 Z " fill="#A29CA2" transform="translate(114,107)"/>
<path d="M0 0 C1.32 0 2.64 0 4 0 C4.103125 1.2375 4.20625 2.475 4.3125 3.75 C4.73801682 7.2792866 5.48112592 9.37160966 8 12 C6.68 13.32 5.36 14.64 4 16 C-0.39973696 10.77531236 -0.47617251 6.69286912 0 0 Z " fill="#347DBE" transform="translate(105,121)"/>
<path d="M0 0 C4.20209375 2.12218417 7.33832251 4.49995473 9 9 C9.265625 11.9453125 9.265625 11.9453125 9.25 15.125 C9.25515625 16.17945312 9.2603125 17.23390625 9.265625 18.3203125 C9 21 9 21 7 23 C7.01160156 22.19175781 7.02320313 21.38351563 7.03515625 20.55078125 C7.04417969 19.48214844 7.05320313 18.41351563 7.0625 17.3125 C7.07990234 15.72888672 7.07990234 15.72888672 7.09765625 14.11328125 C7.00783133 11.24966279 6.78323492 8.75363725 6 6 C4.06616713 4.69934079 4.06616713 4.69934079 2 4 C1.67 3.67 1.34 3.34 1 3 C-4.2528884 2.58800875 -7.46141895 3.34326963 -12 6 C-9.47176755 0.16561743 -6.15175739 -0.71770503 0 0 Z " fill="#AE938A" transform="translate(152,108)"/>
<path d="M0 0 C-0.33 1.134375 -0.66 2.26875 -1 3.4375 C-2.64289705 10.02073996 -2.35929475 16.37343808 -1 23 C-1.99 23.66 -2.98 24.32 -4 25 C-4.92234677 20.2618154 -5.21449974 15.62722221 -5.25 10.8125 C-5.270625 10.10158203 -5.29125 9.39066406 -5.3125 8.65820312 C-5.35130278 3.50228403 -5.35130278 3.50228403 -3.609375 1.01171875 C-2 0 -2 0 0 0 Z " fill="#1A0E0F" transform="translate(185,195)"/>
<path d="M0 0 C0.99 0 1.98 0 3 0 C3.60550459 7.26605505 3.60550459 7.26605505 0.9375 10.5 C-2.6042264 12.30854114 -5.07443924 12.30788712 -9 12 C-9 11.34 -9 10.68 -9 10 C-6.69 9.34 -4.38 8.68 -2 8 C-1.34 5.36 -0.68 2.72 0 0 Z " fill="#060809" transform="translate(104,220)"/>
<path d="M0 0 C4.33365607 0.36113801 5.79747716 1.18629935 8.75 4.3125 C9.5625 6.5625 9.5625 6.5625 9.75 8.3125 C8.1 7.9825 6.45 7.6525 4.75 7.3125 C4.42 8.3025 4.09 9.2925 3.75 10.3125 C2.88375 8.641875 2.88375 8.641875 2 6.9375 C0.32739798 3.98057857 -0.89982242 2.38934279 -4.25 1.3125 C-3.25 0.3125 -3.25 0.3125 0 0 Z " fill="#A9AAB7" transform="translate(149.25,109.6875)"/>
<path d="M0 0 C0.33 0 0.66 0 1 0 C0.69242923 4.06288893 0.37808161 8.12522608 0.0625 12.1875 C-0.02451172 13.33798828 -0.11152344 14.48847656 -0.20117188 15.67382812 C-0.28818359 16.78564453 -0.37519531 17.89746094 -0.46484375 19.04296875 C-0.543396 20.06414795 -0.62194824 21.08532715 -0.70288086 22.13745117 C-0.98042265 24.81138499 -1.4245724 27.37579723 -2 30 C-2.99 30.33 -3.98 30.66 -5 31 C-4.5465399 27.7076434 -4.08630941 24.41626521 -3.625 21.125 C-3.49867187 20.2071875 -3.37234375 19.289375 -3.2421875 18.34375 C-2.37387462 12.17872855 -1.28967197 6.09076144 0 0 Z " fill="#130E14" transform="translate(90,195)"/>
<path d="M0 0 C0.33 0 0.66 0 1 0 C1.04898438 1.09699219 1.09796875 2.19398437 1.1484375 3.32421875 C1.22350591 4.77866925 1.29905197 6.23309516 1.375 7.6875 C1.4059375 8.40873047 1.436875 9.12996094 1.46875 9.87304688 C1.69335587 13.97210394 2.17740909 17.24368459 4 21 C3.34 21.33 2.68 21.66 2 22 C-1.82114912 15.67122177 -3.02823663 10.40091249 -2 3 C-1.34 2.01 -0.68 1.02 0 0 Z " fill="#352929" transform="translate(104,45)"/>
<path d="M0 0 C4.29 0.33 8.58 0.66 13 1 C10.4033438 3.5966562 8.06184625 4.10687691 4.5625 5.1875 C3.40878906 5.55230469 2.25507812 5.91710937 1.06640625 6.29296875 C-2 7 -2 7 -5 6 C-3.625 4.5 -3.625 4.5 -2 3 C-1.34 3 -0.68 3 0 3 C0 2.01 0 1.02 0 0 Z " fill="#090606" transform="translate(107,66)"/>
<path d="M0 0 C0.66 2.64 1.32 5.28 2 8 C2.94875 8.103125 3.8975 8.20625 4.875 8.3125 C8 9 8 9 10 12 C6.8125 12.3125 6.8125 12.3125 3 12 C0.125 9.5625 0.125 9.5625 -2 7 C-2.33 6.67 -2.66 6.34 -3 6 C-3.04063832 4.33382885 -3.042721 2.66611905 -3 1 C-1 0 -1 0 0 0 Z " fill="#070B12" transform="translate(158,220)"/>
<path d="M0 0 C0.66 0 1.32 0 2 0 C1.125 5.75 1.125 5.75 0 8 C-5.61 7.67 -11.22 7.34 -17 7 C-17 6.67 -17 6.34 -17 6 C-13.37 6 -9.74 6 -6 6 C-6 5.34 -6 4.68 -6 4 C-4.36368108 2.95107762 -2.69514137 1.95093297 -1 1 C-0.67 0.67 -0.34 0.34 0 0 Z " fill="#E5DFDF" transform="translate(150,58)"/>
<path d="M0 0 C0.33 0.99 0.66 1.98 1 3 C2.65 3.33 4.3 3.66 6 4 C6 5.32 6 6.64 6 8 C5.34 8.66 4.68 9.32 4 10 C0.46428571 9.46428571 0.46428571 9.46428571 -1 8 C-1.125 4.5 -1.125 4.5 -1 1 C-0.67 0.67 -0.34 0.34 0 0 Z " fill="#313F6A" transform="translate(110,121)"/>
<path d="M0 0 C3.27495561 4.91243341 4.30702864 8.71149143 4.375 14.625 C4.40335937 15.75164062 4.43171875 16.87828125 4.4609375 18.0390625 C4 21 4 21 1.9765625 22.8984375 C1.32429688 23.26195312 0.67203125 23.62546875 0 24 C0.16113281 23.28714844 0.32226562 22.57429688 0.48828125 21.83984375 C1.72460098 14.97874113 1.50935372 8.52431967 -1 2 C-0.67 1.34 -0.34 0.68 0 0 Z " fill="#211011" transform="translate(77,197)"/>
<path d="M0 0 C0.66 1.32 1.32 2.64 2 4 C1.01 4.495 1.01 4.495 0 5 C3.16245541 6.0541518 5.86948218 6.31275672 9.1875 6.5625 C10.81751953 6.68818359 10.81751953 6.68818359 12.48046875 6.81640625 C13.72763672 6.90728516 13.72763672 6.90728516 15 7 C15 7.33 15 7.66 15 8 C6.41922945 8.24911914 -1.58173087 7.69882188 -10 6 C-6.99382731 2.99382731 -4.17618402 3.40414684 0 3 C0 2.01 0 1.02 0 0 Z " fill="#423E3C" transform="translate(187,159)"/>
<path d="M0 0 C2.1640625 -0.29296875 2.1640625 -0.29296875 4.625 -0.1875 C5.44226563 -0.16042969 6.25953125 -0.13335937 7.1015625 -0.10546875 C8.04128906 -0.05326172 8.04128906 -0.05326172 9 0 C8.36320312 0.12761719 7.72640625 0.25523438 7.0703125 0.38671875 C4.84888351 0.7952211 4.84888351 0.7952211 3.875 2.8125 C3.441875 3.8953125 3.441875 3.8953125 3 5 C2.33333333 6.33333333 1.66666667 7.66666667 1 9 C1 7.68 1 6.36 1 5 C0.34 5 -0.32 5 -1 5 C-1 7.31 -1 9.62 -1 12 C-1.33 12 -1.66 12 -2 12 C-2.05422947 10.5629191 -2.09289723 9.12524538 -2.125 7.6875 C-2.14820312 6.88699219 -2.17140625 6.08648437 -2.1953125 5.26171875 C-2 3 -2 3 0 0 Z " fill="#5A9AD0" transform="translate(106,116)"/>
<path d="M0 0 C0.99 0 1.98 0 3 0 C3 1.32 3 2.64 3 4 C3.99 3.67 4.98 3.34 6 3 C6.33 2.01 6.66 1.02 7 0 C7.66 0 8.32 0 9 0 C10.4783226 2.95664519 10.06032783 5.74229737 10 9 C9.67 9 9.34 9 9 9 C8.67 7.35 8.34 5.7 8 4 C3.03088634 5.12697043 3.03088634 5.12697043 -1 8 C-1.125 2.25 -1.125 2.25 0 0 Z " fill="#3F5975" transform="translate(140,119)"/>
<path d="M0 0 C0.66 0 1.32 0 2 0 C2 1.32 2 2.64 2 4 C2.99 4.33 3.98 4.66 5 5 C4.67 5.99 4.34 6.98 4 8 C2.02 8 0.04 8 -2 8 C-2.125 5.125 -2.125 5.125 -2 2 C-1.34 1.34 -0.68 0.68 0 0 Z " fill="#0E0D0C" transform="translate(190,154)"/>
<path d="M0 0 C0.66 0.33 1.32 0.66 2 1 C1.53444296 7.40140935 -0.14711836 12.26769829 -3 18 C-3.66 18 -4.32 18 -5 18 C-4.80664062 17.3709375 -4.61328125 16.741875 -4.4140625 16.09375 C-2.7907875 10.75783615 -1.30539435 5.42240732 0 0 Z " fill="#281715" transform="translate(186,113)"/>
<path d="M0 0 C3.85478218 -0.35858439 5.57759458 -0.2754818 8.875 1.875 C9.57625 2.57625 10.2775 3.2775 11 4 C11 4.66 11 5.32 11 6 C5 4.5 5 4.5 -1 3 C-0.67 2.01 -0.34 1.02 0 0 Z " fill="#0E1318" transform="translate(95,214)"/>
<path d="M0 0 C2.625 -0.1875 2.625 -0.1875 5 0 C5 2.66666667 5 5.33333333 5 8 C2.625 7.75 2.625 7.75 0 7 C-1.3125 4.9375 -1.3125 4.9375 -2 3 C-1.34 2.01 -0.68 1.02 0 0 Z " fill="#6A7C91" transform="translate(111,117)"/>
<path d="M0 0 C2.20805524 -0.0544452 4.41650554 -0.09299283 6.625 -0.125 C7.85476562 -0.14820312 9.08453125 -0.17140625 10.3515625 -0.1953125 C13.94316041 -0.0030428 16.66661175 0.69741444 20 2 C17.09430635 4.1257443 15.77395067 3.97321906 12.109375 3.5390625 C10.65348288 3.24788408 9.20032698 2.94273948 7.75 2.625 C7.00492188 2.47289062 6.25984375 2.32078125 5.4921875 2.1640625 C3.65896123 1.78801609 1.8291069 1.39559754 0 1 C0 0.67 0 0.34 0 0 Z " fill="#3A1E1F" transform="translate(123,30)"/>
<path d="M0 0 C0.66 0 1.32 0 2 0 C4.67927341 4.01891012 4.15601248 6.24161923 4 11 C3.01 11.33 2.02 11.66 1 12 C0.67 8.04 0.34 4.08 0 0 Z " fill="#C5C3C8" transform="translate(154,117)"/>
<path d="M0 0 C2.19702465 0.37879735 3.83875922 0.90210381 5.75 2.0625 C7.79404368 5.23076771 7.182379 8.29162692 7 12 C6.67 12 6.34 12 6 12 C5.67 10.02 5.34 8.04 5 6 C4.67 7.65 4.34 9.3 4 11 C3.67 11 3.34 11 3 11 C2.51171875 9.01432292 2.0234375 7.02864583 1.53515625 5.04296875 C1.08989295 3.34316798 0.55566015 1.66698046 0 0 Z " fill="#4491D0" transform="translate(147,116)"/>
<path d="M0 0 C0.66 0 1.32 0 2 0 C2 1.65 2 3.3 2 5 C2.66 5 3.32 5 4 5 C3.67 6.32 3.34 7.64 3 9 C3 8.34 3 7.68 3 7 C2.071875 7.99 2.071875 7.99 1.125 9 C-1 11 -1 11 -3 11 C-2.690625 10.113125 -2.38125 9.22625 -2.0625 8.3125 C-1.1709329 5.53290845 -0.50622993 2.86863625 0 0 Z " fill="#847870" transform="translate(203,142)"/>
<path d="M0 0 C0.66 1.32 1.32 2.64 2 4 C1.01 4.66 0.02 5.32 -1 6 C-0.34 7.32 0.32 8.64 1 10 C-0.03125 9.21625 -1.0625 8.4325 -2.125 7.625 C-5.28098738 5.35603148 -8.21815519 4.01464129 -12 3 C-12 2.67 -12 2.34 -12 2 C-10.56208484 2.14168137 -9.1246763 2.28851043 -7.6875 2.4375 C-6.88699219 2.51871094 -6.08648437 2.59992188 -5.26171875 2.68359375 C-3 3 -3 3 0 4 C0 2.68 0 1.36 0 0 Z " fill="#433E4C" transform="translate(147,126)"/>
<path d="M0 0 C2.67710191 1.33855096 2.95129094 2.72058088 4.125 5.4375 C4.47820313 6.24058594 4.83140625 7.04367188 5.1953125 7.87109375 C6 10 6 10 6 12 C3.32423308 10.99382318 2.2214892 10.45785454 0.953125 7.8359375 C0.72109375 7.02382812 0.4890625 6.21171875 0.25 5.375 C0.00765625 4.55773437 -0.2346875 3.74046875 -0.484375 2.8984375 C-0.65453125 2.27195313 -0.8246875 1.64546875 -1 1 C-0.67 0.67 -0.34 0.34 0 0 Z " fill="#282727" transform="translate(48,215)"/>
<path d="M0 0 C0.66 0 1.32 0 2 0 C1.73781251 4.4571874 1.42288711 6.51522698 -1.5625 9.9375 C-2.366875 10.618125 -3.17125 11.29875 -4 12 C-3.71640113 10.5608866 -3.42278601 9.12374482 -3.125 7.6875 C-2.96257812 6.88699219 -2.80015625 6.08648437 -2.6328125 5.26171875 C-2 3 -2 3 0 0 Z " fill="#272626" transform="translate(213,212)"/>
<path d="M0 0 C0.33 0.66 0.66 1.32 1 2 C-2.9813783 3.3271261 -6.85045227 3.06915913 -11 3 C-10.67 2.01 -10.34 1.02 -10 0 C-3.375 -1.125 -3.375 -1.125 0 0 Z " fill="#F1F1F1" transform="translate(153,173)"/>
<path d="M0 0 C0.99 0 1.98 0 3 0 C2.49172849 4.37113496 1.54826592 7.38995662 -1 11 C-1.33 11 -1.66 11 -2 11 C-1.85957123 9.35369672 -1.71250671 7.70795821 -1.5625 6.0625 C-1.48128906 5.14597656 -1.40007812 4.22945312 -1.31640625 3.28515625 C-1 1 -1 1 0 0 Z " fill="#202020" transform="translate(219,213)"/>
<path d="M0 0 C0.99 0.33 1.98 0.66 3 1 C4.33599181 4.00598158 5.14345053 6.09147996 4.625 9.375 C4.41875 9.91125 4.2125 10.4475 4 11 C0.85041169 7.57653445 0.43820891 4.55737263 0 0 Z " fill="#1E1D1D" transform="translate(41,216)"/>
<path d="M0 0 C1.2065625 0.0309375 1.2065625 0.0309375 2.4375 0.0625 C2.7675 0.7225 3.0975 1.3825 3.4375 2.0625 C2.5 4.1875 2.5 4.1875 1.4375 6.0625 C0.4475 6.0625 -0.5425 6.0625 -1.5625 6.0625 C-1.5625 4.7425 -1.5625 3.4225 -1.5625 2.0625 C-2.2225 1.7325 -2.8825 1.4025 -3.5625 1.0625 C-2.5625 0.0625 -2.5625 0.0625 0 0 Z " fill="#748699" transform="translate(144.5625,116.9375)"/>
<path d="M0 0 C1.58538318 2.51796153 2.0373656 3.67865586 1.6875 6.6875 C1 9 1 9 0 10 C-1.66617115 10.04063832 -3.33388095 10.042721 -5 10 C-4.360625 9.46375 -3.72125 8.9275 -3.0625 8.375 C-0.61470596 5.55632807 -0.33285388 3.66139268 0 0 Z " fill="#1C1C06" transform="translate(170,221)"/>
<path d="M0 0 C0.33 0.66 0.66 1.32 1 2 C0.33333333 3.33333333 -0.33333333 4.66666667 -1 6 C-1.45064632 8.58532701 -1.45064632 8.58532701 -1.625 11.25 C-1.69976562 12.14203125 -1.77453125 13.0340625 -1.8515625 13.953125 C-1.90054688 14.62859375 -1.94953125 15.3040625 -2 16 C-2.99 15.01 -3.98 14.02 -5 13 C-4.54803755 11.39402675 -4.08817673 9.79027492 -3.625 8.1875 C-3.36976562 7.29417969 -3.11453125 6.40085938 -2.8515625 5.48046875 C-2 3 -2 3 0 0 Z " fill="#312822" transform="translate(109,137)"/>
<path d="M0 0 C0.33 0.66 0.66 1.32 1 2 C3.52733235 2.65555119 3.52733235 2.65555119 6 3 C4.68 4.65 3.36 6.3 2 8 C0.4375 6.25 0.4375 6.25 -1 4 C-0.6875 1.75 -0.6875 1.75 0 0 Z " fill="#608DC0" transform="translate(107,129)"/>
<path d="M0 0 C0.99 0 1.98 0 3 0 C3 3.63 3 7.26 3 11 C2.01 10.67 1.02 10.34 0 10 C0 6.7 0 3.4 0 0 Z " fill="#3F1415" transform="translate(191,97)"/>
<path d="M0 0 C2.26171875 0.4609375 2.26171875 0.4609375 4.6875 1.375 C5.49574219 1.67148438 6.30398437 1.96796875 7.13671875 2.2734375 C7.75160156 2.51320313 8.36648437 2.75296875 9 3 C8.67 3.99 8.34 4.98 8 6 C4.37 4.68 0.74 3.36 -3 2 C-2.01 1.34 -1.02 0.68 0 0 Z " fill="#2A0D0E" transform="translate(159,69)"/>
<path d="M0 0 C0.33 0.66 0.66 1.32 1 2 C0.06027344 2.18175781 0.06027344 2.18175781 -0.8984375 2.3671875 C-1.71570313 2.53476563 -2.53296875 2.70234375 -3.375 2.875 C-4.18710938 3.03742188 -4.99921875 3.19984375 -5.8359375 3.3671875 C-8.18673923 3.86658932 -8.18673923 3.86658932 -10 6 C-10 4.68 -10 3.36 -10 2 C-6.3558226 -0.4294516 -4.28758728 -0.16179575 0 0 Z " fill="#5A6FB5" transform="translate(149,112)"/>
<path d="M0 0 C1.32 0.66 2.64 1.32 4 2 C3.67 2.99 3.34 3.98 3 5 C1.948125 4.5359375 1.948125 4.5359375 0.875 4.0625 C-2.08936657 2.96697322 -4.87698108 2.43577008 -8 2 C-8 1.67 -8 1.34 -8 1 C-6.865625 1.020625 -5.73125 1.04125 -4.5625 1.0625 C-1.18424326 1.41577477 -1.18424326 1.41577477 0 0 Z " fill="#C19A88" transform="translate(114,107)"/>
<path d="M0 0 C2.475 0.495 2.475 0.495 5 1 C4.34 2.32 3.68 3.64 3 5 C2.01 5 1.02 5 0 5 C0 3.35 0 1.7 0 0 Z " fill="#2830B4" transform="translate(112,125)"/>
<path d="M0 0 C2.64 0.33 5.28 0.66 8 1 C8.33 1.99 8.66 2.98 9 4 C6.69 4 4.38 4 2 4 C1.34 2.68 0.68 1.36 0 0 Z " fill="#E1D1D1" transform="translate(107,63)"/>
<path d="M0 0 C0.66 0 1.32 0 2 0 C0.44499019 3.81684226 -2.03595495 6.19195732 -5 9 C-5.33 8.34 -5.66 7.68 -6 7 C-5.04882866 5.8274869 -4.08882991 4.66212985 -3.125 3.5 C-2.59132813 2.8503125 -2.05765625 2.200625 -1.5078125 1.53125 C-0.76144531 0.77328125 -0.76144531 0.77328125 0 0 Z " fill="#221D1D" transform="translate(110,37)"/>
<path d="M0 0 C2.475 0.99 2.475 0.99 5 2 C3.35 3.65 1.7 5.3 0 7 C-0.66 5.68 -1.32 4.36 -2 3 C-1.34 2.01 -0.68 1.02 0 0 Z " fill="#0C0909" transform="translate(117,171)"/>
<path d="M0 0 C1.98 0.495 1.98 0.495 4 1 C4 2.32 4 3.64 4 5 C2.35 4.67 0.7 4.34 -1 4 C-0.67 2.68 -0.34 1.36 0 0 Z " fill="#2930B0" transform="translate(143,125)"/>
<path d="M0 0 C0.33 0.99 0.66 1.98 1 3 C-1.33333333 7.66666667 -1.33333333 7.66666667 -4 9 C-3.46930939 5.17902761 -2.50298434 2.93828597 0 0 Z " fill="#252424" transform="translate(228,214)"/>
<path d="M0 0 C1.485 0.99 1.485 0.99 3 2 C3.1875 5.625 3.1875 5.625 3 9 C1.5 7.875 1.5 7.875 0 6 C-0.1875 2.8125 -0.1875 2.8125 0 0 Z " fill="#070605" transform="translate(79,130)"/>
<path d="M0 0 C2.31 0 4.62 0 7 0 C7.66 1.32 8.32 2.64 9 4 C5.7 3.34 2.4 2.68 -1 2 C-0.67 1.34 -0.34 0.68 0 0 Z " fill="#5E73B9" transform="translate(110,112)"/>
<path d="M0 0 C2.1640625 -0.29296875 2.1640625 -0.29296875 4.625 -0.1875 C5.44226563 -0.16042969 6.25953125 -0.13335937 7.1015625 -0.10546875 C8.04128906 -0.05326172 8.04128906 -0.05326172 9 0 C6.28817788 2.60334924 5.10866187 2.99456691 1.25 3.1875 C0.1775 3.125625 -0.895 3.06375 -2 3 C-1.34 2.01 -0.68 1.02 0 0 Z " fill="#B3B1B9" transform="translate(103,111)"/>
<path d="M0 0 C0.99 0.33 1.98 0.66 3 1 C0.47043472 4.0916909 -2.22454612 4.90931332 -6 6 C-6 5.34 -6 4.68 -6 4 C-3.1875 1.8125 -3.1875 1.8125 0 0 Z " fill="#333232" transform="translate(71,228)"/>
<path d="M0 0 C0.99 0.33 1.98 0.66 3 1 C2.2884375 1.5878125 2.2884375 1.5878125 1.5625 2.1875 C-0.35179633 4.40808374 -0.61266988 6.13375709 -1 9 C-4 5.25 -4 5.25 -4 3 C-2.1875 1.3125 -2.1875 1.3125 0 0 Z " fill="#1C1C07" transform="translate(160,216)"/>
<path d="M0 0 C0.66 0.33 1.32 0.66 2 1 C1.690625 1.53625 1.38125 2.0725 1.0625 2.625 C-0.17827439 5.3984957 -0.5909675 8.00042837 -1 11 C-1.33 11 -1.66 11 -2 11 C-2.05399736 9.54207116 -2.09279177 8.08357288 -2.125 6.625 C-2.15980469 5.40683594 -2.15980469 5.40683594 -2.1953125 4.1640625 C-2 2 -2 2 0 0 Z " fill="#25260F" transform="translate(93,215)"/>
<path d="M0 0 C2.05078125 0.03255208 4.1015625 0.06510417 6.15234375 0.09765625 C6.15234375 0.42765625 6.15234375 0.75765625 6.15234375 1.09765625 C5.21261719 1.40509766 5.21261719 1.40509766 4.25390625 1.71875 C3.43664062 1.98816406 2.619375 2.25757812 1.77734375 2.53515625 C0.96523437 2.80199219 0.153125 3.06882812 -0.68359375 3.34375 C-2.85797424 4.04945354 -2.85797424 4.04945354 -4.84765625 5.09765625 C-2.44354091 0.12915121 -2.44354091 0.12915121 0 0 Z " fill="#98898D" transform="translate(144.84765625,108.90234375)"/>
<path d="M0 0 C2.79872437 2.52788007 4.45773019 4.20411134 5 8 C4.34 8 3.68 8 3 8 C0.25624329 5.04518508 0 4.22528092 0 0 Z " fill="#242323" transform="translate(34,218)"/>
<path d="M0 0 C2.16874252 0.50603992 3.99967627 0.99983813 6 2 C5.67 3.32 5.34 4.64 5 6 C4.01 5.67 3.02 5.34 2 5 C2 3.68 2 2.36 2 1 C1.34 0.67 0.68 0.34 0 0 Z " fill="#4A4A4A" transform="translate(200,159)"/>
<path d="M0 0 C4 4.875 4 4.875 4 6 C2.02 6 0.04 6 -2 6 C-2.33 5.34 -2.66 4.68 -3 4 C-2.34 4 -1.68 4 -1 4 C-0.67 2.68 -0.34 1.36 0 0 Z " fill="#E4D6D4" transform="translate(105,131)"/>
<path d="M0 0 C1.3921875 0.3403125 1.3921875 0.3403125 2.8125 0.6875 C2.8125 1.3475 2.8125 2.0075 2.8125 2.6875 C-0.1875 2.6875 -3.1875 2.6875 -6.1875 2.6875 C-4.14987265 -0.14253799 -3.59070275 -0.35202968 0 0 Z " fill="#2F2722" transform="translate(203.1875,125.3125)"/>
<path d="M0 0 C-0.99 0.33 -1.98 0.66 -3 1 C-3.99 2.485 -3.99 2.485 -5 4 C-5.99 4 -6.98 4 -8 4 C-7.6875 2.0625 -7.6875 2.0625 -7 0 C-3.86650268 -1.04449911 -3.01031744 -0.93423645 0 0 Z " fill="#221110" transform="translate(122,88)"/>
<path d="M0 0 C-0.66 0.66 -1.32 1.32 -2 2 C-4.1640625 1.9765625 -4.1640625 1.9765625 -6.625 1.625 C-7.44226563 1.51414062 -8.25953125 1.40328125 -9.1015625 1.2890625 C-9.72804687 1.19367188 -10.35453125 1.09828125 -11 1 C-6.8204355 -1.78637633 -4.85331323 -0.79562512 0 0 Z " fill="#240C0C" transform="translate(160,83)"/>
<path d="M0 0 C2 1 4 2 6 3 C6 3.99 6 4.98 6 6 C3.37812506 4.95125002 2.20628639 4.35068687 0.75 1.875 C0.5025 1.25625 0.255 0.6375 0 0 Z " fill="#E0DBD9" transform="translate(187,226)"/>
<path d="M0 0 C-0.33 0.66 -0.66 1.32 -1 2 C-3.9375 2.75 -3.9375 2.75 -7 3 C-7.66 2.34 -8.32 1.68 -9 1 C-2.25 -1.125 -2.25 -1.125 0 0 Z " fill="#1F1613" transform="translate(148,196)"/>
</svg>
